<svg xmlns="http://www.w3.org/2000/svg" width="224" height="224" viewBox="0 0 224 224">
    <g fill="#03A9FF" fill-rule="nonzero">
        <path d="M173.724 194.703V151c0-27.019-22.04-49-49.134-49H95.41c-27.094 0-49.134 21.981-49.134 49v43.703H33V200h154v-5.297h-13.276zm-7.965 0H51.586V151c0-24.097 19.66-43.703 43.824-43.703h29.178c24.167 0 43.826 19.606 43.826 43.703v43.703h-2.655z"/>
        <path d="M128.5 147c5.79 0 10.5-4.664 10.5-10.4V134h-5.25v2.6c0 2.868-2.355 5.2-5.25 5.2s-5.25-2.332-5.25-5.2V134H118v2.6c0 5.736 4.71 10.4 10.5 10.4zM88.5 147c5.79 0 10.5-4.664 10.5-10.4V134h-5.25v2.6c0 2.868-2.355 5.2-5.25 5.2s-5.25-2.332-5.25-5.2V134H78v2.6c0 5.736 4.71 10.4 10.5 10.4zM152.353 153H67.647A2.658 2.658 0 0 0 65 155.667V165c0 6.616 5.344 12 11.914 12h66.172c6.57 0 11.914-5.384 11.914-12v-9.333a2.658 2.658 0 0 0-2.647-2.667zm-52.941 5.333h7.94v13.334h-7.94v-13.334zm-5.294 13.334h-7.942v-13.334h7.942v13.334zm18.53-13.334h7.94v13.334h-7.94v-13.334zm13.234 0h7.942v13.334h-7.942v-13.334zM70.294 165v-6.667h10.588v13.334h-3.968c-3.65 0-6.62-2.992-6.62-6.667zm79.412 0c0 3.675-2.97 6.667-6.62 6.667h-3.968v-13.334h10.588V165zM121.3 179H99.7c-1.49 0-2.7 1.12-2.7 2.5s1.21 2.5 2.7 2.5h21.6c1.49 0 2.7-1.12 2.7-2.5s-1.21-2.5-2.7-2.5zM139.586 68.133l14.216-14.28c.583-.584.167-1.579-.657-1.579h-1.134c-.772 0-1.207-.893-.726-1.499l7.538-9.505a.924.924 0 0 0-.726-1.5h-3.79a.925.925 0 0 1-.74-1.48l9.63-12.81a.925.925 0 0 0-.741-1.48h-15.23a.92.92 0 0 0-.828.514l-7.446 15.062a.926.926 0 0 0 .829 1.338h3.433a.926.926 0 0 1 .829 1.337l-5.09 10.301a.926.926 0 0 0 .828 1.337h3.234c.685 0 1.13.713.833 1.329l-5.747 11.86c-.458.94.75 1.796 1.485 1.055zM71.768 78.007L76.2 63.39c.183-.598-.45-1.115-1.001-.822l-.759.403a.702.702 0 0 1-1.02-.745l1.663-9.044a.7.7 0 0 0-1.02-.745l-2.536 1.349a.701.701 0 0 1-1.023-.728l1.887-12a.701.701 0 0 0-1.023-.728l-10.193 5.42a.698.698 0 0 0-.371.638l.377 12.732a.702.702 0 0 0 1.03.6l2.298-1.222a.702.702 0 0 1 1.03.6l.26 8.706a.702.702 0 0 0 1.03.6l2.165-1.15a.7.7 0 0 1 1.03.592l.374 9.984c.028.791 1.14.935 1.37.177zM169.715 89.579l8.885-2.91a.43.43 0 0 0 .06-.79l-.468-.24a.43.43 0 0 1 .015-.772l5.119-2.342a.429.429 0 0 0 .015-.772l-1.567-.799a.43.43 0 0 1 .006-.768l6.68-3.267a.43.43 0 0 0 .005-.768l-6.296-3.208a.427.427 0 0 0-.45.038l-6.251 4.659a.43.43 0 0 0 .06.727l1.42.723a.43.43 0 0 1 .06.728l-4.273 3.186a.43.43 0 0 0 .06.727l1.338.682a.429.429 0 0 1 .064.724l-4.874 3.693c-.387.291-.068.9.392.749zM50.1 102.8l-2.44-9.025a.43.43 0 0 0-.786-.102l-.263.455a.43.43 0 0 1-.77-.055l-2.071-5.234a.429.429 0 0 0-.771-.056l-.88 1.523a.43.43 0 0 1-.766-.046l-2.913-6.841a.43.43 0 0 0-.767-.046l-3.533 6.119a.427.427 0 0 0 .015.452l4.325 6.486a.43.43 0 0 0 .73-.023l.796-1.38a.43.43 0 0 1 .73-.022l2.957 4.435a.43.43 0 0 0 .73-.022l.75-1.3a.429.429 0 0 1 .727-.027l3.432 5.061c.272.402.896.115.769-.352z"/>
    </g>
</svg>
