<svg xmlns="http://www.w3.org/2000/svg" width="192" height="25" viewBox="0 0 192 25">
    <path fill="#00B2FF" fill-rule="nonzero" d="M162.134 24.989a5.753 5.753 0 0 1-3.355-1.62 13.272 13.272 0 0 1-6.16 1.62c-7.015.055-12.756-5.524-12.848-12.485a11.901 11.901 0 0 1 2.135-6.737 13.28 13.28 0 0 1 5.524-4.65 12.38 12.38 0 0 1 5.289-1.01 12.692 12.692 0 0 1 8.543 3.13 12.04 12.04 0 0 1 4.405 9.233 25.194 25.194 0 0 1-1.498 4.995 4.342 4.342 0 0 1 1.878 3.495 4.203 4.203 0 0 1-1.386 3.119 3.143 3.143 0 0 1-2.17.899 1.881 1.881 0 0 1-.357.01zm-113.717 0a10.452 10.452 0 0 1-6.788-2.12 4.94 4.94 0 0 1-2.124-3.995c0-.93.36-1.823 1.006-2.497a4.684 4.684 0 0 1 2.762-.999 5.278 5.278 0 0 1 2.896 1.11 8.862 8.862 0 0 0 2.639 1.498c.272-.003.538-.088.76-.244a.928.928 0 0 0 .246-.755 1.286 1.286 0 0 0-.626-.998 30.075 30.075 0 0 0-3.656-1.366c-3.511-1.242-5.401-3.518-5.401-6.847a6.874 6.874 0 0 1 2.896-5.882A9.779 9.779 0 0 1 49.199.008a11.01 11.01 0 0 1 5.535 1.498 4.356 4.356 0 0 1 2.236 3.75 3.238 3.238 0 0 1-.883 2.376 2.593 2.593 0 0 1-2.236.865 5.95 5.95 0 0 1-3.276-1.365 2.981 2.981 0 0 0-1.633-.876.921.921 0 0 0-.75.244c-.256.133-.256.51-.256.754 0 .622.76 1.11 2.393 1.499a15.109 15.109 0 0 1 5.154 2.497 6.801 6.801 0 0 1 2.393 5.615 7.235 7.235 0 0 1-2.773 6.115A10.485 10.485 0 0 1 48.976 25l-.56-.011zM20.753 21.87a3.13 3.13 0 0 1 1.939-2.899 3.17 3.17 0 0 1 3.44.671 3.113 3.113 0 0 1 .689 3.412 3.154 3.154 0 0 1-2.915 1.935 3.154 3.154 0 0 1-2.229-.91 3.107 3.107 0 0 1-.924-2.209zm-9.426 0c0-1.713 1.394-3.105 3.12-3.117 1.727-.012 3.14 1.36 3.164 3.074.024 1.713-1.349 3.125-3.075 3.162-1.737 0-3.147-1.395-3.153-3.119h-.056zm69.18-3.873a12.96 12.96 0 0 1-1.386-5.782 11.194 11.194 0 0 1 1.118-4.994 12.018 12.018 0 0 1 4.775-5.25A13.168 13.168 0 0 1 92.081.009c2.399-.01 4.753.643 6.798 1.886a14.04 14.04 0 0 1 4.775 4.994 11.885 11.885 0 0 1-.38 11.609c-2.398 4.038-6.808 6.476-11.53 6.372-4.723-.103-9.02-2.732-11.236-6.872zm-15.094 5.127a4.512 4.512 0 0 1-.75-3.14l.123-12.097h-2.169a4.575 4.575 0 0 1-2.885-.877 3.132 3.132 0 0 1-1.24-2.563 3.31 3.31 0 0 1 .514-1.876 2.89 2.89 0 0 1 1.498-1.243 13.12 13.12 0 0 1 4.405-.433h8.185a10.26 10.26 0 0 1 3.892.378 4.01 4.01 0 0 1 1.632 1.243 3.445 3.445 0 0 1-.749 4.75 4.733 4.733 0 0 1-3.142.876h-1.89v11.73a6.33 6.33 0 0 1-.637 2.997 3.843 3.843 0 0 1-3.355 1.754h-.335a4.003 4.003 0 0 1-3.097-1.499zm119.89.5a7.417 7.417 0 0 1-1.645-2.22h-7.547v-.31a6.645 6.645 0 0 1-1.118 1.997 3.917 3.917 0 0 1-3.02 1.243 3.822 3.822 0 0 1-3.264-1.62 3.501 3.501 0 0 1-.76-2.22c-.02-.699.154-1.39.502-1.997l7.66-15.604a3.929 3.929 0 0 1 3.78-2.22 4.005 4.005 0 0 1 3.779 2.375l7.827 15.726c.284.589.455 1.225.503 1.876-.043.9-.35 1.768-.883 2.497a4.253 4.253 0 0 1-3.142 1.365 3.899 3.899 0 0 1-2.673-.888zm-77.244-.633a5.332 5.332 0 0 1-1.006-3.33V5.236c0-2.997 1.633-4.44 5.032-4.44h5.155a8.817 8.817 0 0 1 4.64 1.221 8.108 8.108 0 0 1 3.153 3.63 8.293 8.293 0 0 1 .75 3.329 8.592 8.592 0 0 1-2.64 6.126l1.89 2.863c.49.742.75 1.61.75 2.497a3.858 3.858 0 0 1-1.119 2.752 4.009 4.009 0 0 1-2.896 1.11 3.664 3.664 0 0 1-3.243-1.709l-3.265-5.36v3.24a3.814 3.814 0 0 1-1.163 2.847 3.874 3.874 0 0 1-2.896 1.082h-.313a3.587 3.587 0 0 1-2.829-1.432zm22.017.133a4.218 4.218 0 0 1-1.017-3.251V5.446a4.99 4.99 0 0 1 1.017-3.496 4.272 4.272 0 0 1 6.005 0 5.045 5.045 0 0 1 1.006 3.496v14.538a5.135 5.135 0 0 1-1.006 2.996 4.003 4.003 0 0 1-3.02 1.443 4.354 4.354 0 0 1-2.985-1.299zM24.03 16.754H12.456c-1.274.122-2.012-1.62-2.393-2.12L4.652 3.649a.973.973 0 0 0-1.007-.622H.75A.813.813 0 0 1 0 2.227V.773A.813.813 0 0 1 .75.008h5.03c.492.007.932.304 1.12.754l.625 1.365c.18.457.624.757 1.118.755h22.8c.38.033.73.219.968.514.24.296.346.675.295 1.05.013.335-.127.657-.38.877l-5.658 9.989a2.662 2.662 0 0 1-2.36 1.52l-.279-.078z"/>
</svg>
