<svg xmlns="http://www.w3.org/2000/svg" xmlns:xlink="http://www.w3.org/1999/xlink" viewBox="15337.04 8435 23.96 24">
  <defs>
    <style>
      .cls-1 {
        fill: url(#radial-gradient);
      }
    </style>
    <radialGradient id="radial-gradient" cx="3.539" cy="-2.922" r="55.421" gradientUnits="userSpaceOnUse">
      <stop offset="0" stop-color="#2fbafd"/>
      <stop offset="1" stop-color="#44cfcc"/>
    </radialGradient>
  </defs>
  <path id="Path_165" data-name="Path 165" class="cls-1" d="M23.889,11.626,22.276,9.287l.161-2.824a.847.847,0,0,0-.4-.726l-2.582-1.21-1.21-2.582a.847.847,0,0,0-.726-.4l-2.824.242L12.353.171a.733.733,0,0,0-.807,0L9.206,1.784,6.464,1.542a.577.577,0,0,0-.726.4L4.527,4.527,1.946,5.737a.577.577,0,0,0-.4.726l.242,2.824L.171,11.626a.733.733,0,0,0,0,.807l1.613,2.339L1.542,17.6a.847.847,0,0,0,.4.726l2.582,1.21,1.21,2.582a.705.705,0,0,0,.726.4l2.824-.242,2.34,1.613c.161.081.242.161.4.161a.616.616,0,0,0,.4-.161l2.34-1.613,2.824.242a.847.847,0,0,0,.726-.4l1.21-2.582,2.582-1.21a.847.847,0,0,0,.4-.726l-.242-2.824,1.613-2.339A.733.733,0,0,0,23.889,11.626Zm-20.814,2.5-1.452-2.1,1.291-1.775h2.34c.645,0,1.049,0,1.049,1.452v5.405c0,.323-.968.726-2.1.726l-1.129-.565.161-2.662A.593.593,0,0,0,3.075,14.127Zm7.18-7.664a18.515,18.515,0,0,0-.323,2.259h-.4a.726.726,0,1,0,0,1.452h5.728c.242,0,.323.323.4.323,0,0-.081.4-.726.4a.726.726,0,1,0,0,1.452c.726,0,.726.161.726.4a.471.471,0,0,1-.081.323,1.573,1.573,0,0,1-.645.081.726.726,0,1,0,0,1.452h0a.419.419,0,0,1,.4.4c0,.242,0,.4-.726.4a.726.726,0,1,0,0,1.452h.323a2.629,2.629,0,0,1-1.049.323,17.6,17.6,0,0,0-2.1.161c-1.371.081-3.227.242-3.63.242a.727.727,0,0,1-.4-.081V11.788a2.487,2.487,0,0,0-.081-.807L9.933,5.657c.081,0,.161.081.242.161A1.387,1.387,0,0,1,10.255,6.463ZM20.9,14.127a1.147,1.147,0,0,0-.161.484l.242,2.582-2.34,1.049a.63.63,0,0,0-.323.323l-1.129,2.42-2.582-.242a.593.593,0,0,0-.484.161l-2.1,1.533L9.933,20.9a.616.616,0,0,0-.4-.161H9.448l-2.662.242-.968-2.1a4.935,4.935,0,0,0,.968-.4A2.673,2.673,0,0,0,8,18.806c.4,0,1.855-.081,3.711-.242.887-.081,1.855-.161,2.017-.161.565,0,2.5-.484,2.5-1.775a1.575,1.575,0,0,0-.081-.565,1.779,1.779,0,0,0,.484-1.21,2.387,2.387,0,0,0-.161-.807,1.573,1.573,0,0,0,.565-1.371,1.919,1.919,0,0,0-.4-1.129,1.9,1.9,0,0,0,.4-1.049,1.838,1.838,0,0,0-1.775-1.775H11.3c.081-.484.161-1.129.323-2.017a2.008,2.008,0,0,0-.4-1.855,2.628,2.628,0,0,0-1.775-.807.719.719,0,0,0-.645.4L6.786,9.126a2.409,2.409,0,0,0-1.613-.484H3.156L2.995,6.786l2.34-1.049a.972.972,0,0,0,.4-.4L6.786,2.995l2.582.242a.593.593,0,0,0,.484-.161L12.03,1.623l2.1,1.533a1.023,1.023,0,0,0,.484.081l2.582-.242,1.049,2.339a.63.63,0,0,0,.323.323l2.42,1.129-.242,2.582a.593.593,0,0,0,.161.484l1.533,2.1Z" transform="translate(15336.99 8434.95)"/>
</svg>
