<svg version="1.1" id="Layer_1" xmlns="http://www.w3.org/2000/svg" xmlns:xlink="http://www.w3.org/1999/xlink" x="0px" y="0px"
	 viewBox="0 0 31 31" enable-background="new 0 0 31 31" xml:space="preserve" fill="#505050">
<path d="M21.7,8.2h-2.5V6.6c0-0.3-0.3-0.6-0.6-0.6c0,0,0,0,0,0c0,0-0.1,0-0.1,0c0,0,0,0,0,0h-6
	c-0.3,0-0.6,0.3-0.6,0.6c0,0,0,0,0,0v1.6H9.3C8.6,8.2,8,8.8,8,9.5v2.1h1.1v12.1c0,0.7,0.5,1.3,1.2,1.3c0,0,0,0,0,0h10.2
	c0.7,0,1.3-0.5,1.3-1.2c0,0,0,0,0,0V11.7H23V9.5C23,8.8,22.4,8.2,21.7,8.2z M13,7.2h5v1.1h-5C13,8.2,13,7.2,13,7.2z M20.7,23.7
	c0,0.1,0,0.1-0.1,0.1H10.4c-0.1,0-0.1,0-0.1-0.1V11.7h10.4L20.7,23.7L20.7,23.7z M21.8,10.5H9.2V9.5c0-0.1,0-0.1,0.1-0.1h12.4
	c0.1,0,0.1,0,0.1,0.1L21.8,10.5L21.8,10.5z M18,13h1v10h-1V13z M15,13h1v10h-1V13z M12,13h1v10h-1V13z"/>
</svg>
