<svg version="1.1" id="Layer_1" xmlns="http://www.w3.org/2000/svg" xmlns:xlink="http://www.w3.org/1999/xlink" x="0px" y="0px"
	 viewBox="0 0 36 36" style="enable-background:new 0 0 36 36;" xml:space="preserve" fill="#A7A7A7">
<path d="M29.7,6.6h-3.8V4.9C25.9,4.4,25.5,4,25,4s-0.9,0.4-0.9,0.9v1.8h-5.2V4.9C18.9,4.4,18.5,4,18,4
	s-0.9,0.4-0.9,0.9v1.8h-5.2V4.9C11.9,4.4,11.5,4,11,4s-0.9,0.4-0.9,0.9v1.8H6.3C5,6.6,4,7.7,4,9c0,0,0,0,0,0v20.7C4,31,5,32,6.3,32
	h23.3c1.3,0,2.3-1,2.3-2.3c0,0,0,0,0,0V9C32,7.7,31,6.6,29.7,6.6C29.7,6.6,29.7,6.6,29.7,6.6z M30.2,29.7c0,0.3-0.3,0.6-0.6,0.6H6.3
	c-0.3,0-0.6-0.3-0.6-0.6V9c0-0.3,0.3-0.6,0.6-0.6h3.8v1.8c0,0.5,0.4,0.9,0.9,0.9s0.9-0.4,0.9-0.9V8.4h5.2v1.8c0,0.5,0.4,0.9,0.9,0.9
	s0.9-0.4,0.9-0.9V8.4h5.2v1.8c0,0.5,0.4,0.9,0.9,0.9s0.9-0.4,0.9-0.9V8.4h3.8c0.3,0,0.6,0.3,0.6,0.6V29.7z M10,15h4v3h-4V15z M10,19
	h4v3h-4V19z M10,23h4v3h-4V23z M16,23h4v3h-4V23z M16,19h4v3h-4V19z M16,15h4v3h-4V15z M22,23h4v3h-4V23z M22,19h4v3h-4V19z M22,15
	h4v3h-4V15z"/>
</svg>
