<svg xmlns="http://www.w3.org/2000/svg" viewBox="5275.979 -435.817 32.043 25.634">
  <defs>
    <style>
      .cls-1 {
        opacity: 0.193;
      }

      .cls-2 {
        fill: #030104;
      }
    </style>
  </defs>
  <g id="flaticon1521633151-svg" class="cls-1" transform="translate(5275.979 -445.817)">
    <g id="Group_1150" data-name="Group 1150" transform="translate(0 10)">
      <path id="Path_634" data-name="Path 634" class="cls-2" d="M16.021,19.613a4.806,4.806,0,1,0,4.806,4.806A4.807,4.807,0,0,0,16.021,19.613Zm12.817-4.806H24.994a1.427,1.427,0,0,1-1.265-.912l-.994-2.983A1.428,1.428,0,0,0,21.469,10H10.574a1.427,1.427,0,0,0-1.265.912l-.994,2.983a1.428,1.428,0,0,1-1.265.912H3.2a3.214,3.214,0,0,0-3.2,3.2V32.43a3.214,3.214,0,0,0,3.2,3.2H28.839a3.214,3.214,0,0,0,3.2-3.2V18.011A3.214,3.214,0,0,0,28.839,14.806ZM16.021,32.43a8.011,8.011,0,1,1,8.011-8.011A8.011,8.011,0,0,1,16.021,32.43Zm11.7-12.179a1.122,1.122,0,1,1,1.122-1.122A1.122,1.122,0,0,1,27.717,20.252Z" transform="translate(0 -10)"/>
    </g>
  </g>
</svg>
