<svg xmlns="http://www.w3.org/2000/svg" width="56" height="56" viewBox="0 0 56 56">
    <g fill="#A7A7A7" fill-rule="nonzero">
        <path d="M43.4 16.556h-5.706L34.4 13H21.8v5.333h-5.4v5.334H11v17.777C11 43.4 12.62 45 14.6 45h28.8c1.98 0 3.6-1.6 3.6-3.556V20.111c0-1.955-1.62-3.555-3.6-3.555zM29 39.666c-4.968 0-9-3.982-9-8.888 0-4.907 4.032-8.89 9-8.89s9 3.983 9 8.89-4.032 8.889-9 8.889z"/>
        <path d="M10.625 22h3.75v-5.625H20v-3.75h-5.625V7h-3.75v5.625H5v3.75h5.625zM29 25c-3.319 0-6 2.681-6 6s2.681 6 6 6 6-2.681 6-6-2.681-6-6-6z"/>
    </g>
</svg>
