<svg version="1.1" id="Layer_1" xmlns="http://www.w3.org/2000/svg" xmlns:xlink="http://www.w3.org/1999/xlink" x="0px" y="0px"
	 viewBox="0 0 32 32" enable-background="new 0 0 32 32" xml:space="preserve" fill="#A7A7A7">
<path d="M16,12.8c-2.7,0-4.8,2.2-4.8,4.8s2.2,4.8,4.8,4.8s4.8-2.2,4.8-4.8l0,0
	C20.8,15,18.7,12.8,16,12.8z M28.8,8H25c-0.6,0-1.1-0.4-1.3-0.9l-1-3c-0.2-0.5-0.7-0.9-1.3-0.9H10.6c-0.6,0-1.1,0.4-1.3,0.9l-1,3
	C8.1,7.6,7.6,8,7.1,8H3.2C1.4,8,0,9.4,0,11.2v14.4c0,1.8,1.4,3.2,3.2,3.2h25.6c1.8,0,3.2-1.4,3.2-3.2V11.2C32,9.4,30.6,8,28.8,8
	L28.8,8z M16,25.6c-4.4,0-8-3.6-8-8s3.6-8,8-8s8,3.6,8,8l0,0C24,22,20.4,25.6,16,25.6z M27.7,13.5c-0.6,0-1.1-0.5-1.1-1.1
	s0.5-1.1,1.1-1.1s1.1,0.5,1.1,1.1l0,0C28.8,13,28.3,13.5,27.7,13.5L27.7,13.5L27.7,13.5z"/>
</svg>
