<svg version="1.1" id="Layer_1" xmlns="http://www.w3.org/2000/svg" xmlns:xlink="http://www.w3.org/1999/xlink" x="0px" y="0px"
	 viewBox="0 0 56 56" enable-background="new 0 0 56 56" xml:space="preserve" fill="#A7A7A7">
<path d="M43.4,16.6h-5.7L34.4,13H21.8v5.3h-5.4v5.3H11v17.8c0,2,1.6,3.6,3.6,3.6h28.8c2,0,3.6-1.6,3.6-3.6V20.1
	C47,18.2,45.4,16.6,43.4,16.6z M29,39.7c-5,0-9-4-9-8.9c0-4.9,4-8.9,9-8.9s9,4,9,8.9S34,39.7,29,39.7L29,39.7z M10.6,22h3.8v-5.6H20
	v-3.8h-5.6V7h-3.8v5.6H5v3.8h5.6V22z M29,25c-3.3,0-6,2.7-6,6s2.7,6,6,6s6-2.7,6-6S32.3,25,29,25z"/>
</svg>
