<?xml version="1.0" encoding="utf-8"?>
<!-- Generator: Adobe Illustrator 17.0.0, SVG Export Plug-In . SVG Version: 6.00 Build 0)  -->
<!DOCTYPE svg PUBLIC "-//W3C//DTD SVG 1.1//EN" "http://www.w3.org/Graphics/SVG/1.1/DTD/svg11.dtd">
<svg version="1.1" id="Layer_1" xmlns="http://www.w3.org/2000/svg" xmlns:xlink="http://www.w3.org/1999/xlink" x="0px" y="0px"
	 width="595.276px" height="595.276px" viewBox="0.002 123.307 595.276 595.276"
	 enable-background="new 0.002 123.307 595.276 595.276" xml:space="preserve">
<path d="M473.664,552.163c-3.2-3.2-6.401-3.2-9.601-3.2H249.634c-3.2,0-6.401,0-9.601,3.2
	c-25.603,6.401-44.806,32.004-44.806,57.608c0,32.004,28.804,60.808,60.808,60.808s60.808-28.804,60.808-60.808
	c0-9.601-3.2-19.203-6.401-28.804h89.612c-3.2,9.601-6.401,19.203-6.401,28.804c0,32.004,28.804,60.808,60.808,60.808
	s60.808-28.804,60.808-60.808C515.269,580.966,499.267,558.564,473.664,552.163z M288.039,609.77
	c0,16.002-12.802,28.804-28.804,28.804s-28.804-12.802-28.804-28.804s12.802-28.804,28.804-28.804S288.039,593.768,288.039,609.77z
	 M454.461,638.574c-16.002,0-28.804-12.802-28.804-28.804c0-16.002,12.802-28.804,28.804-28.804
	c16.002,0,28.804,12.802,28.804,28.804C483.265,625.773,470.463,638.574,454.461,638.574z"/>
<path d="M534.472,507.357H195.226c-6.401,0-12.802-3.2-16.002-12.802L92.812,203.316h-76.81C6.401,203.316,0,196.915,0,187.314
	s6.401-16.002,16.002-16.002h89.612c6.401,0,12.802,3.2,16.002,12.802l83.211,291.239H521.67l38.405-201.627H201.627
	c-9.601-3.2-16.002-9.601-16.002-19.203s6.401-16.002,16.002-16.002h377.651c3.2,0,9.601,3.2,12.802,6.401
	c3.2,3.2,3.2,9.601,3.2,12.802l-44.806,233.631C550.474,500.956,540.873,507.357,534.472,507.357z"/>
<path d="M486.465,392.141H230.431c-6.401,0-16.002-6.401-16.002-16.002s9.601-16.002,16.002-16.002h256.034
	c9.601,0,16.002,6.401,16.002,16.002S496.067,392.141,486.465,392.141z"/>
</svg>
