<svg version="1.1" id="Layer_1" xmlns="http://www.w3.org/2000/svg" xmlns:xlink="http://www.w3.org/1999/xlink" x="0px" y="0px"
	 viewBox="0 0 23 23" style="enable-background:new 0 0 23 23;" xml:space="preserve" fill="#505050">
<path d="M7.5,10h-2C4.1,10,3,8.9,3,7.5v-2C3,4.1,4.1,3,5.5,3h2C8.9,3,10,4.1,10,5.5v2C10,8.9,8.9,10,7.5,10z M5.5,4
	C4.7,4,4,4.7,4,5.5v2C4,8.3,4.7,9,5.5,9h2C8.3,9,9,8.3,9,7.5v-2C9,4.7,8.3,4,7.5,4H5.5z M7.5,20h-2C4.1,20,3,18.9,3,17.5v-2
	C3,14.1,4.1,13,5.5,13h2c1.4,0,2.5,1.1,2.5,2.5v2C10,18.9,8.9,20,7.5,20z M5.5,14C4.7,14,4,14.7,4,15.5v2C4,18.3,4.7,19,5.5,19h2
	C8.3,19,9,18.3,9,17.5v-2C9,14.7,8.3,14,7.5,14H5.5z M17.5,10h-2C14.1,10,13,8.9,13,7.5v-2C13,4.1,14.1,3,15.5,3h2
	C18.9,3,20,4.1,20,5.5v2C20,8.9,18.9,10,17.5,10z M15.5,4C14.7,4,14,4.7,14,5.5v2C14,8.3,14.7,9,15.5,9h2C18.3,9,19,8.3,19,7.5v-2
	C19,4.7,18.3,4,17.5,4H15.5z M17.5,20h-2c-1.4,0-2.5-1.1-2.5-2.5v-2c0-1.4,1.1-2.5,2.5-2.5h2c1.4,0,2.5,1.1,2.5,2.5v2
	C20,18.9,18.9,20,17.5,20z M15.5,14c-0.8,0-1.5,0.7-1.5,1.5v2c0,0.8,0.7,1.5,1.5,1.5h2c0.8,0,1.5-0.7,1.5-1.5v-2
	c0-0.8-0.7-1.5-1.5-1.5H15.5z"/>
</svg>
