<svg version="1.1" id="Layer_1" xmlns="http://www.w3.org/2000/svg" xmlns:xlink="http://www.w3.org/1999/xlink" x="0px" y="0px"
	 viewBox="0 0 24 24" style="enable-background:new 0 0 24 24;" xml:space="preserve" fill="#D3D3D3">
<path d="M20,2.1H4C1.6,2.2-0.1,4.3,0,6.7v6.9c-0.1,2.4,1.6,4.4,4,4.6h10c0,0,1.6,3.8,5.2,3.8c-0.5-1.2-0.5-2.6,0-3.8H20
	c2.4-0.2,4.1-2.2,4-4.6V6.7C24.1,4.3,22.4,2.2,20,2.1z M6.5,12.1c-0.8,0-1.5-0.7-1.5-1.5s0.7-1.5,1.5-1.5S8,9.8,8,10.6
	S7.3,12.1,6.5,12.1z M12.5,12.1c-0.8,0-1.5-0.7-1.5-1.5s0.7-1.5,1.5-1.5S14,9.8,14,10.6S13.3,12.1,12.5,12.1z M18.5,12.1
	c-0.8,0-1.5-0.7-1.5-1.5s0.7-1.5,1.5-1.5S20,9.8,20,10.6S19.3,12.1,18.5,12.1z"/>
</svg>
