<?xml version="1.0" encoding="utf-8"?>
<!-- Generator: Adobe Illustrator 22.1.0, SVG Export Plug-In . SVG Version: 6.00 Build 0)  -->
<svg version="1.1" id="Layer_1" xmlns="http://www.w3.org/2000/svg" xmlns:xlink="http://www.w3.org/1999/xlink" x="0px" y="0px"
	 viewBox="0 0 35 35" style="enable-background:new 0 0 35 35;" xml:space="preserve" fill="#A7A7A7">
<path d="M10,17h1v1h-1V17z M10,19h1v1h-1V19z M10,21h1v1h-1V21z M10,23h1v1h-1V23z M10,25h1v1h-1V25z M10,15h1v1h-1V15z
	 M10,13h1v1h-1V13z M10,11h1v1h-1V11z M10,9h1v1h-1V9z M2,9.5h1v1H2V9.5z M32,9.5h1v1h-1V9.5z M32,24.5h1v1h-1V24.5z M2,24.5h1v1H2
	V24.5z"/>
<path d="M34.4,14.6c0.3,0,0.6-0.3,0.6-0.6c0,0,0,0,0,0V8.1c0-0.3-0.3-0.6-0.6-0.6H0.6C0.3,7.5,0,7.8,0,8.1V14
	c0,0.3,0.3,0.6,0.6,0.6c1.6,0,2.9,1.3,2.9,2.9s-1.3,2.9-2.9,2.9C0.3,20.4,0,20.7,0,21c0,0,0,0,0,0v5.9c0,0.3,0.3,0.6,0.6,0.6h33.8
	c0.3,0,0.6-0.3,0.6-0.6V21c0-0.3-0.3-0.6-0.6-0.6c-1.6,0-2.9-1.3-2.9-2.9C31.5,15.9,32.8,14.6,34.4,14.6L34.4,14.6z M30.4,18.1
	c0.3,1.8,1.7,3.2,3.5,3.5v4.7H1.2v-4.7c2.2-0.3,3.8-2.4,3.5-4.7c-0.3-1.8-1.7-3.2-3.5-3.5V8.7h32.7v4.7
	C31.6,13.7,30.1,15.8,30.4,18.1L30.4,18.1z"/>
<path d="M17.5,11.5c-1.4,0-2.5,1.1-2.5,2.5s1.1,2.5,2.5,2.5S20,15.4,20,14S18.9,11.5,17.5,11.5z M17.5,15.2
	c-0.7,0-1.2-0.6-1.2-1.2s0.6-1.2,1.2-1.2s1.2,0.6,1.2,1.2S18.2,15.2,17.5,15.2z M22.5,17.5c-1.4,0-2.5,1.1-2.5,2.5s1.1,2.5,2.5,2.5
	S25,21.4,25,20S23.9,17.5,22.5,17.5z M22.5,21.2c-0.7,0-1.2-0.6-1.2-1.2s0.6-1.2,1.2-1.2s1.2,0.6,1.2,1.2S23.2,21.2,22.5,21.2z
	 M15.4,20.9l8.5-8.5l0.7,0.7l-8.5,8.5L15.4,20.9z"/>
</svg>
