<?xml version="1.0" encoding="utf-8"?>
<!-- Generator: Adobe Illustrator 22.1.0, SVG Export Plug-In . SVG Version: 6.00 Build 0)  -->
<svg version="1.1" id="Layer_1" xmlns="http://www.w3.org/2000/svg" xmlns:xlink="http://www.w3.org/1999/xlink" x="0px" y="0px"
	 viewBox="0 0 357 357" style="enable-background:new 0 0 357 357;" xml:space="preserve">
<style type="text/css">
	.st0{fill:#FEFEFE;}
	.st1{fill:#D5D5D5;}
</style>
<g>
	<g id="_x23_fefefeff">
		<path class="st0" d="M289.1,55.2c24.8-8.7,54.1,7.8,60.7,32.9c6.5,19.3-0.8,42.6-17.8,54c-10.1,7.9-23.9,10.9-36.5,8.6
			c-17.8-1.9-32.7-15.8-39.3-31.9C247,93.2,262.8,62.1,289.1,55.2 M294.5,62.6c-8.7,1.6-16.8,6.6-22.5,13.4
			c-11.4,13.1-12.3,33.6-3,48c10.8,17.9,36.3,23.5,54,13.1c18.5-9.6,25.6-34.9,16-53.1C331.6,67.5,312,58.5,294.5,62.6z"/>
		<path class="st0" d="M300.4,81.4c8.1-2.6,16.9,5.2,15.6,13.6c-0.2,6.6,1.7,14-2,20c-3.3,6.4-12.8,7-18.3,3.3
			c-5.6-4.9-5.3-13.3-5.6-20.2C290,91.5,293,82.6,300.4,81.4 M302.2,87.2c-5.8,3.3-4.3,11.4-4.3,16.8c-0.1,4.1,1.2,12.7,7.8,9.9
			c5.4-5.2,2.9-13.9,2.8-20.5C308.4,90,305.9,86.8,302.2,87.2z"/>
	</g>
	<g id="_x23_d5d5d5fb">
		<path class="st1" d="M294.5,62.6c17.5-4.2,37.1,4.9,44.7,21.3c9.6,18.3,2.5,43.5-16,53.1c-17.8,10.5-43.2,4.8-54-13.1
			c-9.3-14.4-8.4-35,3-48C277.6,69.2,285.8,64.2,294.5,62.6 M300.4,81.4c-7.4,1.2-10.4,10.1-10.3,16.7c0.3,6.8,0,15.2,5.6,20.2
			c5.5,3.7,15,3.1,18.3-3.3c3.7-6,1.8-13.4,2-20C317.4,86.6,308.6,78.8,300.4,81.4z"/>
		<path class="st1" d="M302.2,87.2c3.7-0.4,6.2,2.8,6.3,6.2c0.1,6.6,2.6,15.3-2.8,20.5c-6.5,2.7-7.9-5.8-7.8-9.9
			C298,98.6,296.4,90.4,302.2,87.2z"/>
		<path class="st1" d="M19.6,93.7C31.4,92.3,43.2,93,55,92.8c6.2,0.4,13.5-1.2,18.6,3.5c4.6,6.7,6.4,15,11.7,21.4
			c4.2,2.9,9.8,1.8,14.6,2.4c40,0.1,80-0.2,120,0.1c12.1,0,24.3,0.2,36.3-1.3c6.6,16.1,21.5,30.1,39.3,31.9
			c-12.9,18.7-22.1,39.7-33.5,59.4c-7.2,11.7-11.5,25.9-22.8,34.5c6.5,4.7,13.4,10.6,15.3,18.9c5.2,16.2-7.6,35.4-24.7,36.3
			c-16.1,1.5-30.6-13.9-29.7-29.8c0.2-9.1,6-16.6,11.9-23c-17,0-33.9,0-50.9,0c5.3,5.8,10.8,12.4,11.3,20.7
			c2.3,15.2-9.9,31.4-25.5,32.2c-16.3,1.5-30.9-14.3-29.4-30.4c0-8.9,5.7-16.4,12.1-22c-5.5-0.3-11.6-1.1-15.6-5.3
			c-4.8-5.4-8.5-11.7-11.8-18.2c-13.3-28.4-26.8-56.6-40-85c-2.9-6.2-6-12.3-9.8-18c-10.8-0.2-21.8,1-32.5-0.7
			c-6.1-1.6-4.7-9.6-5-14.2C14.4,101.8,14.7,95.3,19.6,93.7 M96.3,136.3c-3.7,6.1,1.7,13.4,2.7,19.7c5.8,0,11.6,0,17.4,0
			c-1.8-6.2-3.3-12.8-7.6-17.8C105.7,135,99.7,131.9,96.3,136.3 M129,136c-5.3,5.3-1.3,13.5-0.7,19.7c5.7,0.1,11.4,0.2,17,0.3
			c-0.7-4.9-0.9-10.1-2.7-14.8C140.6,136.3,133.8,131.6,129,136 M160.7,136.7c-4.9,5.1-2.7,13.1-2.9,19.3c5.8,0,11.7,0,17.5,0
			c-0.7-6.9,1-15.4-5-20.3C167.5,133.1,163,133.9,160.7,136.7 M192.7,136.7c-5.7,4.7-4.6,12.8-5.1,19.3c5.9,0,11.8,0,17.7,0
			c-0.7-6.5,3.3-15.6-3-20.3C199.5,133.1,195,133.7,192.7,136.7 M227.1,135c-7.7,4-8.4,13.4-9.6,21c5.7-0.1,11.5-0.2,17.2-0.3
			c1-5.7,2.8-11.4,2-17.3C234.9,135.1,230.6,132.9,227.1,135 M260.2,134.8c-8.6,3.5-10.7,13.3-13.5,21.1c5.7,0,11.5,0,17.2,0
			c1.8-4.6,3.6-9.3,4.9-14.1C269.5,137.6,264.6,131.9,260.2,134.8 M102.8,166.1c2,5.7,4.1,11.3,6.2,16.9c4.8,0,9.6-0.1,14.4-0.1
			c-1.2-5.7-2.8-11.3-4.3-17C113.6,166,108.2,166,102.8,166.1 M131,166c1.3,5.6,2.5,11.1,3.6,16.7c4.9,0.2,9.7,0.2,14.6,0.3
			c-0.6-5.7-1.4-11.4-2.2-17C141.6,166,136.3,166,131,166 M159,166c0.6,5.6,1,11.1,1.5,16.8c4.8,0.2,9.6,0.2,14.5,0.3
			c0-5.7,0-11.4,0-17.1C169.7,166,164.4,166,159,166 M187,166c0,5.7,0,11.3,0,17c4.7,0,9.5,0,14.2,0c0.9-5.6,1.6-11.3,2.1-17
			C197.8,166,192.4,166,187,166 M215,166c-0.8,5.7-1.6,11.3-2.2,17c4.9-0.1,9.7-0.3,14.6-0.5c1.4-5.6,2.9-11.1,4.4-16.6
			C226.2,166,220.6,166,215,166 M243.9,166c-1.9,5.6-3.8,11.2-5.4,17c4.8,0.1,9.6,0,14.4,0.1c2.3-5.7,4.5-11.4,6.9-17
			C254.6,166,249.2,166,243.9,166 M112.6,193.1c1.5,5.1,3.3,10,5.2,15c4.2-0.1,8.3-0.1,12.5-0.2c-1.1-5-2.3-9.9-3.5-14.9
			C122.1,193,117.3,193.1,112.6,193.1 M136.9,193c1.1,5,2.2,9.9,3.3,14.9c4.3,0,8.6,0,12.9,0c-0.8-5-1.6-10-2.3-15
			C146.1,193,141.5,193,136.9,193 M161.3,192.9c0.6,5,1.1,10,1.7,15.1c4.4,0,8.7,0,13.1,0c-0.3-5-0.7-10-1.1-15
			C170.5,193,165.9,193,161.3,192.9 M186.1,193c-0.4,5-0.7,10-1.2,15c4.3,0,8.7,0,13,0c0.9-5,1.6-10,2.2-15
			C195.5,193,190.8,193,186.1,193 M210.2,193c-0.8,5-1.6,10-2.3,15c4.3,0,8.7,0,13,0c1.1-5,2.4-9.9,3.4-14.9
			C219.6,193,214.9,193,210.2,193 M235.2,193.1c-1.8,5-3.5,9.9-5.2,14.9c4.4,0,8.7,0,13.1,0c2.1-5,4.1-10,6.1-15
			C244.5,193,239.9,193.1,235.2,193.1 M121.5,218c1.5,5.3,2.8,10.9,5.8,15.7c2,2.4,7.4,4.2,9.4,1c-0.1-5.6-1.8-11-3.1-16.4
			C129.6,218.2,125.6,218.1,121.5,218 M142.5,218c0.9,5.3,2.1,10.6,3.9,15.7c1.5,3.4,7,1.5,9.2,3.3c1-6.2-0.4-12.5-1-18.7
			C150.6,218.2,146.6,218.1,142.5,218 M163.6,218c0.5,5.2,0.6,10.5,1.8,15.6c1.8,4.4,7.2,1.2,10.8,1.1c-0.2-5.4-0.4-10.9-0.7-16.4
			C171.6,218.2,167.6,218.1,163.6,218 M185,217.9c-0.5,5.6-1,11.2-1.4,16.8c3.1,0.6,6.1,1,9.2,1.2c3.6-5,3.1-11.8,4-17.6
			C192.9,218.2,189,218.1,185,217.9 M206.1,218.1c-1,4.9-2.5,9.8-2.8,14.9c0.7,5,8.8,3.9,10.7,0.1c2.1-4.8,2.7-10,4.1-15
			C214.1,218,210.1,218,206.1,218.1 M227.1,218.1c-2.1,5.8-3.6,11.8-4,18c3.5-0.7,8.4,0.2,10.3-3.5c2.5-4.6,4-9.6,5.8-14.5
			C235.1,218,231.1,218,227.1,218.1 M140.4,258.4c-11.6,3.7-11.8,22.7,0.2,26.1c10.9,4.5,22.9-7.9,17.5-18.5
			C155.6,258.9,147.1,256.7,140.4,258.4 M223.4,258.4c-11.6,3.7-11.8,22.7,0.2,26.1c10.9,4.5,22.9-7.9,17.5-18.5
			C238.6,258.9,230.1,256.7,223.4,258.4z"/>
	</g>
</g>
</svg>
