<?xml version="1.0" encoding="utf-8"?>
<!-- Generator: Adobe Illustrator 22.1.0, SVG Export Plug-In . SVG Version: 6.00 Build 0)  -->
<svg version="1.1" id="Layer_1" xmlns="http://www.w3.org/2000/svg" xmlns:xlink="http://www.w3.org/1999/xlink" x="0px" y="0px"
	 viewBox="0 0 357 357" style="enable-background:new 0 0 357 357;" xml:space="preserve">
<style type="text/css">
	.st0{fill:#D5D5D5;}
</style>
<g id="_x23_d5d5d5fb">
	<path class="st0" d="M293.9,60.3c17.5-4.2,37.1,4.9,44.7,21.3c9.6,18.3,2.5,43.5-16,53.1c-17.8,10.5-43.2,4.8-54-13.1
		c-9.3-14.4-8.4-35,3-48C277,66.9,285.2,61.9,293.9,60.3 M299.8,79.1c-7.4,1.2-10.4,10.1-10.3,16.7c0.3,6.8,0,15.2,5.6,20.2
		c5.5,3.7,15,3.1,18.3-3.3c3.7-6,1.8-13.4,2-20C316.8,84.3,308,76.5,299.8,79.1z"/>
	<path class="st0" d="M301.6,84.9c3.7-0.4,6.2,2.8,6.3,6.2c0.1,6.6,2.6,15.3-2.8,20.5c-6.5,2.7-7.9-5.8-7.8-9.9
		C297.4,96.3,295.8,88.1,301.6,84.9z"/>
	<path class="st0" d="M19,91.4c11.8-1.4,23.6-0.7,35.4-0.9c6.2,0.4,13.5-1.2,18.6,3.5c4.6,6.7,6.4,15,11.7,21.4
		c4.2,2.9,9.8,1.8,14.6,2.4c40,0.1,80-0.2,120,0.1c12.1,0,24.3,0.2,36.3-1.3c6.6,16.1,21.5,30.1,39.3,31.9
		c-12.9,18.7-22.1,39.7-33.5,59.4c-7.2,11.7-11.5,25.9-22.8,34.5c6.5,4.7,13.4,10.6,15.3,18.9c5.2,16.2-7.6,35.4-24.7,36.3
		c-16.1,1.5-30.6-13.9-29.7-29.8c0.2-9.1,6-16.6,11.9-23c-17,0-33.9,0-50.9,0c5.3,5.8,10.8,12.4,11.3,20.7
		c2.3,15.2-9.9,31.4-25.5,32.2c-16.3,1.5-30.9-14.3-29.4-30.4c0-8.9,5.7-16.4,12.1-22c-5.5-0.3-11.6-1.1-15.6-5.3
		c-4.8-5.4-8.5-11.7-11.8-18.2c-13.3-28.4-26.8-56.6-40-85c-2.9-6.2-6-12.3-9.8-18c-10.8-0.2-21.8,1-32.5-0.7
		c-6.1-1.6-4.7-9.6-5-14.2C13.8,99.5,14.1,93,19,91.4 M95.7,134c-3.7,6.1,1.7,13.4,2.7,19.7c5.8,0,11.6,0,17.4,0
		c-1.8-6.2-3.3-12.8-7.6-17.8C105.1,132.7,99.1,129.6,95.7,134 M128.4,133.7c-5.3,5.3-1.3,13.5-0.7,19.7c5.7,0.1,11.4,0.2,17,0.3
		c-0.7-4.9-0.9-10.1-2.7-14.8C140,134,133.2,129.3,128.4,133.7 M160.1,134.4c-4.9,5.1-2.7,13.1-2.9,19.3c5.8,0,11.7,0,17.5,0
		c-0.7-6.9,1-15.4-5-20.3C166.9,130.8,162.4,131.6,160.1,134.4 M192.1,134.4c-5.7,4.7-4.6,12.8-5.1,19.3c5.9,0,11.8,0,17.7,0
		c-0.7-6.5,3.3-15.6-3-20.3C198.9,130.8,194.4,131.4,192.1,134.4 M226.5,132.7c-7.7,4-8.4,13.4-9.6,21c5.7-0.1,11.5-0.2,17.2-0.3
		c1-5.7,2.8-11.4,2-17.3C234.3,132.8,230,130.6,226.5,132.7 M259.6,132.5c-8.6,3.5-10.7,13.3-13.5,21.1c5.7,0,11.5,0,17.2,0
		c1.8-4.6,3.6-9.3,4.9-14.1C268.9,135.3,264,129.6,259.6,132.5 M102.2,163.8c2,5.7,4.1,11.3,6.2,16.9c4.8,0,9.6-0.1,14.4-0.1
		c-1.2-5.7-2.8-11.3-4.3-17C113,163.7,107.6,163.7,102.2,163.8 M130.4,163.7c1.3,5.6,2.5,11.1,3.6,16.7c4.9,0.2,9.7,0.2,14.6,0.3
		c-0.6-5.7-1.4-11.4-2.2-17C141,163.7,135.7,163.7,130.4,163.7 M158.4,163.7c0.6,5.6,1,11.1,1.5,16.8c4.8,0.2,9.6,0.2,14.5,0.3
		c0-5.7,0-11.4,0-17.1C169.1,163.7,163.8,163.7,158.4,163.7 M186.4,163.7c0,5.7,0,11.3,0,17c4.7,0,9.5,0,14.2,0
		c0.9-5.6,1.6-11.3,2.1-17C197.2,163.7,191.8,163.7,186.4,163.7 M214.4,163.7c-0.8,5.7-1.6,11.3-2.2,17c4.9-0.1,9.7-0.3,14.6-0.5
		c1.4-5.6,2.9-11.1,4.4-16.6C225.6,163.7,220,163.7,214.4,163.7 M243.3,163.7c-1.9,5.6-3.8,11.2-5.4,17c4.8,0.1,9.6,0,14.4,0.1
		c2.3-5.7,4.5-11.4,6.9-17C254,163.7,248.6,163.7,243.3,163.7 M112,190.8c1.5,5.1,3.3,10,5.2,15c4.2-0.1,8.3-0.1,12.5-0.2
		c-1.1-5-2.3-9.9-3.5-14.9C121.5,190.7,116.7,190.8,112,190.8 M136.3,190.7c1.1,5,2.2,9.9,3.3,14.9c4.3,0,8.6,0,12.9,0
		c-0.8-5-1.6-10-2.3-15C145.5,190.7,140.9,190.7,136.3,190.7 M160.7,190.6c0.6,5,1.1,10,1.7,15.1c4.4,0,8.7,0,13.1,0
		c-0.3-5-0.7-10-1.1-15C169.9,190.7,165.3,190.7,160.7,190.6 M185.5,190.7c-0.4,5-0.7,10-1.2,15c4.3,0,8.7,0,13,0
		c0.9-5,1.6-10,2.2-15C194.9,190.7,190.2,190.7,185.5,190.7 M209.6,190.7c-0.8,5-1.6,10-2.3,15c4.3,0,8.7,0,13,0
		c1.1-5,2.4-9.9,3.4-14.9C219,190.7,214.3,190.7,209.6,190.7 M234.6,190.8c-1.8,5-3.5,9.9-5.2,14.9c4.4,0,8.7,0,13.1,0
		c2.1-5,4.1-10,6.1-15C243.9,190.7,239.3,190.8,234.6,190.8 M120.9,215.7c1.5,5.3,2.8,10.9,5.8,15.7c2,2.4,7.4,4.2,9.4,1
		c-0.1-5.6-1.8-11-3.1-16.4C129,215.9,125,215.8,120.9,215.7 M141.9,215.7c0.9,5.3,2.1,10.6,3.9,15.7c1.5,3.4,7,1.5,9.2,3.3
		c1-6.2-0.4-12.5-1-18.7C150,215.9,146,215.8,141.9,215.7 M163,215.7c0.5,5.2,0.6,10.5,1.8,15.6c1.8,4.4,7.2,1.2,10.8,1.1
		c-0.2-5.4-0.4-10.9-0.7-16.4C171,215.9,167,215.8,163,215.7 M184.4,215.6c-0.5,5.6-1,11.2-1.4,16.8c3.1,0.6,6.1,1,9.2,1.2
		c3.6-5,3.1-11.8,4-17.6C192.3,215.9,188.4,215.8,184.4,215.6 M205.5,215.8c-1,4.9-2.5,9.8-2.8,14.9c0.7,5,8.8,3.9,10.7,0.1
		c2.1-4.8,2.7-10,4.1-15C213.5,215.7,209.5,215.7,205.5,215.8 M226.5,215.8c-2.1,5.8-3.6,11.8-4,18c3.5-0.7,8.4,0.2,10.3-3.5
		c2.5-4.6,4-9.6,5.8-14.5C234.5,215.7,230.5,215.7,226.5,215.8 M139.8,256.1c-11.6,3.7-11.8,22.7,0.2,26.1
		c10.9,4.5,22.9-7.9,17.5-18.5C155,256.6,146.5,254.4,139.8,256.1 M222.8,256.1c-11.6,3.7-11.8,22.7,0.2,26.1
		c10.9,4.5,22.9-7.9,17.5-18.5C238,256.6,229.5,254.4,222.8,256.1z"/>
</g>
</svg>
