<svg version="1.1" id="Layer_1" xmlns="http://www.w3.org/2000/svg" xmlns:xlink="http://www.w3.org/1999/xlink" x="0px" y="0px"
	 viewBox="0 0 28 28" enable-background="new 0 0 28 28" xml:space="preserve" fill="#E3E3E3">
<path d="M14,21.5c-4.2,0-8-2.4-11.4-7.2L2.4,14l0.2-0.3C6,8.9,9.8,6.5,14,6.5c4.2,0,8,2.4,11.4,7.2l0.2,0.3l-0.2,0.3
	C22,19.1,18.2,21.5,14,21.5z M3.6,14c3.2,4.3,6.7,6.5,10.4,6.5s7.2-2.2,10.4-6.5C21.2,9.7,17.7,7.5,14,7.5S6.8,9.7,3.6,14z M14,18.5
	c-2.5,0-4.5-2-4.5-4.5s2-4.5,4.5-4.5s4.5,2,4.5,4.5S16.5,18.5,14,18.5z M14,10.5c-1.9,0-3.5,1.6-3.5,3.5s1.6,3.5,3.5,3.5
	s3.5-1.6,3.5-3.5S15.9,10.5,14,10.5z"/>
</svg>
