<?xml version="1.0" encoding="utf-8"?>
<!-- Generator: Adobe Illustrator 17.0.0, SVG Export Plug-In . SVG Version: 6.00 Build 0)  -->
<!DOCTYPE svg PUBLIC "-//W3C//DTD SVG 1.1//EN" "http://www.w3.org/Graphics/SVG/1.1/DTD/svg11.dtd">
<svg version="1.1" id="Capa_1" xmlns="http://www.w3.org/2000/svg" xmlns:xlink="http://www.w3.org/1999/xlink" x="0px" y="0px"
	 width="16px" height="16px" viewBox="289.638 289.638 16 16" enable-background="new 289.638 289.638 16 16" xml:space="preserve">
<g id="eye" fill="#939393">
	<path d="M305.46,297.022c-0.833-1.363-1.954-2.458-3.362-3.286c-1.408-0.827-2.894-1.241-4.46-1.241
		s-3.052,0.414-4.46,1.241c-1.408,0.827-2.528,1.923-3.362,3.286c-0.119,0.208-0.178,0.414-0.178,0.616
		c0,0.202,0.06,0.408,0.178,0.616c0.833,1.363,1.954,2.458,3.362,3.286c1.408,0.827,2.894,1.241,4.46,1.241
		c1.566,0,3.052-0.412,4.46-1.236c1.408-0.824,2.528-1.921,3.362-3.29c0.119-0.208,0.178-0.414,0.178-0.616
		C305.638,297.436,305.579,297.23,305.46,297.022z M295.723,294.58c0.533-0.533,1.171-0.799,1.915-0.799
		c0.119,0,0.22,0.042,0.304,0.125c0.083,0.083,0.125,0.185,0.125,0.304c0,0.119-0.042,0.22-0.125,0.303
		c-0.083,0.083-0.185,0.125-0.304,0.125c-0.512,0-0.95,0.182-1.313,0.545c-0.363,0.363-0.545,0.801-0.545,1.313
		c0,0.119-0.042,0.22-0.125,0.304c-0.083,0.083-0.185,0.125-0.304,0.125c-0.119,0-0.22-0.042-0.304-0.125
		c-0.083-0.083-0.125-0.185-0.125-0.304C294.924,295.751,295.19,295.113,295.723,294.58z M301.518,300.553
		c-1.193,0.723-2.487,1.085-3.88,1.085c-1.393,0-2.686-0.361-3.879-1.085c-1.193-0.723-2.186-1.695-2.978-2.915
		c0.905-1.405,2.039-2.455,3.402-3.152c-0.363,0.619-0.545,1.289-0.545,2.009c0,1.101,0.391,2.043,1.174,2.826
		c0.783,0.783,1.725,1.174,2.826,1.174c1.101,0,2.043-0.391,2.826-1.174c0.783-0.783,1.174-1.725,1.174-2.826
		c0-0.72-0.182-1.39-0.545-2.009c1.363,0.696,2.497,1.747,3.402,3.152C303.704,298.858,302.711,299.83,301.518,300.553z"/>
</g>
</svg>
