<?xml version="1.0" encoding="utf-8"?>
<!-- Generator: Adobe Illustrator 17.0.0, SVG Export Plug-In . SVG Version: 6.00 Build 0)  -->
<!DOCTYPE svg PUBLIC "-//W3C//DTD SVG 1.1//EN" "http://www.w3.org/Graphics/SVG/1.1/DTD/svg11.dtd">
<svg version="1.1" id="Capa_1" xmlns="http://www.w3.org/2000/svg" xmlns:xlink="http://www.w3.org/1999/xlink" x="0px" y="0px"
	 width="16px" height="16px" viewBox="0 0 16 16" enable-background="new 0 0 16 16" xml:space="preserve">
<g id="eyeb">
	<path fill="#2FBAFD" d="M15.822,7.384c-0.833-1.363-1.954-2.458-3.362-3.286C11.052,3.271,9.566,2.857,8,2.857
		S4.948,3.271,3.54,4.098S1.012,6.021,0.178,7.384C0.059,7.592,0,7.798,0,8s0.06,0.408,0.178,0.616
		c0.833,1.363,1.954,2.458,3.362,3.286c1.408,0.827,2.894,1.241,4.46,1.241c1.566,0,3.052-0.412,4.46-1.236s2.528-1.921,3.362-3.29
		C15.941,8.409,16,8.203,16,8.001C16,7.798,15.941,7.592,15.822,7.384z M6.085,4.942C6.618,4.409,7.256,4.143,8,4.143
		c0.119,0,0.22,0.042,0.304,0.125c0.083,0.083,0.125,0.185,0.125,0.304s-0.042,0.22-0.125,0.303S8.119,5,8,5
		C7.488,5,7.05,5.182,6.687,5.545C6.324,5.908,6.142,6.346,6.142,6.858c0,0.119-0.042,0.22-0.125,0.304
		C5.934,7.245,5.832,7.287,5.713,7.287s-0.22-0.042-0.304-0.125C5.326,7.079,5.284,6.977,5.284,6.858
		C5.286,6.113,5.552,5.475,6.085,4.942z M11.88,10.915C10.687,11.638,9.393,12,8,12s-2.686-0.361-3.879-1.085
		C2.928,10.192,1.935,9.22,1.143,8c0.905-1.405,2.039-2.455,3.402-3.152C4.182,5.467,4,6.137,4,6.857C4,7.958,4.391,8.9,5.174,9.683
		C5.957,10.466,6.899,10.857,8,10.857c1.101,0,2.043-0.391,2.826-1.174C11.609,8.9,12,7.958,12,6.857c0-0.72-0.182-1.39-0.545-2.009
		C12.818,5.544,13.952,6.595,14.857,8C14.066,9.22,13.073,10.192,11.88,10.915z"/>
</g>
</svg>
