<?xml version="1.0" encoding="utf-8"?>
<!-- Generator: Adobe Illustrator 17.0.0, SVG Export Plug-In . SVG Version: 6.00 Build 0)  -->
<!DOCTYPE svg PUBLIC "-//W3C//DTD SVG 1.1//EN" "http://www.w3.org/Graphics/SVG/1.1/DTD/svg11.dtd">
<svg version="1.1" id="Capa_1" xmlns="http://www.w3.org/2000/svg" xmlns:xlink="http://www.w3.org/1999/xlink" x="0px" y="0px"
	 width="16px" height="16px" viewBox="248 248 16 16" enable-background="new 248 248 16 16" xml:space="preserve">
<g>
	<path fill="#3B539A" d="M263.116,248h-14.233c-0.487,0-0.883,0.395-0.883,0.883v14.233c0,0.488,0.396,0.884,0.883,0.884h7.663
		v-6.196h-2.085v-2.415h2.085v-1.781c0-2.066,1.262-3.192,3.105-3.192c0.884,0,1.642,0.066,1.863,0.095v2.16l-1.279,0.001
		c-1.002,0-1.196,0.477-1.196,1.176v1.541h2.392l-0.313,2.415h-2.079v6.196h4.077c0.488,0,0.884-0.396,0.884-0.883v-14.234
		C264,248.395,263.604,248,263.116,248z"/>
</g>
</svg>
