<?xml version="1.0" encoding="utf-8"?>
<!-- Generator: Adobe Illustrator 22.1.0, SVG Export Plug-In . SVG Version: 6.00 Build 0)  -->
<svg version="1.1" id="Layer_1" xmlns="http://www.w3.org/2000/svg" xmlns:xlink="http://www.w3.org/1999/xlink" x="0px" y="0px"
	 viewBox="0 0 32 32" style="enable-background:new 0 0 32 32;" xml:space="preserve">
<style type="text/css">
	.st0{fill:#C7C7C7;}
</style>
<path class="st0" d="M21.6,6l-2.6,0c-3,0-4.9,1.9-4.9,4.9v2.3h-2.7c-0.2,0-0.4,0.2-0.4,0.4c0,0,0,0,0,0v3.3c0,0.2,0.2,0.4,0.4,0.4
	h2.7v8.3c0,0.2,0.2,0.4,0.4,0.4h3.5c0.2,0,0.4-0.2,0.4-0.4v-8.3h3.1c0.2,0,0.4-0.2,0.4-0.4l0-3.3c0-0.1,0-0.2-0.1-0.3
	c-0.1-0.1-0.2-0.1-0.3-0.1h-3.1v-1.9c0-0.9,0.2-1.4,1.4-1.4l1.8,0c0.2,0,0.4-0.2,0.4-0.4c0,0,0,0,0,0V6.4C22,6.2,21.8,6,21.6,6
	C21.6,6,21.6,6,21.6,6z"/>
</svg>
