<svg xmlns="http://www.w3.org/2000/svg" width="32" height="32" viewBox="0 0 32 32">
    <path fill="#000" fill-rule="nonzero" d="M21.586 6.004L18.947 6c-2.964 0-4.88 1.932-4.88 4.922v2.27h-2.652a.411.411 0 0 0-.415.407v3.289c0 .225.186.407.415.407h2.653v8.297c0 .226.185.408.415.408h3.46c.23 0 .416-.183.416-.408v-8.297h3.101c.23 0 .415-.182.415-.407l.001-3.289a.405.405 0 0 0-.121-.288.419.419 0 0 0-.294-.12H18.36v-1.923c0-.925.224-1.394 1.449-1.394l1.777-.001A.411.411 0 0 0 22 9.465V6.412a.411.411 0 0 0-.414-.408z" opacity=".22"/>
</svg>
