<?xml version="1.0" encoding="utf-8"?>
<!-- Generator: Adobe Illustrator 17.0.0, SVG Export Plug-In . SVG Version: 6.00 Build 0)  -->
<!DOCTYPE svg PUBLIC "-//W3C//DTD SVG 1.1//EN" "http://www.w3.org/Graphics/SVG/1.1/DTD/svg11.dtd">
<svg version="1.1" id="Layer_1" xmlns="http://www.w3.org/2000/svg" xmlns:xlink="http://www.w3.org/1999/xlink" x="0px" y="0px"
	 width="16px" height="16px" viewBox="289.64 412.945 16 16" enable-background="new 289.64 412.945 16 16" xml:space="preserve">
<g>
	<path fill="#FBBB00" d="M293.186,422.614l-0.557,2.079l-2.036,0.043c-0.608-1.128-0.953-2.419-0.953-3.791
		c0-1.327,0.323-2.578,0.895-3.679h0l1.812,0.332l0.794,1.801c-0.166,0.484-0.257,1.004-0.257,1.546
		C292.884,421.532,292.991,422.095,293.186,422.614z"/>
	<path fill="#518EF8" d="M305.5,419.451c0.092,0.484,0.14,0.984,0.14,1.495c0,0.573-0.06,1.131-0.175,1.67
		c-0.389,1.834-1.407,3.435-2.817,4.568l0,0l-2.283-0.116l-0.323-2.017c0.935-0.549,1.666-1.407,2.051-2.435h-4.278v-3.165h4.34
		H305.5L305.5,419.451z"/>
	<path fill="#28B446" d="M302.648,427.183L302.648,427.183c-1.371,1.102-3.112,1.762-5.008,1.762c-3.047,0-5.695-1.703-7.047-4.209
		l2.593-2.122c0.676,1.803,2.415,3.087,4.454,3.087c0.876,0,1.698-0.237,2.402-0.651L302.648,427.183z"/>
	<path fill="#F14336" d="M302.746,414.787l-2.592,2.122c-0.729-0.456-1.591-0.719-2.515-0.719c-2.085,0-3.857,1.342-4.499,3.21
		l-2.606-2.134h0c1.331-2.567,4.014-4.321,7.105-4.321C299.581,412.945,301.361,413.636,302.746,414.787z"/>
</g>
</svg>
