<svg xmlns="http://www.w3.org/2000/svg" width="32" height="32" viewBox="0 0 32 32">
    <g fill="#000" fill-rule="nonzero" opacity=".22">
        <path d="M21.205 6h-9.41A5.802 5.802 0 0 0 6 11.795v9.41C6 24.4 8.6 27 11.795 27h9.41C24.4 27 27 24.4 27 21.205v-9.41C27 8.6 24.4 6 21.205 6zm3.932 15.205a3.937 3.937 0 0 1-3.932 3.932h-9.41a3.936 3.936 0 0 1-3.932-3.932v-9.41a3.936 3.936 0 0 1 3.932-3.932h9.41a3.937 3.937 0 0 1 3.932 3.932v9.41z"/>
        <path d="M16.5 11a5.506 5.506 0 0 0-5.5 5.5c0 3.033 2.467 5.5 5.5 5.5s5.5-2.467 5.5-5.5-2.467-5.5-5.5-5.5zm0 9.106a3.61 3.61 0 0 1-3.606-3.606 3.61 3.61 0 0 1 3.606-3.606 3.61 3.61 0 0 1 3.606 3.606 3.61 3.61 0 0 1-3.606 3.606zM22.5 9a1.507 1.507 0 0 0-1.5 1.5c0 .394.16.781.44 1.06.279.28.666.44 1.06.44.395 0 .781-.16 1.06-.44.28-.279.44-.666.44-1.06 0-.395-.16-.783-.44-1.06A1.506 1.506 0 0 0 22.5 9z"/>
    </g>
</svg>
