<?xml version="1.0" encoding="UTF-8"?>
<svg width="131px" height="130px" viewBox="0 0 131 130" version="1.1" xmlns="http://www.w3.org/2000/svg" xmlns:xlink="http://www.w3.org/1999/xlink">
    <!-- Generator: Sketch 48.2 (47327) - http://www.bohemiancoding.com/sketch -->
    <title>instagram</title>
    <desc>Created with Sketch.</desc>
    <defs>
        <radialGradient cx="26.5626266%" cy="107.702106%" fx="26.5626266%" fy="107.702106%" r="49.9906001%" gradientTransform="translate(0.265626,1.077021),scale(0.999727,1.000000),translate(-0.265626,-1.077021)" id="radialGradient-1">
            <stop stop-color="#FFDD55" offset="0%"></stop>
            <stop stop-color="#FFDD55" offset="10%"></stop>
            <stop stop-color="#FF543E" offset="50%"></stop>
            <stop stop-color="#C837AB" offset="100%"></stop>
        </radialGradient>
        <radialGradient cx="-16.7505274%" cy="7.20383154%" fx="-16.7505274%" fy="7.20383154%" r="49.9906001%" gradientTransform="translate(-0.167505,0.072038),scale(0.999727,1.000000),translate(0.167505,-0.072038)" id="radialGradient-2">
            <stop stop-color="#3771C8" offset="0%"></stop>
            <stop stop-color="#3771C8" offset="12.8%"></stop>
            <stop stop-color="#6600FF" stop-opacity="0" offset="100%"></stop>
        </radialGradient>
    </defs>
    <g id="Page-1" stroke="none" stroke-width="1" fill="none" fill-rule="evenodd">
        <g id="instagram" fill-rule="nonzero">
            <path d="M65.034,0 C37.892,0 29.954,0.028 28.411,0.156 C22.841,0.619 19.375,1.496 15.599,3.376 C12.689,4.821 10.394,6.496 8.129,8.844 C4.004,13.126 1.504,18.394 0.599,24.656 C0.159,27.696 0.031,28.316 0.005,43.844 C-0.005,49.02 0.005,55.832 0.005,64.969 C0.005,92.089 0.035,100.019 0.165,101.559 C0.615,106.979 1.465,110.389 3.265,114.119 C6.705,121.259 13.275,126.619 21.015,128.619 C23.695,129.309 26.655,129.689 30.455,129.869 C32.065,129.939 48.475,129.989 64.895,129.989 C81.315,129.989 97.735,129.969 99.305,129.889 C103.705,129.682 106.26,129.339 109.085,128.609 C116.875,126.599 123.325,121.319 126.835,114.079 C128.6,110.439 129.495,106.899 129.9,101.762 C129.988,100.642 130.025,82.785 130.025,64.952 C130.025,47.116 129.985,29.292 129.897,28.172 C129.487,22.952 128.592,19.442 126.77,15.732 C125.275,12.695 123.615,10.427 121.205,8.108 C116.904,4 111.644,1.5 105.376,0.596 C102.339,0.157 101.734,0.027 86.194,0 L65.034,0 Z" id="Shape" fill="url(#radialGradient-1)"></path>
            <path d="M65.034,0 C37.892,0 29.954,0.028 28.411,0.156 C22.841,0.619 19.375,1.496 15.599,3.376 C12.689,4.821 10.394,6.496 8.129,8.844 C4.004,13.126 1.504,18.394 0.599,24.656 C0.159,27.696 0.031,28.316 0.005,43.844 C-0.005,49.02 0.005,55.832 0.005,64.969 C0.005,92.089 0.035,100.019 0.165,101.559 C0.615,106.979 1.465,110.389 3.265,114.119 C6.705,121.259 13.275,126.619 21.015,128.619 C23.695,129.309 26.655,129.689 30.455,129.869 C32.065,129.939 48.475,129.989 64.895,129.989 C81.315,129.989 97.735,129.969 99.305,129.889 C103.705,129.682 106.26,129.339 109.085,128.609 C116.875,126.599 123.325,121.319 126.835,114.079 C128.6,110.439 129.495,106.899 129.9,101.762 C129.988,100.642 130.025,82.785 130.025,64.952 C130.025,47.116 129.985,29.292 129.897,28.172 C129.487,22.952 128.592,19.442 126.77,15.732 C125.275,12.695 123.615,10.427 121.205,8.108 C116.904,4 111.644,1.5 105.376,0.596 C102.339,0.157 101.734,0.027 86.194,0 L65.034,0 Z" id="Shape" fill="url(#radialGradient-2)"></path>
            <path d="M65.004,17 C51.968,17 50.332,17.057 45.212,17.29 C40.102,17.524 36.614,18.333 33.562,19.52 C30.405,20.746 27.727,22.386 25.059,25.055 C22.389,27.723 20.749,30.401 19.519,33.557 C18.329,36.61 17.519,40.099 17.289,45.207 C17.06,50.327 17,51.964 17,65 C17,78.036 17.058,79.667 17.29,84.787 C17.525,89.897 18.334,93.385 19.52,96.437 C20.747,99.594 22.387,102.272 25.056,104.94 C27.723,107.61 30.401,109.254 33.556,110.48 C36.61,111.667 40.099,112.476 45.208,112.71 C50.328,112.943 51.963,113 64.998,113 C78.035,113 79.666,112.943 84.786,112.71 C89.896,112.476 93.388,111.667 96.442,110.48 C99.598,109.254 102.272,107.61 104.939,104.94 C107.609,102.272 109.249,99.594 110.479,96.438 C111.659,93.385 112.469,89.896 112.709,84.788 C112.939,79.668 112.999,78.036 112.999,65 C112.999,51.964 112.939,50.328 112.709,45.208 C112.469,40.098 111.659,36.61 110.479,33.558 C109.249,30.401 107.609,27.723 104.939,25.055 C102.269,22.385 99.599,20.745 96.439,19.52 C93.379,18.333 89.889,17.524 84.779,17.29 C79.659,17.057 78.029,17 64.989,17 L65.004,17 Z M60.698,25.65 C61.976,25.648 63.402,25.65 65.004,25.65 C77.82,25.65 79.339,25.696 84.4,25.926 C89.08,26.14 91.62,26.922 93.312,27.579 C95.552,28.449 97.149,29.489 98.828,31.169 C100.508,32.849 101.548,34.449 102.42,36.689 C103.077,38.379 103.86,40.919 104.073,45.599 C104.303,50.659 104.353,52.179 104.353,64.989 C104.353,77.799 104.303,79.319 104.073,84.379 C103.859,89.059 103.077,91.599 102.42,93.289 C101.55,95.529 100.508,97.124 98.828,98.803 C97.148,100.483 95.553,101.523 93.312,102.393 C91.622,103.053 89.08,103.833 84.4,104.047 C79.34,104.277 77.82,104.327 65.004,104.327 C52.187,104.327 50.668,104.277 45.608,104.047 C40.928,103.831 38.388,103.049 36.695,102.392 C34.455,101.522 32.855,100.482 31.175,98.802 C29.495,97.122 28.455,95.526 27.583,93.285 C26.926,91.595 26.143,89.055 25.93,84.375 C25.7,79.315 25.654,77.795 25.654,64.977 C25.654,52.159 25.7,50.647 25.93,45.587 C26.144,40.907 26.926,38.367 27.583,36.675 C28.453,34.435 29.495,32.835 31.175,31.155 C32.855,29.475 34.455,28.435 36.695,27.563 C38.387,26.903 40.928,26.123 45.608,25.908 C50.036,25.708 51.752,25.648 60.698,25.638 L60.698,25.65 Z M90.626,33.62 C87.446,33.62 84.866,36.197 84.866,39.378 C84.866,42.558 87.446,45.138 90.626,45.138 C93.806,45.138 96.386,42.558 96.386,39.378 C96.386,36.198 93.806,33.618 90.626,33.618 L90.626,33.62 Z M65.004,40.35 C51.391,40.35 40.354,51.387 40.354,65 C40.354,78.613 51.391,89.645 65.004,89.645 C78.617,89.645 89.65,78.613 89.65,65 C89.65,51.387 78.616,40.35 65.003,40.35 L65.004,40.35 Z M65.004,49 C73.84,49 81.004,56.163 81.004,65 C81.004,73.836 73.84,81 65.004,81 C56.167,81 49.004,73.836 49.004,65 C49.004,56.163 56.167,49 65.004,49 Z" id="Shape" fill="#FFFFFF"></path>
        </g>
    </g>
</svg>