<svg xmlns="http://www.w3.org/2000/svg" width="24" height="24" viewBox="0 0 24 24">
    <g fill="#505050" fill-rule="nonzero" stroke="#505050" stroke-width=".17">
        <path d="M18.647 4H8.353C8.158 4 8 4.194 8 4.432c0 .24.158.433.353.433h9.941v14.27H8.353c-.195 0-.353.194-.353.433 0 .238.158.432.353.432h10.294c.195 0 .353-.194.353-.432V4.432c0-.238-.158-.432-.353-.432z"/>
        <path d="M9.251 14.285a.384.384 0 0 0 0 .592.51.51 0 0 0 .337.123.51.51 0 0 0 .336-.123l2.936-2.58a.384.384 0 0 0 0-.593L9.924 9.123a.523.523 0 0 0-.673 0 .384.384 0 0 0 0 .592l2.123 1.867H2.476c-.263 0-.476.187-.476.418 0 .231.213.419.476.419h8.898l-2.123 1.866z"/>
    </g>
</svg>
