<svg version="1.1" id="Layer_1" xmlns="http://www.w3.org/2000/svg" xmlns:xlink="http://www.w3.org/1999/xlink" x="0px" y="0px"
	 viewBox="0 0 100 100" enable-background="new 0 0 100 100" xml:space="preserve" fill="#505050">
<path d="M35.8,57.6h-5V14.4h5V57.6z M67.4,55.7c0.5-14.4-8.8-27.8-22.8-32.4L43,27.9c11.9,4,19.9,15.3,19.4,27.6
	C61.9,71,48.5,83.2,32.7,82.6c-7.7-0.3-14.8-3.5-20-9C7.5,68.1,4.7,61,5,53.5c0.4-10.8,7.3-20.6,17.5-24.8l-2-4.5
	c-12,5-20,16.4-20.5,29.2C-0.3,62.1,2.9,70.5,9,77c6.1,6.5,14.5,10.2,23.5,10.5c0.4,0,0.8,0,1.2,0C51.8,87.5,66.8,73.5,67.4,55.7z"
	/>
</svg>
