<?xml version="1.0" encoding="utf-8"?>
<!-- Generator: Adobe Illustrator 17.0.0, SVG Export Plug-In . SVG Version: 6.00 Build 0)  -->
<!DOCTYPE svg PUBLIC "-//W3C//DTD SVG 1.1//EN" "http://www.w3.org/Graphics/SVG/1.1/DTD/svg11.dtd">
<svg version="1.1" id="Layer_1" xmlns="http://www.w3.org/2000/svg" xmlns:xlink="http://www.w3.org/1999/xlink" x="0px" y="0px"
	 width="16px" height="16px" viewBox="0 0 16 16" enable-background="new 0 0 16 16" xml:space="preserve" fill="#03A9FF">
<path d="M15.272,14.163l-3.698-3.713c0.946-1.077,1.47-2.46,1.472-3.894c0-3.34-2.814-6.056-6.273-6.056
	S0.5,3.217,0.5,6.556c0,3.34,2.814,6.056,6.273,6.056c1.281,0.005,2.534-0.376,3.594-1.095l3.726,3.74
	c0.156,0.157,0.369,0.244,0.59,0.243c0.21,0.001,0.412-0.078,0.566-0.22c0.315-0.288,0.336-0.776,0.048-1.091
	C15.289,14.18,15.281,14.172,15.272,14.163z M6.772,2.08c2.558,0,4.637,2.008,4.637,4.476c0,2.469-2.08,4.477-4.636,4.477
	c-2.557,0-4.637-2.008-4.637-4.477c0-2.468,2.08-4.476,4.637-4.476L6.772,2.08z"/>
</svg>
