<?xml version="1.0" encoding="utf-8"?>
<!-- Generator: Adobe Illustrator 17.0.0, SVG Export Plug-In . SVG Version: 6.00 Build 0)  -->
<!DOCTYPE svg PUBLIC "-//W3C//DTD SVG 1.1//EN" "http://www.w3.org/Graphics/SVG/1.1/DTD/svg11.dtd">
<svg version="1.1" id="Layer_1" xmlns="http://www.w3.org/2000/svg" xmlns:xlink="http://www.w3.org/1999/xlink" x="0px" y="0px"
	 width="19px" height="18.992px" viewBox="0 -2.996 19 18.992" enable-background="new 0 -2.996 19 18.992" xml:space="preserve">
<path fill="#1E201D" d="M12.794,0.196c-0.266-0.26-0.691-0.26-0.957,0c-0.255,0.249-0.259,0.658-0.01,0.912
	c0.003,0.003,0.007,0.007,0.01,0.01l4.855,4.724H0.67C0.297,5.843,0,6.132,0,6.495c0,0.364,0.297,0.662,0.67,0.662h16.022
	l-4.855,4.716c-0.257,0.255-0.259,0.671-0.003,0.928c0.001,0.001,0.002,0.002,0.003,0.003c0.268,0.261,0.7,0.261,0.957,0L18.8,6.961
	c0.255-0.237,0.269-0.636,0.032-0.89c-0.01-0.011-0.021-0.021-0.032-0.032L12.794,0.196z"/>
</svg>
