<svg version="1.1" id="Layer_1" xmlns="http://www.w3.org/2000/svg" xmlns:xlink="http://www.w3.org/1999/xlink" x="0px" y="0px"
	 viewBox="0 0 56 56" style="enable-background:new 0 0 56 56;" xml:space="preserve" fill="#A7A7A7">
<path d="M40.2,15.4c0.5,0,0.8-0.4,0.8-0.8c0,0,0,0,0,0v-2.7c0-1-0.8-1.8-1.8-1.8H21.7c-0.2,0-0.4,0.1-0.6,0.2l-6.9,7
	c-0.2,0.2-0.2,0.4-0.2,0.6v25.3c0,1,0.8,1.8,1.8,1.8h23.4c1,0,1.8-0.8,1.8-1.8V30.3c0-0.5-0.4-0.8-0.8-0.8c0,0,0,0,0,0
	c-0.5,0-0.8,0.4-0.8,0.8c0,0,0,0,0,0v12.9c0,0.1-0.1,0.2-0.2,0.2c0,0,0,0,0,0H15.8c-0.1,0-0.2-0.1-0.2-0.2V18.7h5
	c1,0,1.8-0.8,1.8-1.8v-5.2h16.7c0.1,0,0.2,0.1,0.2,0.2v2.7C39.3,15,39.7,15.4,40.2,15.4z M20.9,16.8c0,0.1-0.1,0.2-0.2,0.2h-3.9
	l4-4.1C20.9,12.9,20.9,16.8,20.9,16.8z M47.2,16.8l-1-1c-1.1-1.1-2.9-1.1-4,0c0,0,0,0,0,0l-7.8,7.9H20.8c-0.5,0-0.8,0.4-0.8,0.8
	c0,0,0,0,0,0c0,0.5,0.4,0.8,0.8,0.8h11.9l-5,5.1h-6.8c-0.5,0-0.8,0.4-0.8,0.8c0,0,0,0,0,0c0,0.5,0.4,0.8,0.8,0.8H26l0,0
	c-0.1,0.1-0.2,0.2-0.2,0.4l-1.3,4.7h-3.6c-0.5,0-0.8,0.4-0.8,0.8c0,0,0,0,0,0c0,0.5,0.4,0.8,0.8,0.8h4.3c0,0,0.2,0,0.2,0l5.3-1.5
	c0.1,0,0.3-0.1,0.4-0.2l16.2-16.4C48.3,19.8,48.3,18,47.2,16.8L47.2,16.8z M26.3,36.9l0.7-2.5l1.8,1.8L26.3,36.9z M30.4,35.5
	l-2.6-2.7l13.4-13.5l2.6,2.7L30.4,35.5L30.4,35.5z M46,19.7l-1.1,1.1l-2.6-2.7l1.1-1.1c0.4-0.5,1.2-0.5,1.6,0c0,0,0,0,0,0l1,1
	C46.4,18.5,46.4,19.2,46,19.7z"/>
</svg>
