<svg xmlns="http://www.w3.org/2000/svg" width="56" height="56" viewBox="0 0 56 56">
    <g fill="#A7A7A7" fill-rule="nonzero" stroke="#A7A7A7" stroke-width=".4">
        <path d="M40.172 15.358a.836.836 0 0 0 .828-.845v-2.665c0-1.02-.811-1.848-1.809-1.848H21.683a.82.82 0 0 0-.585.247l-6.856 6.999a.854.854 0 0 0-.242.597v25.31C14 44.17 14.812 45 15.81 45h23.38c.999 0 1.81-.829 1.81-1.848V30.254a.836.836 0 0 0-.828-.845.836.836 0 0 0-.827.845v12.898a.156.156 0 0 1-.154.158H15.81a.157.157 0 0 1-.155-.158V18.688h5.047c.998 0 1.809-.829 1.809-1.847V11.69h16.68c.085 0 .154.07.154.158v2.665c0 .467.37.845.827.845zM20.856 16.84c0 .087-.07.157-.154.157h-3.876l4.03-4.114v3.957z"/>
        <path d="M47.173 16.832l-.984-.995a2.809 2.809 0 0 0-4 0l-7.81 7.902H20.837a.841.841 0 0 0-.836.846c0 .468.374.846.836.846h11.872l-5.032 5.093h-6.84a.841.841 0 0 0-.836.846c0 .467.374.846.836.846h5.168l-.013.013a.849.849 0 0 0-.215.372l-1.291 4.707h-3.649a.841.841 0 0 0-.836.846c0 .467.374.846.836.846h4.284s.184-.02.21-.028l5.277-1.482a.834.834 0 0 0 .368-.217l16.198-16.392a2.89 2.89 0 0 0 0-4.049zM26.32 36.938l.683-2.487 1.775 1.797-2.458.69zm4.063-1.46l-2.62-2.65 13.371-13.532 2.62 2.651L30.384 35.48zM45.99 19.686l-1.053 1.066-2.62-2.651 1.054-1.067a1.148 1.148 0 0 1 1.636 0l.983.996c.451.456.451 1.2 0 1.656z"/>
    </g>
</svg>
