<?xml version="1.0" encoding="utf-8"?>
<!-- Generator: Adobe Illustrator 17.0.0, SVG Export Plug-In . SVG Version: 6.00 Build 0)  -->
<!DOCTYPE svg PUBLIC "-//W3C//DTD SVG 1.1//EN" "http://www.w3.org/Graphics/SVG/1.1/DTD/svg11.dtd">
<svg version="1.1" id="Layer_1" xmlns="http://www.w3.org/2000/svg" xmlns:xlink="http://www.w3.org/1999/xlink" x="0px" y="0px"
	 width="595.28px" height="595.276px" viewBox="0 123.307 595.28 595.276" enable-background="new 0 123.307 595.28 595.276"
	 xml:space="preserve">
<g id="icon_Edit-01" transform="translate(1812.293 -1914.55)">
	
		<rect id="Rectangle_1804" x="-1706.607" y="2280.077" transform="matrix(-0.7071 0.7071 -0.7071 -0.7071 -949.4324 5094.7246)" fill="#B5B5B5" width="353.477" height="141.303"/>
	<path id="Path_488" fill="#B5B5B5" d="M-1284.141,2204.929l-44.659,44.658l-99.897-99.849l44.659-44.658
		c16.388-16.407,42.973-16.422,59.38-0.034c0.012,0.011,0.022,0.023,0.034,0.034l40.435,40.435
		c16.419,16.375,16.456,42.96,0.082,59.38C-1284.119,2204.906-1284.129,2204.918-1284.141,2204.929z"/>
	<path id="Path_489" fill="#B5B5B5" d="M-1740.089,2577.823l107.13-24.271l-99.849-99.704l-24.271,107.13
		c-1.777,7.542,2.895,15.095,10.436,16.873C-1744.487,2578.359-1742.241,2578.35-1740.089,2577.823z"/>
</g>
</svg>
