<?xml version="1.0" encoding="utf-8"?>
<!-- Generator: Adobe Illustrator 17.0.0, SVG Export Plug-In . SVG Version: 6.00 Build 0)  -->
<!DOCTYPE svg PUBLIC "-//W3C//DTD SVG 1.1//EN" "http://www.w3.org/Graphics/SVG/1.1/DTD/svg11.dtd">
<svg version="1.1" id="Layer_1" xmlns="http://www.w3.org/2000/svg" xmlns:xlink="http://www.w3.org/1999/xlink" x="0px" y="0px"
	 width="595.276px" height="595.276px" viewBox="0 0 595.276 595.276" enable-background="new 0 0 595.276 595.276"
	 xml:space="preserve">
<rect x="211.779" y="136.161" transform="matrix(-0.7071 -0.7071 0.7071 -0.7071 260.8852 733.8571)" fill="#B5B5B5" width="141.301" height="353.473"/>
<path fill="#B5B5B5" d="M528.102,107.658l-40.435-40.435c-0.012-0.011-0.022-0.023-0.034-0.034
	c-16.407-16.388-42.992-16.373-59.38,0.034l-44.659,44.658l99.897,99.849l44.659-44.658c0.012-0.011,0.022-0.023,0.034-0.034
	C544.558,150.618,544.521,124.033,528.102,107.658z"/>
<path fill="#B5B5B5" d="M55.212,523.121c-1.777,7.542,2.895,15.095,10.436,16.873c2.156,0.508,4.402,0.499,6.554-0.028
	l107.13-24.271l-99.849-99.704L55.212,523.121z"/>
<rect x="0" fill="none" width="595.276" height="595.276"/>
</svg>
