<?xml version="1.0" encoding="utf-8"?>
<!-- Generator: Adobe Illustrator 17.0.0, SVG Export Plug-In . SVG Version: 6.00 Build 0)  -->
<!DOCTYPE svg PUBLIC "-//W3C//DTD SVG 1.1//EN" "http://www.w3.org/Graphics/SVG/1.1/DTD/svg11.dtd">
<svg version="1.1" id="Layer_1" xmlns="http://www.w3.org/2000/svg" xmlns:xlink="http://www.w3.org/1999/xlink" x="0px" y="0px"
	 width="595.276px" height="595.276px" viewBox="0.002 121.556 595.276 595.276"
	 enable-background="new 0.002 121.556 595.276 595.276" xml:space="preserve">
<path d="M591.778,681.818c-7.003-63.03-14.007-108.551-56.026-140.066c-35.016-21.01-70.033-42.02-105.049-59.528
	c-10.505-3.502-28.013-14.007-38.518-24.512c49.023-31.515,77.036-84.04,77.036-147.069c0-98.046-77.036-175.082-175.082-175.082
	s-175.082,77.036-175.082,175.082c0,59.528,28.013,112.053,73.535,143.568c-14.007,10.505-35.016,24.512-42.02,28.013
	c-35.016,17.508-66.531,35.016-101.548,59.528C14.007,569.765,7.003,618.788,0,681.818l0,14.007l35.016,3.502v-14.007
	c7.003-56.026,14.007-94.544,38.518-115.554c31.515-21.01,63.03-38.518,94.544-56.026c14.007-7.003,45.521-28.013,59.528-38.518
	c24.512,10.505,45.521,14.007,70.033,14.007c21.01,0,42.02-3.502,59.528-10.505l0,0c0,0,42.02,28.013,59.528,38.518
	c35.016,17.508,70.033,35.016,98.046,56.026s31.515,59.528,38.518,115.554l3.502,14.007l35.017-3.502L591.778,681.818z
	 M297.64,454.211c-77.036,0-140.066-63.03-140.066-140.066s63.03-140.066,140.066-140.066s140.066,63.03,140.066,140.066
	S374.676,454.211,297.64,454.211z"/>
</svg>
