<svg xmlns="http://www.w3.org/2000/svg" width="32" height="32" viewBox="0 0 32 32">
    <path fill="#000" fill-rule="nonzero" d="M22.055 8.947C20.74 7.691 18.923 7 16.935 7c-3.035 0-4.902 1.239-5.934 2.278C9.729 10.558 9 12.26 9 13.944c0 2.115.889 3.738 2.377 4.342.1.041.2.062.299.062.314 0 .562-.205.648-.533.05-.188.167-.652.218-.854.108-.398.02-.59-.216-.867-.43-.507-.63-1.106-.63-1.886 0-2.318 1.733-4.78 4.945-4.78 2.55 0 4.133 1.441 4.133 3.763 0 1.465-.317 2.822-.893 3.821-.4.694-1.103 1.521-2.184 1.521-.467 0-.886-.19-1.15-.524-.251-.314-.333-.721-.233-1.145.114-.479.269-.978.419-1.461.273-.882.532-1.715.532-2.38 0-1.136-.702-1.9-1.747-1.9-1.328 0-2.368 1.342-2.368 3.056 0 .84.225 1.469.326 1.71-.167.706-1.16 4.9-1.35 5.69-.108.463-.765 4.109.322 4.4 1.221.326 2.313-3.225 2.424-3.626.09-.327.405-1.56.598-2.32.59.566 1.539.948 2.463.948 1.741 0 3.307-.78 4.41-2.196C23.41 17.41 24 15.496 24 13.393c0-1.644-.71-3.264-1.945-4.446z" opacity=".22"/>
</svg>
