<?xml version="1.0" encoding="utf-8"?>
<!-- Generator: Adobe Illustrator 17.0.0, SVG Export Plug-In . SVG Version: 6.00 Build 0)  -->
<!DOCTYPE svg PUBLIC "-//W3C//DTD SVG 1.1//EN" "http://www.w3.org/Graphics/SVG/1.1/DTD/svg11.dtd">
<svg version="1.1" id="Layer_1" xmlns="http://www.w3.org/2000/svg" xmlns:xlink="http://www.w3.org/1999/xlink" x="0px" y="0px"
	 width="18.992px" height="18.992px" viewBox="0.004 -2.996 18.992 18.992" enable-background="new 0.004 -2.996 18.992 18.992"
	 xml:space="preserve">
<path fill="#1E201D" d="M6.206,0.196c0.258-0.261,0.69-0.261,0.957,0c0.255,0.249,0.259,0.658,0.01,0.912
	c-0.003,0.003-0.007,0.007-0.01,0.01L2.308,5.842H18.33C18.703,5.843,19,6.132,19,6.495c-0.002,0.367-0.301,0.664-0.668,0.662
	c-0.001,0-0.001,0-0.002,0H2.308l4.855,4.716c0.259,0.26,0.259,0.68,0,0.931c-0.268,0.261-0.7,0.261-0.957,0L0.2,6.961
	c-0.255-0.237-0.269-0.636-0.032-0.89C0.179,6.06,0.189,6.049,0.2,6.039L6.206,0.196z"/>
</svg>
