<?xml version="1.0" encoding="UTF-8"?>
<svg width="16px" height="16px" viewBox="0 0 16 16" version="1.1" xmlns="http://www.w3.org/2000/svg" xmlns:xlink="http://www.w3.org/1999/xlink">
    <!-- Generator: Sketch 47.1 (45422) - http://www.bohemiancoding.com/sketch -->
    <title>Artboard</title>
    <desc>Created with Sketch.</desc>
    <defs></defs>
    <g id="Page-1" stroke="none" stroke-width="1" fill="none" fill-rule="evenodd">
        <g id="Artboard" fill-rule="nonzero" fill="#1E201D">
            <path d="M6.26663583,5.10302142 C6.40241885,4.96565953 6.62977646,4.96565953 6.7702961,5.10302142 C6.90450025,5.23406782 6.90660541,5.44932075 6.77555901,5.58299861 C6.77398013,5.58457748 6.77187497,5.58668264 6.7702961,5.58826151 L4.21515439,8.07445913 L12.6473852,8.07445913 C12.8436916,8.07498542 13,8.22708346 13,8.41812701 C12.9989474,8.61127572 12.8415865,8.76758408 12.6484378,8.7665315 C12.6479115,8.7665315 12.6479115,8.7665315 12.6473852,8.7665315 L4.21515439,8.7665315 L6.7702961,11.2485188 C6.90660541,11.3853544 6.90660541,11.6063965 6.7702961,11.7384955 C6.62925017,11.8758574 6.40189256,11.8758574 6.26663583,11.7384955 L3.10573343,8.66337851 C2.97152929,8.5386476 2.96416122,8.32865758 3.08889213,8.19497972 C3.09468133,8.18919052 3.09994424,8.18340132 3.10573343,8.17813842 L6.26663583,5.10302142 Z" id="Shape"></path>
        </g>
    </g>
</svg>