<?xml version="1.0" encoding="utf-8"?>
<!-- Generator: Adobe Illustrator 17.0.0, SVG Export Plug-In . SVG Version: 6.00 Build 0)  -->
<!DOCTYPE svg PUBLIC "-//W3C//DTD SVG 1.1//EN" "http://www.w3.org/Graphics/SVG/1.1/DTD/svg11.dtd">
<svg version="1.1" id="Layer_1" xmlns="http://www.w3.org/2000/svg" xmlns:xlink="http://www.w3.org/1999/xlink" x="0px" y="0px"
	 width="595.276px" height="595.276px" viewBox="0.002 83.218 595.276 595.276"
	 enable-background="new 0.002 83.218 595.276 595.276" xml:space="preserve">
	<g fill="#2FBAFD">
		<path id="Path_165" d="M592.331,372.322l-40.075-58.112l4-70.162c0.057-7.333-3.709-14.167-9.938-18.037
	l-64.149-30.062l-30.062-64.149c-3.87-6.229-10.704-9.995-18.037-9.938l-70.162,6.012l-58.186-40.149
	c-6.082-4.01-13.968-4.01-20.05,0l-58.137,40.075l-68.124-6.012c-7.569-2.323-15.588,1.93-17.91,9.499
	c-0.045,0.146-0.087,0.292-0.127,0.439l-30.087,64.224l-64.124,30.062c-7.639,2.08-12.145,9.959-10.065,17.598
	c0.04,0.147,0.082,0.293,0.127,0.439l6.012,70.162L3.063,372.322c-4.01,6.082-4.01,13.968,0,20.05l40.075,58.112l-6.012,70.261
	c-0.057,7.333,3.709,14.167,9.938,18.037l64.149,30.062l30.062,64.149c3.224,6.871,10.507,10.883,18.037,9.938l70.162-6.012
	l58.137,40.075c4,2.012,6.012,4,9.938,4c3.686-0.093,7.215-1.513,9.938-4l58.137-40.075l70.162,6.012
	c7.333,0.057,14.167-3.709,18.037-9.938l30.062-64.149l64.149-30.062c6.229-3.87,9.995-10.704,9.938-18.037l-6.012-70.162
	l40.075-58.112C596.177,386.427,596.295,378.487,592.331,372.322z M75.212,434.434L39.138,382.26l32.075-44.099h58.137
	c16.025,0,26.062,0,26.062,36.075v134.286c0,8.025-24.05,18.037-52.174,18.037l-28.05-14.037l4-66.137
	c0.522-4.369-0.936-8.743-3.975-11.926L75.212,434.434z M253.598,244.024c-3.826,18.525-6.506,37.269-8.025,56.124h-9.938
	c-9.962-0.007-18.043,8.063-18.05,18.025s8.063,18.043,18.025,18.05c0.008,0,0.017,0,0.025,0h142.311
	c6.012,0,8.025,8.025,9.938,8.025c0,0-2.012,9.938-18.037,9.938c-9.962-0.007-18.043,8.063-18.05,18.025
	c-0.007,9.962,8.063,18.043,18.025,18.05c0.008,0,0.017,0,0.025,0c18.037,0,18.037,4,18.037,9.938
	c0.329,2.831-0.387,5.684-2.012,8.025c-5.143,1.779-10.601,2.465-16.025,2.012c-9.962-0.007-18.043,8.063-18.05,18.025
	c-0.007,9.962,8.063,18.043,18.025,18.05c0.008,0,0.017,0,0.025,0l0,0c5.386,0.239,9.699,4.552,9.938,9.938
	c0,6.012,0,9.938-18.037,9.938c-9.962,0-18.037,8.076-18.037,18.037s8.076,18.037,18.037,18.037h8.025
	c-8.026,4.479-16.907,7.213-26.062,8.025c-17.456,0.291-34.878,1.626-52.174,4c-34.062,2.012-80.174,6.012-90.186,6.012
	c-3.437,0.292-6.885-0.406-9.938-2.012V376.347c0.431-6.748-0.249-13.522-2.012-20.05l56.199-132.273c2.012,0,4,2.012,6.012,4
	c1.922,5.109,2.604,10.601,1.988,16.025L253.598,244.024z M518.07,434.459c-2.219,3.657-3.586,7.767-4,12.025l6.012,64.149
	l-58.137,26.062c-3.585,1.577-6.448,4.44-8.025,8.025l-28.05,60.124l-64.149-6.012c-4.406-0.547-8.824,0.923-12.025,4
	l-52.174,38.087l-51.926-38.186c-2.723-2.487-6.252-3.907-9.938-4h-2.112l-66.137,6.012l-24.05-52.174
	c8.346-2.45,16.408-5.782,24.05-9.938c9.269,5.05,19.609,7.818,30.162,8.074c9.938,0,46.087-2.012,92.199-6.012
	c22.037-2.012,46.087-4,50.112-4c14.037,0,62.112-12.025,62.112-44.099c0.19-4.763-0.492-9.52-2.012-14.037
	c7.666-8.139,11.963-18.881,12.025-30.062c-0.163-6.864-1.516-13.648-4-20.05c10.073-8.298,15.339-21.077,14.037-34.062
	c-0.235-10.171-3.717-20-9.938-28.05c5.862-7.488,9.326-16.572,9.938-26.062c-0.81-24.012-20.087-43.29-44.099-44.099H279.56
	c2.012-12.025,4-28.05,8.025-50.112c4.613-16.057,0.883-33.358-9.938-46.087c-11.585-12.091-27.372-19.269-44.099-20.05
	c-6.797-0.006-13.009,3.846-16.025,9.938l-50.112,116.348c-11.477-8.699-25.705-12.968-40.075-12.025H77.225l-4-46.112
	l58.137-26.062c4.225-2.254,7.684-5.713,9.938-9.938l26.112-58.186l64.149,6.012c4.406,0.547,8.824-0.923,12.025-4l54.112-36.099
	l52.174,38.087c3.786,1.636,7.913,2.327,12.025,2.012l64.149-6.012l26.062,58.112c1.577,3.585,4.44,6.448,8.025,8.025l60.124,28.05
	l-6.012,64.149c-0.547,4.406,0.923,8.824,4,12.025l38.087,52.174L518.07,434.459z"/>
	</g>
</svg>
