<?xml version="1.0" encoding="utf-8"?>
<!-- Generator: Adobe Illustrator 17.0.0, SVG Export Plug-In . SVG Version: 6.00 Build 0)  -->
<!DOCTYPE svg PUBLIC "-//W3C//DTD SVG 1.1//EN" "http://www.w3.org/Graphics/SVG/1.1/DTD/svg11.dtd">
<svg version="1.1" id="Layer_1" xmlns="http://www.w3.org/2000/svg" xmlns:xlink="http://www.w3.org/1999/xlink" x="0px" y="0px"
	 width="14px" height="14px" viewBox="0 0 14 14" enable-background="new 0 0 14 14" xml:space="preserve">
<g>
	<path fill="#03A9FF" d="M12.847,13.282l-1.445,0.024c0,0-0.56-0.044-0.696-0.54c-0.132-0.479-0.357-1.157-0.357-1.157h-0.009
		l0.018-0.058L8.611,9.644h1.23L9.446,8.189C9.383,7.97,9.314,7.707,9.232,7.402c-0.25,0.675-0.638,1.211-1.164,1.61l-0.014,0.05
		L7.581,9.391l2.012,2.216H7.385l-0.007,0.024L5.635,9.728L4.87,9.796l0.014,0.014C3.573,9.767,2.557,9.379,1.838,8.644
		C1.075,7.867,0.693,6.732,0.693,5.24c0-1.474,0.38-2.6,1.14-3.379c0.761-0.78,1.865-1.168,3.313-1.168
		c1.452,0,2.553,0.386,3.303,1.158c0.438,0.451,0.723,1.032,0.929,1.721C9.477,3.9,9.11,4.06,9.11,4.06L8.263,4.378
		C8.822,4.384,9.482,4.391,9.944,4.4c0.538,0.011,0.695,0.404,0.695,0.404l2.642,7.827C13.28,12.631,13.467,13.275,12.847,13.282z
		 M6.515,3.291c-0.306-0.423-0.763-0.633-1.37-0.633c-1.236,0-1.855,0.865-1.855,2.595c0,1.713,0.614,2.57,1.84,2.57
		c0.624,0,1.087-0.207,1.389-0.623c0.303-0.416,0.453-1.065,0.453-1.946c0.003-0.886-0.15-1.539-0.455-1.961
		C6.517,3.291,6.515,3.291,6.515,3.291z M5.168,10.419l0.072-0.216l1.928,2.105l-0.144,0.459c0,0-0.223,0.482-0.624,0.472
		c-0.625-0.014-1.53,0-1.53,0s-0.631-0.063-0.454-0.573C4.705,11.83,5.169,10.419,5.168,10.419
		C5.169,10.419,5.168,10.419,5.168,10.419z"/>
</g>
</svg>
