<?xml version="1.0" encoding="utf-8"?>
<!-- Generator: Adobe Illustrator 22.1.0, SVG Export Plug-In . SVG Version: 6.00 Build 0)  -->
<svg version="1.1" id="Layer_1" xmlns="http://www.w3.org/2000/svg" xmlns:xlink="http://www.w3.org/1999/xlink" x="0px" y="0px"
	 viewBox="0 0 300 300" style="enable-background:new 0 0 300 300;" xml:space="preserve">
<style type="text/css">
	.st0{fill:#C7C7C7;}
</style>
<g id="_x23_ffffffff">
	<path class="st0" d="M158.1,39.6c0.3-2.9,3.3-5.3,6.2-4.4c13.5,2.9,27,5.9,40.5,9c2.6-4.3,6.8-7.8,11.8-8.5
		c8.8-1.8,18.1,5.3,18.8,14.2c1.2,9-6.5,17.9-15.7,17.9c-8.3,0.4-15.7-6.4-16.6-14.5c-12.2-2.8-24.5-5.4-36.8-8.2
		c-4.2,17.9-8.3,35.8-12.5,53.7c23.9,0.3,47.7,8,66.9,22.1c4.6-4.5,10.9-7.3,17.4-7.1c10.1-0.1,20,7.1,22.2,17.1
		c3,10.9-2.7,23.2-12.8,28.2c1.7,16.3-3.7,33.2-14.8,45.2c-5.1,5.7-11.5,10-18.1,13.8c-19.5,11.5-42.1,17.3-64.7,16.7
		c-27.3,0.7-54.7-8-76.4-24.6c-15.2-12-23.3-31.9-21.2-51.1c-5.3-2.9-9.8-7.5-11.9-13.2c-4-9.8-0.8-22.4,8.3-28.2
		c9.2-6.4,22.6-4.9,30.4,3.1c18.8-13.7,41.8-21.5,65-22.1C148.9,79.1,153.4,59.4,158.1,39.6 M108.2,138.2c-7.3,1.6-13,8.8-12.5,16.3
		c-0.1,8.9,8.5,16.6,17.4,15.8c8.8-0.4,16.1-9,15-17.8C127.4,143,117.4,135.8,108.2,138.2 M183.2,138.5
		c-7.4,2.2-12.5,10.2-11.2,17.9c1,8.1,8.9,14.5,17,13.9c9-0.3,16.5-9,15.2-17.9C203.6,142.5,192.5,135.2,183.2,138.5 M110.5,193
		c-2.4,0.6-3.7,4-1.7,5.8c23.5,18.1,59,18.1,82.4,0c3.3-3-2-8.3-5-5.1c-20.4,14.5-49.6,15.1-70.5,1.2
		C114.1,194.2,112.5,192.2,110.5,193z"/>
</g>
</svg>
