<?xml version="1.0" encoding="utf-8"?>
<!-- Generator: Adobe Illustrator 22.1.0, SVG Export Plug-In . SVG Version: 6.00 Build 0)  -->
<svg version="1.1" id="Layer_1" xmlns="http://www.w3.org/2000/svg" xmlns:xlink="http://www.w3.org/1999/xlink" x="0px" y="0px"
	 viewBox="0 0 129 129" style="enable-background:new 0 0 129 129;" xml:space="preserve" fill="#E3E3E3">
<path  d="M122.1,66.6c-0.8-1.7-18.8-31.4-19.3-32.1c-3.4-5.5-9.2-8.7-15.6-8.7c-0.9,0-1.8,0.1-2.7,0.2
	c-1.5-2.5-4.2-4-7.2-4c-4.6,0-8.4,3.8-8.4,8.4v14.7H58.1V30.4c0-4.6-3.8-8.4-8.4-8.4c-2.9,0-5.6,1.5-7.2,4c-0.9-0.1-1.8-0.2-2.7-0.2
	c-6.4,0-12.2,3.3-15.6,8.7c0,0.1-0.2,0.3-3.6,6c-0.6,1-0.3,2.2,0.7,2.8c1,0.6,2.2,0.3,2.8-0.7c2.8-4.7,3.5-5.8,3.5-5.9
	c2.6-4.2,7.1-6.8,12.1-6.8c7.8,0,14.2,6.4,14.2,14.2v20.3C49,56.3,40.1,51,30,51c-4.4,0-8.8,1-12.7,3l3-5.1c0.5-1,0.2-2.3-0.8-2.8
	c-0.9-0.5-2.1-0.2-2.7,0.7C12.5,54.1,5.6,65.1,4.7,66.9C2.9,70.7,2,74.8,2,79c0,15.4,12.6,28,28,28c15.5,0,28-12.6,28-28v-5.5h10.9
	V79c0,15.4,12.6,28,28,28s28-12.6,28-28C125,74.6,124,70.4,122.1,66.6z M53.9,32.6c-1.9-2.3-4.4-4.2-7.2-5.4
	c0.8-0.7,1.8-1.1,2.9-1.1c2.4,0,4.3,1.9,4.3,4.3C53.9,30.4,53.9,32.6,53.9,32.6z M30,102.9C16.8,102.9,6.1,92.2,6.1,79
	S16.8,55.1,30,55.1S53.9,65.8,53.9,79S43.2,102.9,30,102.9z M58.1,61.5V49.3h10.9v12.2C68.9,61.5,58.1,61.5,58.1,61.5z M68.9,69.4
	H58.1v-3.8h10.9V69.4L68.9,69.4z M73.1,30.4c0-2.4,1.9-4.3,4.3-4.3c1.1,0,2.1,0.4,2.9,1.1c-2.8,1.2-5.3,3-7.2,5.4
	C73.1,32.6,73.1,30.4,73.1,30.4z M73.1,44.1L73.1,44.1c0-7.8,6.4-14.2,14.2-14.2c5,0,9.5,2.5,12.1,6.8c0.2,0.4,5.4,9,10.3,17.3
	c-3.9-2-8.3-3-12.7-3c-10.1,0-19,5.4-23.9,13.4C73.1,64.4,73.1,44.1,73.1,44.1z M97,102.9c-13.2,0-23.9-10.7-23.9-23.9
	c0-13.2,10.7-23.9,23.9-23.9s23.9,10.7,23.9,23.9C120.9,92.2,110.2,102.9,97,102.9L97,102.9z M114.9,72.6c-0.4-1.1-1.6-1.6-2.7-1.2
	c-1.1,0.4-1.7,1.6-1.3,2.6c0.6,1.6,0.9,3.3,0.9,5c0,8.2-6.9,14.9-15.3,14.9c-8.4,0-15.3-6.7-15.3-14.9s6.9-14.9,15.3-14.9
	c4.2,0,8.3,1.7,11.2,4.8c0.8,0.8,2.1,0.9,3,0.1c0.8-0.7,0.9-2,0.2-2.8c0,0,0,0,0-0.1c-3.7-3.8-8.9-6.1-14.3-6.1
	C85.7,60,77,68.5,77,79s8.7,19,19.5,19S116,89.5,116,79C116,76.8,115.6,74.6,114.9,72.6z M30.5,60C19.7,60,11,68.5,11,79
	s8.7,19,19.5,19S50,89.5,50,79S41.3,60,30.5,60z M30.5,93.9c-8.4,0-15.3-6.7-15.3-14.9s6.9-14.9,15.3-14.9c8.4,0,15.3,6.7,15.3,14.9
	C45.8,87.2,38.9,93.9,30.5,93.9z M34.4,82.2h-3.2c0-0.5,0-0.7,0-0.9c0-1,0.2-1.9,0.5-2.6s1-1.4,2.1-2.3s1.7-1.4,1.9-1.7
	c0.3-0.4,0.5-0.9,0.5-1.4c0-0.7-0.3-1.3-0.8-1.8c-0.6-0.5-1.3-0.7-2.2-0.7c-0.9,0-1.7,0.3-2.3,0.8s-1,1.3-1.3,2.4l-3.3-0.4
	c0.1-1.5,0.7-2.8,1.9-3.9s2.8-1.6,4.7-1.6c2,0,3.7,0.5,4.9,1.6c1.2,1.1,1.8,2.3,1.8,3.7c0,0.8-0.2,1.5-0.7,2.2s-1.4,1.7-2.9,2.9
	c-0.8,0.6-1.2,1.1-1.4,1.5S34.4,81.2,34.4,82.2z M31.1,87v-3.6h3.6V87H31.1z M99.4,82.2h-3.2c0-0.5,0-0.7,0-0.9c0-1,0.2-1.9,0.5-2.6
	c0.3-0.7,1-1.4,2.1-2.3s1.7-1.4,1.9-1.7c0.3-0.4,0.5-0.9,0.5-1.4c0-0.7-0.3-1.3-0.8-1.8c-0.6-0.5-1.3-0.7-2.2-0.7
	c-0.9,0-1.7,0.3-2.3,0.8s-1,1.3-1.3,2.4l-3.3-0.4c0.1-1.5,0.7-2.8,1.9-3.9c1.2-1.1,2.8-1.6,4.7-1.6c2,0,3.7,0.5,4.9,1.6
	c1.2,1.1,1.8,2.3,1.8,3.7c0,0.8-0.2,1.5-0.7,2.2s-1.4,1.7-2.9,2.9c-0.8,0.6-1.2,1.1-1.4,1.5C99.5,80.5,99.4,81.2,99.4,82.2z
	 M96.1,87v-3.6h3.6V87H96.1z"/>
</svg>
