<svg xmlns="http://www.w3.org/2000/svg" width="24" height="24" viewBox="0 0 24 24">
    <path fill="#0AF" fill-rule="nonzero" d="M2.353 11.63l4.609 1.779 1.783 5.93c.115.38.564.52.862.268l2.569-2.165a.747.747 0 0 1 .934-.027l4.633 3.477c.32.24.771.06.851-.34l3.394-16.875c.088-.436-.326-.799-.727-.638L2.348 10.58c-.467.187-.463.87.005 1.05zm6.092 1.39l9.306-5.993c.167-.107.339.13.195.268l-7.68 7.464a1.69 1.69 0 0 0-.493.996l-.261 2.027a.239.239 0 0 1-.47.035l-1.006-3.696a1 1 0 0 1 .41-1.102z"/>
</svg>
