<svg version="1.1" id="Layer_1" xmlns="http://www.w3.org/2000/svg" xmlns:xlink="http://www.w3.org/1999/xlink" x="0px" y="0px"
	 viewBox="0 0 28.6 28.6" enable-background="new 0 0 28.6 28.6" xml:space="preserve" fill="#dedede">
<path d="M22.3,24.7h-6.1v-6.2h2c0.4,0,0.6-0.3,0.6-0.6c0-0.1,0-0.3-0.1-0.4L14.8,12c-0.2-0.3-0.6-0.3-0.9-0.1
	c-0.1,0-0.1,0.1-0.1,0.1l-3.9,5.5c-0.2,0.3-0.1,0.7,0.1,0.9c0.1,0.1,0.2,0.1,0.4,0.1h2v6.2H5.5c-3.1-0.3-5.5-3-5.5-6.1
	c0-2.1,1.1-4,2.9-5c-0.2-0.4-0.2-0.9-0.2-1.4c0-2.2,1.8-4,4-4c0,0,0,0,0,0c0.5,0,0.9,0.1,1.4,0.2c1.9-4,6.6-5.7,10.6-3.8
	c2.5,1.2,4.3,3.6,4.5,6.4c3.7,0.7,6.2,4.3,5.5,8.1C27.9,22.2,25.4,24.5,22.3,24.7z"/>
</svg>
