<svg xmlns="http://www.w3.org/2000/svg" viewBox="0 0 28.619 20.824">
  <defs>
    <style>
      .cls-1 {
        opacity: 0.19;
      }
    </style>
  </defs>
  <g id="flaticon1521633425-svg" class="cls-1" transform="translate(0 -66.65)">
    <g id="Group_1153" data-name="Group 1153" transform="translate(0 66.65)">
      <path id="Path_639" data-name="Path 639" d="M22.362,87.474h-6.14v-6.2h2.029a.635.635,0,0,0,.515-1.006L14.818,74.8a.629.629,0,0,0-1.023,0L9.848,80.263a.633.633,0,0,0,.515,1.006h2.029v6.2H5.514A6.15,6.15,0,0,1,0,81.322a5.826,5.826,0,0,1,2.889-5.029,3.906,3.906,0,0,1-.24-1.363,3.961,3.961,0,0,1,3.965-3.965,3.9,3.9,0,0,1,1.357.24,7.937,7.937,0,0,1,15.081,2.62,6.9,6.9,0,0,1-.69,13.649Z" transform="translate(0 -66.65)"/>
    </g>
  </g>
</svg>
