<svg version="1.1" id="Layer_1" xmlns="http://www.w3.org/2000/svg" xmlns:xlink="http://www.w3.org/1999/xlink" x="0px" y="0px"
	 viewBox="0 0 48 48" style="enable-background:new 0 0 48 48;" xml:space="preserve" fill="#C1C1C1">
<path d="M24.5,23c4.7,0,8.5-4.3,8.5-9.5S31.8,4,24.5,4S16,8.3,16,13.5S19.8,23,24.5,23z M8,39.5C8,38.5,8,39.2,8,39.5z
	 M39,39.5C39,39.3,39,38.5,39,39.5z M39,38.3c-0.2-9.1-1.4-11.7-11-13.3c0,0-1.4,1.6-4.5,1.6S19,25,19,25C9.5,26.6,8.2,29.2,8,38
	c0,0.7,0,0.8,0,0.7l0,1c0,0,2.3,4.4,15.5,4.4C36.7,44,39,39.6,39,39.6l0-0.7C39,39,39,38.9,39,38.3z"/>
</svg>
