<svg xmlns="http://www.w3.org/2000/svg" width="28" height="28" viewBox="0 0 28 28">
    <g fill="none" fill-rule="evenodd">
        <path fill="#FFF" d="M-361-495H999v2188H-361z"/>
        <path fill="#03A9FF" d="M16.223 21.753a2.255 2.255 0 0 1 1.422-2.09 2.357 2.357 0 0 1 2.524.485c.663.644.862 1.614.505 2.458A2.314 2.314 0 0 1 18.536 24a2.335 2.335 0 0 1-1.635-.655 2.219 2.219 0 0 1-.678-1.592zm-6.914 0c0-1.235 1.022-2.238 2.288-2.246 1.267-.009 2.303.98 2.321 2.215.018 1.234-.99 2.252-2.255 2.278-1.275 0-2.309-1.005-2.313-2.247h-.041zm9.317-3.686c-2.65.13-5.479.13-8.489 0-.935.088-1.476-1.168-1.755-1.528l-3.97-7.916a.715.715 0 0 0-.738-.448H1.55A.59.59 0 0 1 1 7.599V6.552A.59.59 0 0 1 1.55 6h3.69c.36.005.683.22.82.544l.46.983a.878.878 0 0 0 .82.544h16.724c.279.024.536.158.71.37a.982.982 0 0 1 .217.758c.007.179-.25.574-.279.631l-3.907 6.978c-.733 1.441-.664 1.134-2.179 1.259z"/>
        <path fill="#FFF" fill-rule="nonzero" d="M20.809 10.37l-.93-.93a.632.632 0 0 0-.464-.19.633.633 0 0 0-.465.19l-4.483 4.49-2.01-2.016a.633.633 0 0 0-.464-.19.633.633 0 0 0-.465.19l-.929.93a.633.633 0 0 0-.191.465c0 .182.064.337.191.464l2.474 2.474.93.93a.632.632 0 0 0 .464.19.633.633 0 0 0 .465-.19l.93-.93 4.947-4.948a.633.633 0 0 0 .191-.464.633.633 0 0 0-.191-.465z"/>
    </g>
</svg>
