<svg xmlns="http://www.w3.org/2000/svg" width="32" height="32" viewBox="0 0 32 32">
    <path fill="#000" fill-rule="nonzero" d="M24.795 17.266c.763.744 1.568 1.444 2.252 2.263.303.364.589.74.808 1.162.31.6.029 1.26-.51 1.297l-3.35-.002c-.865.072-1.554-.276-2.134-.866-.464-.472-.894-.974-1.34-1.462a3.171 3.171 0 0 0-.603-.535c-.457-.297-.854-.206-1.116.27-.266.485-.326 1.022-.352 1.562-.036.788-.275.995-1.067 1.031-1.694.08-3.302-.176-4.795-1.03-1.316-.752-2.337-1.814-3.226-3.016-1.73-2.342-3.055-4.914-4.246-7.56-.268-.595-.072-.915.586-.926a91.052 91.052 0 0 1 3.28-.002c.445.007.74.261.91.68.592 1.453 1.316 2.835 2.224 4.115.242.341.489.682.84.922.389.266.684.178.867-.254.116-.274.167-.57.193-.863.087-1.01.098-2.019-.054-3.025-.093-.628-.447-1.035-1.075-1.154-.32-.06-.272-.18-.117-.362.269-.315.522-.511 1.027-.511h3.787c.596.118.729.385.81.984l.003 4.201c-.006.232.116.92.535 1.074.334.11.555-.158.756-.37.907-.961 1.554-2.097 2.132-3.273a21.35 21.35 0 0 0 .69-1.591c.16-.398.408-.594.857-.586l3.644.004c.108 0 .218.001.322.02.615.104.783.368.593.967-.299.94-.88 1.722-1.449 2.51-.608.84-1.258 1.65-1.86 2.495-.554.772-.51 1.16.178 1.831z" opacity=".22"/>
</svg>
