<?xml version="1.0" encoding="utf-8"?>
<!-- Generator: Adobe Illustrator 22.1.0, SVG Export Plug-In . SVG Version: 6.00 Build 0)  -->
<svg version="1.1"
	 id="Layer_1" inkscape:version="0.91 r13725" sodipodi:docname="YouTube_full-color_icon (2017).svg" xmlns:cc="http://creativecommons.org/ns#" xmlns:dc="http://purl.org/dc/elements/1.1/" xmlns:inkscape="http://www.inkscape.org/namespaces/inkscape" xmlns:rdf="http://www.w3.org/1999/02/22-rdf-syntax-ns#" xmlns:sodipodi="http://sodipodi.sourceforge.net/DTD/sodipodi-0.dtd" xmlns:svg="http://www.w3.org/2000/svg"
	 xmlns="http://www.w3.org/2000/svg" xmlns:xlink="http://www.w3.org/1999/xlink" x="0px" y="0px" viewBox="0 0 71.4 71.4"
	 style="enable-background:new 0 0 71.4 71.4;" xml:space="preserve">
<style type="text/css">
	.st0{fill:#C7C7C7;}
</style>
<path class="st0" d="M60.6,23.1c-0.6-2.2-2.3-4-4.6-4.6c-4.1-1.1-20.4-1.1-20.4-1.1s-16.3,0-20.4,1.1c-2.2,0.6-4,2.4-4.6,4.7
	c-1.1,4.1-1.1,12.6-1.1,12.6s0,8.5,1.1,12.6c0.6,2.2,2.3,4,4.6,4.6C19.4,54,35.7,54,35.7,54s16.3,0,20.4-1.1c2.2-0.6,4-2.3,4.6-4.6
	c1.1-4.1,1.1-12.6,1.1-12.6S61.7,27.2,60.6,23.1z M30.4,43.5V27.8L44,35.7L30.4,43.5z"/>
</svg>
