<?xml version="1.0" encoding="utf-8"?>
<!-- Generator: Adobe Illustrator 22.1.0, SVG Export Plug-In . SVG Version: 6.00 Build 0)  -->
<svg version="1.1" id="Layer_1" xmlns="http://www.w3.org/2000/svg" xmlns:xlink="http://www.w3.org/1999/xlink" x="0px" y="0px"
	 viewBox="0 0 15 15" style="enable-background:new 0 0 15 15;" xml:space="preserve" fill="#333333">
<path d="M6.2,8.5v2.8h1.4c0.8,0,1.4-0.6,1.5-1.4c0-0.8-0.6-1.4-1.4-1.5c0,0-0.1,0-0.1,0H6.2z M10.4,6.7
	c1.8,1.5,2,4.2,0.5,6c-0.8,0.9-2,1.5-3.2,1.5H3.4V0.9h3.8c2.1,0,3.8,1.7,3.8,3.8C10.9,5.4,10.7,6.1,10.4,6.7L10.4,6.7z M6.2,3.8v1.9
	h0.9c0.5,0,1-0.4,1-0.9s-0.4-1-0.9-1c0,0,0,0-0.1,0C7.2,3.8,6.2,3.8,6.2,3.8z"/>
</svg>
