<?xml version="1.0" encoding="utf-8"?>
<!-- Generator: Adobe Illustrator 22.1.0, SVG Export Plug-In . SVG Version: 6.00 Build 0)  -->
<svg version="1.1" id="Layer_1" xmlns="http://www.w3.org/2000/svg" xmlns:xlink="http://www.w3.org/1999/xlink" x="0px" y="0px"
	 viewBox="0 0 14 14" style="enable-background:new 0 0 14 14;" xml:space="preserve" fill="#333333">
<path d="M8,5C7.7,4.8,7.3,4.9,7.1,5.2c0,0,0,0,0,0C6.9,5.5,7,5.9,7.3,6.1c0,0,0,0,0,0c0.6,0.4,1,1,1,1.7
	c0,0.6-0.2,1.1-0.6,1.5l-2.5,2.5c-0.9,0.8-2.2,0.7-2.9-0.2c-0.7-0.8-0.7-2,0-2.8l1.2-1.2c0.3-0.2,0.3-0.6,0-0.9
	c-0.2-0.3-0.6-0.3-0.9,0c0,0,0,0,0,0L1.3,8c-0.6,0.6-1,1.5-1,2.3c0,1.8,1.5,3.3,3.3,3.3c0.9,0,1.7-0.3,2.3-1l2.5-2.5
	c0.6-0.6,1-1.5,1-2.3C9.5,6.7,8.9,5.7,8,5L8,5z M10.3,0.4c-0.9,0-1.7,0.3-2.3,1L5.5,3.8c-0.6,0.6-1,1.5-1,2.3C4.5,7.3,5.1,8.3,6,9
	c0.3,0.2,0.7,0.1,0.9-0.2c0,0,0,0,0,0C7.1,8.5,7,8.1,6.7,7.9c0,0,0,0,0,0C5.7,7.3,5.5,6,6.1,5.1c0.1-0.1,0.2-0.2,0.3-0.4l2.5-2.5
	c0.8-0.8,2.1-0.8,2.9,0c0.4,0.4,0.6,0.9,0.6,1.5c0,0.6-0.2,1.1-0.6,1.5l-1.2,1.2c-0.3,0.2-0.3,0.6,0,0.9c0.2,0.3,0.6,0.3,0.9,0
	c0,0,0,0,0,0L12.7,6c0.6-0.6,1-1.5,1-2.3C13.6,1.8,12.2,0.4,10.3,0.4z"/>
</svg>
