<?xml version="1.0" encoding="utf-8"?>
<!-- Generator: Adobe Illustrator 22.1.0, SVG Export Plug-In . SVG Version: 6.00 Build 0)  -->
<svg version="1.1" id="Layer_1" xmlns="http://www.w3.org/2000/svg" xmlns:xlink="http://www.w3.org/1999/xlink" x="0px" y="0px"
	 viewBox="0 0 15 15" style="enable-background:new 0 0 15 15;" xml:space="preserve" fill="#333333">
<path d="M11.2,0.7H7.9l-1.6,5h1.1c0.4,0,0.8,0.2,1,0.5l0.1-0.2l1-3.1l0.3,0l1.1,3.3H8.3c0.2,0.2,0.2,0.5,0.2,0.7v1.4
	h2.7l0.5,1.8h2.5L11.2,0.7z M8.1,13c-0.1-0.4-0.2-1.8-0.2-2.8c0-0.1,0-0.2-0.1-0.4c0.1-0.1,0.1-0.3,0.1-0.4V7.4
	c0-0.6-0.5-1.1-1.1-1.1h-1c0-0.2,0-0.4,0-0.7c0-0.2,0-0.5,0.1-0.7c0-0.1,0.1-0.2,0.1-0.3l0,0c0,0,0,0,0-0.1c0.4-0.8,0.1-1.8-0.7-2.2
	C5.1,2.3,4.8,2.3,4.6,2.3C3.7,2.3,3,3,3,3.9C3,4.2,3,4.4,3.1,4.6c0,0,0,0,0,0.1c0,0,0,0.1,0.1,0.3c0,0.2,0.1,0.5,0.1,0.7
	c0,0.2,0,0.4,0,0.7h-1c-0.6,0-1.1,0.5-1.1,1.1v1.9c0,0.2,0,0.3,0.1,0.4C1.3,9.9,1.2,10,1.2,10.1c0,1.1-0.1,2.4-0.2,2.8
	c-0.2,0.2-0.3,0.5-0.3,0.7c0.1,0.6,0.8,0.6,1,0.6c0.5,0,1.4-0.1,1.4-0.1c0.1,0,0.1,0,0.2,0c0.1,0,0.1,0,0.2,0l1,0l1,0
	c0.1,0,0.1,0,0.2,0c0.1,0,0.1,0,0.2,0c0,0,0.9,0.1,1.4,0.1c0.2,0,0.9,0,1-0.6C8.4,13.4,8.3,13.1,8.1,13z M6,13.5l-0.4-1.7l-0.2,1.7
	l-1.9,0l-0.4-1v1c0,0-2,0.2-1.6,0s0.4-3.4,0.4-3.4h5.2c0,0,0,3.2,0.4,3.4C8,13.7,6,13.5,6,13.5z"/>
</svg>
