<?xml version="1.0" encoding="utf-8"?>
<!-- Generator: Adobe Illustrator 17.0.0, SVG Export Plug-In . SVG Version: 6.00 Build 0)  -->
<!DOCTYPE svg PUBLIC "-//W3C//DTD SVG 1.1//EN" "http://www.w3.org/Graphics/SVG/1.1/DTD/svg11.dtd">
<svg version="1.1" id="Layer_1" xmlns="http://www.w3.org/2000/svg" xmlns:xlink="http://www.w3.org/1999/xlink" x="0px" y="0px"
	 width="595.28px" height="103.533px" viewBox="-2.883 174.779 595.28 103.533"
	 enable-background="new -2.883 174.779 595.28 103.533" xml:space="preserve">
<g>
	<path fill="#000000" d="M580.103,278.311H50.175c-1.053,0.026-2.083-0.316-2.91-0.969l-50.147-51.119l50.147-50.144
		c0.707-0.872,1.789-1.353,2.91-1.294h529.929c3.216-0.062,6.336,1.094,8.737,3.235c2.208,2.12,3.487,5.029,3.557,8.089v80.233
		C592.257,273.02,586.783,278.35,580.103,278.311z"/>
	<path fill="#FFFFFF" d="M529.312,248.869c-0.647,1.888-1.633,3.642-2.91,5.176c-1.989,2.164-4.827,3.346-7.765,3.235
		c-3.335,0.116-6.502-1.467-8.412-4.204c-1.308-1.655-1.996-3.715-1.944-5.823c-0.073-1.814,0.377-3.61,1.294-5.176l19.736-40.439
		c1.725-3.757,5.578-6.071,9.706-5.829c4.183-0.112,8.018,2.317,9.706,6.145l20.058,40.764c0.73,1.523,1.169,3.17,1.294,4.854
		c-0.112,2.331-0.898,4.578-2.263,6.47c-2.081,2.262-5.013,3.553-8.087,3.56c-2.465,0.095-4.881-0.71-6.795-2.266
		c-1.756-1.659-3.184-3.635-4.207-5.823h-19.411V248.869z"/>
	<path fill="#FFFFFF" d="M498.576,239.488c2.99,2.055,4.8,5.431,4.854,9.059c-0.007,3.075-1.297,6.007-3.56,8.089
		c-1.711,1.682-4.084,2.513-6.47,2.266c-3.301-0.384-6.377-1.865-8.736-4.204c-4.863,2.67-10.304,4.113-15.851,4.204
		c-18.024,0.12-32.764-14.332-32.999-32.355c0.034-6.244,1.951-12.333,5.501-17.47c3.547-5.228,8.473-9.371,14.232-11.969
		c4.285-1.849,8.924-2.732,13.588-2.588c8.084-0.134,15.928,2.75,21.999,8.089c7.123,5.918,11.268,14.68,11.325,23.941
		C501.613,230.985,500.312,235.321,498.576,239.488z"/>
	<path fill="#FFFFFF" d="M429.011,208.108v37.853c-0.016,2.797-0.922,5.517-2.588,7.765
		c-1.954,2.251-4.784,3.548-7.764,3.56c-2.909-0.04-5.69-1.2-7.765-3.238c-1.996-2.321-2.934-5.37-2.588-8.412v-37.529
		c-0.3-3.237,0.624-6.469,2.588-9.059c4.247-4.288,11.166-4.322,15.454-0.075c0.025,0.025,0.05,0.05,0.075,0.075
		C428.388,201.639,429.311,204.871,429.011,208.108z"/>
	<path fill="#FFFFFF" d="M393.108,233.343l4.854,7.44c1.271,1.918,1.947,4.169,1.941,6.47
		c0.013,2.665-1.034,5.225-2.91,7.117c-1.985,1.937-4.67,2.987-7.442,2.91c-3.42,0.138-6.644-1.598-8.412-4.529l-8.412-13.913v8.412
		c0.013,2.665-1.036,5.226-2.913,7.117c-1.984,1.936-4.668,2.986-7.44,2.91c-3.127,0.275-6.178-1.068-8.087-3.56
		c-1.819-2.539-2.731-5.616-2.588-8.737v-37.52c0-7.765,4.207-11.647,12.941-11.647h13.266c4.245,0.034,8.394,1.267,11.969,3.557
		c3.589,2.23,6.41,5.504,8.084,9.384c1.257,2.741,1.918,5.718,1.941,8.734C399.856,223.471,397.408,229.184,393.108,233.343z"/>
	<path fill="#FFFFFF" d="M313.196,194.195c6.162-0.041,12.213,1.64,17.47,4.854c5.114,3.22,9.34,7.669,12.294,12.941
		c4.88,9.526,4.514,20.894-0.969,30.086c-9.437,15.969-30.032,21.265-46.001,11.828c-5.311-3.138-9.654-7.678-12.555-13.122
		c-2.315-4.621-3.534-9.714-3.56-14.882c-0.036-4.48,0.96-8.908,2.91-12.941c2.642-5.661,6.927-10.396,12.297-13.588
		C300.502,195.951,306.788,194.155,313.196,194.195z"/>
	<path fill="#FFFFFF" d="M242.994,214.564h-5.498c-2.664,0.097-5.284-0.701-7.442-2.266
		c-2.12-1.596-3.328-4.126-3.235-6.778c-0.072-1.711,0.38-3.403,1.294-4.851c0.884-1.493,2.255-2.637,3.882-3.238
		c3.688-0.981,7.519-1.314,11.322-0.984h21.03c3.375-0.32,6.78,0.01,10.031,0.972c1.656,0.704,3.104,1.822,4.204,3.247
		c0.968,1.442,1.527,3.12,1.619,4.854c-0.016,2.887-1.32,5.617-3.557,7.442c-2.33,1.713-5.205,2.518-8.087,2.263h-4.857v30.397
		c0.089,2.68-0.465,5.343-1.616,7.765c-1.905,2.948-5.226,4.67-8.734,4.529c-3.376,0.242-6.651-1.214-8.734-3.882
		c-1.616-2.367-2.307-5.244-1.941-8.087L242.994,214.564z"/>
	<path fill="#FFFFFF" d="M187.673,233.99c2.718,0.191,5.313,1.206,7.44,2.91c2.03,1.668,4.327,2.981,6.795,3.882
		c0.697-0.016,1.374-0.241,1.941-0.647c0.497-0.516,0.735-1.23,0.647-1.941c-0.083-1.075-0.687-2.041-1.616-2.588
		c-3.051-1.38-6.185-2.568-9.384-3.557c-9.059-3.235-13.913-9.059-13.913-17.795c-0.209-5.992,2.582-11.694,7.442-15.204
		c4.575-3.38,10.168-5.094,15.851-4.857c5.009-0.016,9.928,1.325,14.235,3.882c3.538,1.96,5.759,5.661,5.823,9.706
		c0.092,2.268-0.722,4.479-2.263,6.145c-1.454,1.662-3.629,2.507-5.823,2.263c-3.101-0.296-6.037-1.536-8.412-3.552
		c-1.128-1.18-2.601-1.972-4.207-2.263c-0.712-0.088-1.425,0.15-1.941,0.647c-0.647,0.325-0.647,1.294-0.647,1.941
		c0,1.619,1.941,2.91,6.148,3.882c4.793,1.293,9.294,3.489,13.263,6.47c4.206,3.63,6.479,9.014,6.148,14.56
		c0.344,6.125-2.311,12.034-7.117,15.845c-4.956,3.633-11.007,5.459-17.145,5.176c-6.289,0.276-12.474-1.672-17.47-5.501
		c-3.39-2.367-5.436-6.219-5.498-10.353c0.024-2.404,0.947-4.713,2.588-6.47C182.59,234.968,185.085,234.062,187.673,233.99z"/>
	<path fill="#FFFFFF" d="M76.381,196.136v3.882c0.071,1.041,0.9,1.87,1.941,1.941h7.44
		c1.125-0.089,2.176,0.568,2.588,1.619l13.913,28.47c0.969,1.294,2.913,5.823,6.148,5.501h29.764
		c2.86,0.283,5.585-1.275,6.793-3.882l14.56-25.882c0.639-0.576,0.993-1.403,0.969-2.263c0.172-1.963-1.273-3.697-3.235-3.882
		H98.706c-1.278,0.013-2.433-0.757-2.913-1.941l-1.616-3.56c-0.479-1.185-1.635-1.957-2.913-1.944H78.322
		C77.281,194.266,76.452,195.095,76.381,196.136z"/>
	<circle fill="#FFFFFF" cx="46.939" cy="226.547" r="9.706"/>
	<circle fill="#FFFFFF" cx="113.588" cy="250.813" r="8.089"/>
	<circle fill="#FFFFFF" cx="137.85" cy="250.813" r="8.089"/>
</g>
</svg>
