<?xml version="1.0" encoding="utf-8"?>
<!-- Generator: Adobe Illustrator 17.0.0, SVG Export Plug-In . SVG Version: 6.00 Build 0)  -->
<!DOCTYPE svg PUBLIC "-//W3C//DTD SVG 1.1//EN" "http://www.w3.org/Graphics/SVG/1.1/DTD/svg11.dtd">
<svg version="1.1" id="Capa_1" xmlns="http://www.w3.org/2000/svg" xmlns:xlink="http://www.w3.org/1999/xlink" x="0px" y="0px"
	 width="512px" height="329.136px" viewBox="0 91.432 512 329.136" enable-background="new 0 91.432 512 329.136"
	 xml:space="preserve">
<g>
	<path fill="#939393" d="M506.288,236.29c-26.67-43.619-62.531-78.666-107.576-105.142C353.664,104.671,306.096,91.432,256,91.432
		s-97.666,13.235-142.714,39.716C68.237,157.623,32.379,192.671,5.712,236.29C1.904,242.955,0,249.527,0,256.005
		c0,6.478,1.904,13.05,5.712,19.713c26.666,43.621,62.525,78.671,107.574,105.141c45.048,26.479,92.619,39.709,142.714,39.709
		c50.097,0,97.665-13.186,142.712-39.565c45.045-26.38,80.911-61.477,107.576-105.285c3.809-6.664,5.712-13.233,5.712-19.713
		C512,249.527,510.097,242.955,506.288,236.29z M194.71,158.146c17.046-17.046,37.474-25.573,61.287-25.573
		c3.808,0,7.048,1.337,9.716,4.002c2.664,2.666,4.003,5.905,4.003,9.714c0,3.812-1.339,7.049-3.997,9.711
		c-2.664,2.669-5.906,4.002-9.715,4.002c-16.38,0-30.384,5.812-42.002,17.429c-11.622,11.623-17.429,25.622-17.429,42.002
		c0,3.814-1.337,7.049-4.002,9.717c-2.669,2.67-5.905,4.002-9.714,4.002c-3.812,0-7.049-1.335-9.717-4.002
		c-2.669-2.668-4.002-5.907-4.002-9.717C169.139,195.625,177.665,175.193,194.71,158.146z M380.145,349.295
		c-38.192,23.137-79.572,34.712-124.145,34.712c-44.572,0-85.952-11.568-124.142-34.712s-69.952-54.24-95.285-93.29
		c28.952-44.954,65.238-78.575,108.857-100.857c-11.618,19.806-17.43,41.237-17.43,64.283c0,35.242,12.526,65.377,37.571,90.428
		c25.045,25.051,55.191,37.571,90.428,37.571c35.24,0,65.377-12.527,90.428-37.571C371.479,284.815,384,254.673,384,219.431
		c0-23.046-5.812-44.479-17.432-64.283c43.617,22.281,79.904,55.906,108.856,100.857
		C450.096,295.056,418.337,326.151,380.145,349.295z"/>
</g>
</svg>
