<svg xmlns="http://www.w3.org/2000/svg" viewBox="12 -2051 207 36">
  <defs>
    <style>
      .cls-1, .cls-2 {
        fill-rule: evenodd;
      }

      .cls-2, .cls-3 {
        fill: #fff;
      }
    </style>
  </defs>
  <g id="Group_663" data-name="Group 663" transform="translate(12 -2051)">
    <path id="Path_313" data-name="Path 313" class="cls-1" d="M202.725,36H18.45a1.57,1.57,0,0,1-1.012-.337L0,17.887,17.438.45A1.221,1.221,0,0,1,18.45,0H202.725a4.435,4.435,0,0,1,3.038,1.125A4.028,4.028,0,0,1,207,3.938v27.9A4.251,4.251,0,0,1,202.725,36Z"/>
    <path id="Path_314" data-name="Path 314" class="cls-2" d="M165.313,24.951a5.705,5.705,0,0,1-1.012,1.8,3.489,3.489,0,0,1-2.7,1.125,3.422,3.422,0,0,1-2.925-1.462A3.141,3.141,0,0,1,158,24.389a3.3,3.3,0,0,1,.45-1.8l6.863-14.062A3.489,3.489,0,0,1,168.688,6.5a3.584,3.584,0,0,1,3.375,2.137l6.975,14.175a4.714,4.714,0,0,1,.45,1.688,4.187,4.187,0,0,1-.787,2.25,3.834,3.834,0,0,1-2.812,1.238,3.531,3.531,0,0,1-2.363-.788,6.678,6.678,0,0,1-1.463-2.025h-6.75Z" transform="translate(19.75 0.811)"/>
    <path id="Path_315" data-name="Path 315" class="cls-2" d="M157.425,21.737a3.893,3.893,0,0,1,1.688,3.15,3.834,3.834,0,0,1-1.238,2.813,2.8,2.8,0,0,1-2.25.788,5.162,5.162,0,0,1-3.038-1.462,11.862,11.862,0,0,1-5.512,1.462A11.4,11.4,0,0,1,135.6,17.237a10.789,10.789,0,0,1,1.913-6.075A11.886,11.886,0,0,1,142.462,7a11.066,11.066,0,0,1,4.725-.9,11.3,11.3,0,0,1,7.65,2.813,10.909,10.909,0,0,1,3.938,8.325A22.814,22.814,0,0,1,157.425,21.737Z" transform="translate(16.95 0.763)"/>
    <path id="Path_316" data-name="Path 316" class="cls-2" d="M134.3,10.775V23.938a4.577,4.577,0,0,1-.9,2.7,3.594,3.594,0,0,1-2.7,1.238A3.929,3.929,0,0,1,128,26.75a3.823,3.823,0,0,1-.9-2.925V10.775a4.522,4.522,0,0,1,.9-3.15,3.8,3.8,0,0,1,5.4,0A4.522,4.522,0,0,1,134.3,10.775Z" transform="translate(15.885 0.813)"/>
    <path id="Path_317" data-name="Path 317" class="cls-2" d="M124,19.55l1.688,2.587a4.056,4.056,0,0,1,.675,2.25,3.49,3.49,0,0,1-1.012,2.475,3.564,3.564,0,0,1-2.588,1.012,3.262,3.262,0,0,1-2.925-1.575l-2.925-4.838v2.925a3.49,3.49,0,0,1-1.013,2.475,3.564,3.564,0,0,1-2.587,1.012,3.19,3.19,0,0,1-2.812-1.238,4.838,4.838,0,0,1-.9-3.038V10.55c0-2.7,1.463-4.05,4.5-4.05h4.613a7.829,7.829,0,0,1,4.162,1.237A7.2,7.2,0,0,1,125.687,11a7.425,7.425,0,0,1,.675,3.037A7.748,7.748,0,0,1,124,19.55Z" transform="translate(13.7 0.813)"/>
    <path id="Path_318" data-name="Path 318" class="cls-2" d="M98.987,6a11.5,11.5,0,0,1,6.075,1.688,12.591,12.591,0,0,1,4.275,4.5A10.806,10.806,0,0,1,109,22.65a11.679,11.679,0,0,1-20.362-.45A11.687,11.687,0,0,1,87.4,17.025a10.149,10.149,0,0,1,1.012-4.5A10.819,10.819,0,0,1,92.688,7.8,11.665,11.665,0,0,1,98.987,6Z" transform="translate(10.925 0.75)"/>
    <path id="Path_319" data-name="Path 319" class="cls-2" d="M76.625,13H74.713a4.152,4.152,0,0,1-2.588-.788A2.826,2.826,0,0,1,71,9.855a2.93,2.93,0,0,1,.45-1.687A2.627,2.627,0,0,1,72.8,7.042,11.451,11.451,0,0,1,76.737,6.7H84.05a9.219,9.219,0,0,1,3.488.338A3.655,3.655,0,0,1,89,8.167a3.348,3.348,0,0,1,.563,1.688,3.364,3.364,0,0,1-1.237,2.588,4.134,4.134,0,0,1-2.812.787H83.825V23.8a5.835,5.835,0,0,1-.562,2.7,3.451,3.451,0,0,1-3.037,1.575,3.532,3.532,0,0,1-3.037-1.35,4.066,4.066,0,0,1-.675-2.812Z" transform="translate(8.875 0.833)"/>
    <path id="Path_320" data-name="Path 320" class="cls-2" d="M59.275,19.839a4.659,4.659,0,0,1,2.587,1.012,8.093,8.093,0,0,0,2.363,1.35,1.206,1.206,0,0,0,.675-.225.827.827,0,0,0,.225-.675,1.147,1.147,0,0,0-.562-.9A27.994,27.994,0,0,0,61.3,19.164c-3.15-1.125-4.838-3.15-4.838-6.188A6.252,6.252,0,0,1,59.05,7.689,8.67,8.67,0,0,1,64.562,6a9.635,9.635,0,0,1,4.95,1.35,3.93,3.93,0,0,1,2.025,3.375,2.97,2.97,0,0,1-.787,2.137,2.347,2.347,0,0,1-2.025.787A5.3,5.3,0,0,1,65.8,12.414a2.688,2.688,0,0,0-1.463-.787.827.827,0,0,0-.675.225c-.225.113-.225.45-.225.675,0,.563.675,1.012,2.138,1.35a13.555,13.555,0,0,1,4.612,2.25,6.2,6.2,0,0,1,2.138,5.063A6.563,6.563,0,0,1,69.85,26.7a9.357,9.357,0,0,1-5.962,1.8,9.315,9.315,0,0,1-6.075-1.913,4.473,4.473,0,0,1-1.912-3.6,3.345,3.345,0,0,1,.9-2.25A4.181,4.181,0,0,1,59.275,19.839Z" transform="translate(6.988 0.749)"/>
    <path id="Path_321" data-name="Path 321" class="cls-2" d="M24.5,6.675v1.35a.726.726,0,0,0,.675.675h2.587a.891.891,0,0,1,.9.563l4.838,9.9c.337.45,1.013,2.025,2.138,1.913h10.35a2.348,2.348,0,0,0,2.362-1.35l5.063-9a1.021,1.021,0,0,0,.337-.787,1.247,1.247,0,0,0-1.125-1.35H32.263a1.081,1.081,0,0,1-1.013-.675l-.562-1.238A1.081,1.081,0,0,0,29.675,6h-4.5A.726.726,0,0,0,24.5,6.675Z" transform="translate(3.063 0.75)"/>
    <circle id="Ellipse_59" data-name="Ellipse 59" class="cls-3" cx="3.375" cy="3.375" r="3.375" transform="translate(13.95 14.625)"/>
    <circle id="Ellipse_60" data-name="Ellipse 60" class="cls-3" cx="2.813" cy="2.813" r="2.813" transform="translate(37.688 23.625)"/>
    <circle id="Ellipse_61" data-name="Ellipse 61" class="cls-3" cx="2.813" cy="2.813" r="2.813" transform="translate(46.125 23.625)"/>
  </g>
</svg>
