<?xml version="1.0" encoding="iso-8859-1"?>
<!-- Generator: Adobe Illustrator 18.0.0, SVG Export Plug-In . SVG Version: 6.00 Build 0)  -->
<!DOCTYPE svg PUBLIC "-//W3C//DTD SVG 1.1//EN" "http://www.w3.org/Graphics/SVG/1.1/DTD/svg11.dtd">
<svg xmlns="http://www.w3.org/2000/svg" xmlns:xlink="http://www.w3.org/1999/xlink" version="1.1" id="Capa_1" x="0px" y="0px" viewBox="0 0 60 60" style="enable-background:new 0 0 60 60;" xml:space="preserve" width="512px" height="512px">
<g>
	<path d="M54,2H6C2.748,2,0,4.748,0,8v33c0,3.252,2.748,6,6,6h28.558l9.703,10.673C44.454,57.886,44.724,58,45,58   c0.121,0,0.243-0.021,0.361-0.067C45.746,57.784,46,57.413,46,57V47h8c3.252,0,6-2.748,6-6V8C60,4.748,57.252,2,54,2z M16,28   c-2.206,0-4-1.794-4-4s1.794-4,4-4s4,1.794,4,4S18.206,28,16,28z M30,28c-2.206,0-4-1.794-4-4s1.794-4,4-4s4,1.794,4,4   S32.206,28,30,28z M44,28c-2.206,0-4-1.794-4-4s1.794-4,4-4s4,1.794,4,4S46.206,28,44,28z" fill="#a7a7a7"/>
</g>
<g>
</g>
<g>
</g>
<g>
</g>
<g>
</g>
<g>
</g>
<g>
</g>
<g>
</g>
<g>
</g>
<g>
</g>
<g>
</g>
<g>
</g>
<g>
</g>
<g>
</g>
<g>
</g>
<g>
</g>
</svg>
