<?xml version="1.0" encoding="utf-8"?>
<!-- Generator: Adobe Illustrator 17.0.0, SVG Export Plug-In . SVG Version: 6.00 Build 0)  -->
<!DOCTYPE svg PUBLIC "-//W3C//DTD SVG 1.1//EN" "http://www.w3.org/Graphics/SVG/1.1/DTD/svg11.dtd">
<svg version="1.1" id="Layer_1" xmlns="http://www.w3.org/2000/svg" xmlns:xlink="http://www.w3.org/1999/xlink" x="0px" y="0px"
	 width="489.016px" height="841.89px" viewBox="53.132 0 489.016 841.89" enable-background="new 53.132 0 489.016 841.89"
	 xml:space="preserve">
<g>
	<path fill="#FFFFFF" d="M485.305,0h-375.33C78.61,0.086,53.208,25.497,53.132,56.863v728.145
		c0.075,31.369,25.474,56.786,56.843,56.882h375.33c31.379-0.054,56.8-25.484,56.843-56.863V56.863
		C542.095,25.488,516.68,0.064,485.305,0z M231.496,47.19c0.345-3.223,2.891-5.768,6.113-6.113h119.985
		c3.781,0.405,6.518,3.798,6.113,7.579c-0.345,3.223-2.891,5.768-6.113,6.113H237.609C233.828,54.365,231.091,50.971,231.496,47.19z
		 M297.64,813.449l0,0.098c-15.708-0.032-28.415-12.792-28.382-28.5s12.792-28.415,28.5-28.382
		c15.677,0.032,28.372,12.744,28.382,28.421C326.076,800.777,313.332,813.46,297.64,813.449z M502.656,736.654l-0.02,0.098H92.723
		V90.174h409.932V736.654z"/>
	<path fill="#FFFFFF" d="M230.919,347.592c19.111-0.011,34.594-15.512,34.583-34.622c-0.011-19.095-15.488-34.572-34.583-34.583
		c-0.013,0-0.026,0-0.039,0c-19.111,0.011-34.594,15.512-34.583,34.622C196.308,332.12,211.809,347.603,230.919,347.592z"/>
	<path fill="#FFFFFF" d="M364.401,347.553c19.1,0,34.583-15.483,34.583-34.583c-0.022-19.091-15.492-34.562-34.583-34.583
		c-19.1,0-34.583,15.483-34.583,34.583S345.301,347.553,364.401,347.553z"/>
</g>
<path fill="#FFFFFF" d="M421.499,465.818c-0.032,0.032-0.065,0.065-0.097,0.097c-68.41,68.357-179.282,68.313-247.638-0.097
	c-5.574-5.58-14.617-5.584-20.196-0.01c-5.58,5.574-5.584,14.617-0.01,20.196c38.101,38.378,89.985,59.899,144.064,59.758
	c54.082,0.127,105.966-21.391,144.084-59.758c5.574-5.58,5.57-14.622-0.01-20.196C436.115,460.234,427.073,460.238,421.499,465.818z
	"/>
</svg>
