<svg xmlns="http://www.w3.org/2000/svg" viewBox="1376.752 -7661 16.001 15.879">
  <defs>
    <style>
      .cls-1 {
        fill: #fff;
      }
    </style>
  </defs>
  <path id="XMLID_1102_" class="cls-1" d="M957.476,1351.2a5.722,5.722,0,0,1,5.769,5.647,5.608,5.608,0,0,1-1.228,3.483l5.472,5.377a.8.8,0,0,1,0,1.137.817.817,0,0,1-.577.235.828.828,0,0,1-.6-.235l-5.472-5.377a5.788,5.788,0,0,1-3.35,1.047,5.658,5.658,0,1,1-.019-11.314Zm0,9.888a4.223,4.223,0,1,0-4.281-4.223A4.255,4.255,0,0,0,957.476,1361.088Zm-2.885-4.15a.635.635,0,0,0,.633.541h.093a.644.644,0,0,0,.558-.7c-.13-.938.949-1.425,1-1.444a.626.626,0,0,0,.316-.83.681.681,0,0,0-.856-.325A2.792,2.792,0,0,0,954.591,1356.938Zm1.358,1.371a.748.748,0,0,0-.223.505.646.646,0,0,0,.223.505.8.8,0,0,0,.521.217.715.715,0,0,0,.521-.217.748.748,0,0,0,.223-.505.673.673,0,0,0-.223-.505.794.794,0,0,0-.521-.216A.747.747,0,0,0,955.95,1358.309Z" transform="translate(425.027 -9012.199)"/>
</svg>
