<svg version="1.1" id="Capa_1" xmlns="http://www.w3.org/2000/svg" xmlns:xlink="http://www.w3.org/1999/xlink" x="0px" y="0px"
	 viewBox="0 0 512 512" enable-background="new 0 0 512 512" xml:space="preserve" fill="#E3E3E3">
<path d="M451.4,89.2c-24.4-24.4-56.7-37.7-91.2-37.7s-66.9,13.4-91.3,37.8L256.1,102l-12.9-12.9
	c-24.4-24.4-56.9-37.9-91.4-37.9c-34.4,0-66.8,13.4-91.1,37.7c-24.4,24.4-37.8,56.8-37.7,91.3c0,34.5,13.5,66.8,37.9,91.2
	l185.5,185.5c2.6,2.6,6,4,9.4,4s6.8-1.3,9.4-3.9l185.9-185.2c24.4-24.4,37.8-56.8,37.8-91.3C489.1,146,475.8,113.6,451.4,89.2z
	 M432.4,252.9L255.9,428.7L79.7,252.6c-19.4-19.4-30-45-30-72.4s10.6-53.1,29.9-72.3c19.3-19.3,45-29.9,72.2-29.9
	c27.4,0,53.1,10.7,72.5,30l22.3,22.3c5.2,5.2,13.6,5.2,18.9,0l22.1-22.1c19.4-19.4,45.1-30,72.4-30s53,10.7,72.3,29.9
	c19.4,19.4,29.9,45,29.9,72.4C462.4,207.8,451.8,233.5,432.4,252.9z"/>
</svg>
