<?xml version="1.0" encoding="utf-8"?>
<!-- Generator: Adobe Illustrator 22.1.0, SVG Export Plug-In . SVG Version: 6.00 Build 0)  -->
<svg version="1.1" id="Layer_1" xmlns="http://www.w3.org/2000/svg" xmlns:xlink="http://www.w3.org/1999/xlink" x="0px" y="0px"
	 viewBox="0 0 294.7 64.3" style="enable-background:new 0 0 294.7 64.3;" xml:space="preserve" fill="#FFFFFF">
<path d="M-7.2,0h308.8v64.3H-7.2V0z M29.2,48.5l16.4,8.6l-2.9-18.2l13.6-12.9l-18.6-2.5L29.2,7.1L21,23.6L2.8,26.1
	l13.6,12.9l-3.6,18.2L29.2,48.5z M88.5,48.5l16.4,8.6l-3.2-18.2l13.6-12.9l-18.6-2.5L88.5,7.1l-8.2,16.4l-18.6,2.5l13.2,12.9
	l-3.2,18.2L88.5,48.5z M147,48.5l16.4,8.6l-2.9-18.2l13.6-12.9l-18.6-2.5L147,7.1l-8.2,16.4l-18.6,2.5l13.6,12.9l-3.2,18.2L147,48.5
	z M206.3,48.5l16.4,8.6l-3.2-18.2l13.6-12.9l-18.6-2.5l-8.2-16.4l-8.2,16.4l-18.6,2.5l13.2,12.9l-3.2,18.2L206.3,48.5z M264.8,48.5
	l16.4,8.6l-2.9-18.2L292,26.1l-18.6-2.5l-8.6-16.4l-8.2,16.4l-18.6,2.5l13.6,12.9l-3.2,18.2L264.8,48.5z"/>
</svg>
