<svg version="1.1" id="Layer_1" xmlns="http://www.w3.org/2000/svg" xmlns:xlink="http://www.w3.org/1999/xlink" x="0px" y="0px"
	 viewBox="0 0 82.5 14" enable-background="new 0 0 82.5 14" xml:space="preserve" fill="#FFFFFF">
<path d="M0,0h82.5v14H0C0,14,0,0,0,0z M8.2,11.6l4.6,2.4L12,8.9l3.8-3.6l-5.2-0.7L8.2,0L5.9,4.6L0.8,5.3l3.8,3.6
	l-1,5.1L8.2,11.6z M24.8,11.6l4.6,2.4l-0.9-5.1l3.8-3.6l-5.2-0.7L24.8,0l-2.3,4.6l-5.2,0.7L21,8.9L20.1,14L24.8,11.6z M41.2,11.6
	l4.6,2.4L45,8.9l3.8-3.6l-5.2-0.7L41.2,0l-2.3,4.6l-5.2,0.7l3.8,3.6L36.6,14L41.2,11.6z M57.8,11.6l4.6,2.4l-0.9-5.1l3.8-3.6
	l-5.2-0.7L57.8,0l-2.3,4.6l-5.2,0.7L54,8.9L53.1,14L57.8,11.6z M74.2,11.6l4.6,2.4L78,8.9l3.8-3.6l-5.2-0.7L74.2,0l-2.3,4.6
	l-5.2,0.7l3.8,3.6L69.6,14L74.2,11.6z"/>
</svg>
