<?xml version="1.0" encoding="utf-8"?>
<!-- Generator: Adobe Illustrator 22.1.0, SVG Export Plug-In . SVG Version: 6.00 Build 0)  -->
<svg version="1.1" id="Layer_1" xmlns="http://www.w3.org/2000/svg" xmlns:xlink="http://www.w3.org/1999/xlink" x="0px" y="0px"
	 viewBox="0 0 86.5 18" enable-background="new 0 0 86.5 18" xml:space="preserve">
<path fill="#FFFFFF" d="M0,0h86.5v18H0V0z M10.2,13.6l4.6,2.4L14,10.9l3.8-3.6l-5.2-0.7L10.2,2L7.9,6.6L2.8,7.3l3.8,3.6l-1,5.1
	L10.2,13.6z M26.8,13.6l4.6,2.4l-0.9-5.1l3.8-3.6l-5.2-0.7L26.8,2l-2.3,4.6l-5.2,0.7l3.7,3.6L22.1,16L26.8,13.6z M43.2,13.6l4.6,2.4
	L47,10.9l3.8-3.6l-5.2-0.7L43.2,2l-2.3,4.6l-5.2,0.7l3.8,3.6L38.6,16L43.2,13.6z M59.8,13.6l4.6,2.4l-0.9-5.1l3.8-3.6l-5.2-0.7
	L59.8,2l-2.3,4.6l-5.2,0.7l3.7,3.6L55.1,16L59.8,13.6z M76.2,13.6l4.6,2.4L80,10.9l3.8-3.6l-5.2-0.7L76.2,2l-2.3,4.6l-5.2,0.7
	l3.8,3.6L71.6,16L76.2,13.6z"/>
</svg>
