<?xml version="1.0" encoding="UTF-8" ?>
<!DOCTYPE svg PUBLIC "-//W3C//DTD SVG 1.1//EN" "http://www.w3.org/Graphics/SVG/1.1/DTD/svg11.dtd">
<svg width="240pt" height="240pt" viewBox="0 0 240 240" version="1.1" xmlns="http://www.w3.org/2000/svg">
<g id="#a7a7a7ff">
<path fill="#a7a7a7" opacity="1.00" d=" M 101.02 69.04 C 103.94 65.96 108.68 66.39 112.20 68.15 C 112.34 70.06 112.53 71.97 112.74 73.88 C 110.09 73.14 106.73 72.38 104.51 74.55 C 101.54 77.34 101.29 81.74 101.40 85.57 C 115.01 84.65 128.62 83.77 142.22 82.72 C 156.87 91.64 172.07 99.62 187.17 107.75 C 198.51 114.32 210.16 120.36 221.58 126.80 C 221.59 132.10 222.21 137.36 222.70 142.63 C 220.35 142.77 218.00 142.96 215.67 143.21 C 216.25 150.21 216.58 157.22 217.14 164.22 C 219.50 165.50 221.85 166.80 224.21 168.08 C 224.46 170.08 224.83 172.06 225.08 174.05 C 207.87 165.02 191.00 155.33 173.83 146.23 C 162.80 146.48 151.79 147.82 140.76 148.24 C 138.30 147.22 136.07 145.72 133.73 144.47 C 134.49 152.95 134.86 161.46 135.59 169.95 C 137.98 171.19 140.34 172.48 142.68 173.82 C 142.78 175.80 142.95 177.78 143.20 179.75 C 106.89 159.74 70.47 139.93 34.18 119.88 C 23.88 113.96 17.91 102.49 15.99 91.07 C 15.11 85.44 15.41 78.78 19.63 74.49 C 22.57 71.61 27.07 72.18 30.52 73.71 C 30.71 75.69 30.93 77.67 31.22 79.64 C 28.76 78.81 25.84 78.01 23.55 79.71 C 20.42 82.03 19.64 86.34 19.78 90.01 C 20.58 99.78 25.61 109.79 34.54 114.47 C 46.42 120.97 58.22 127.59 70.15 133.98 C 69.42 125.55 68.96 117.10 68.34 108.66 C 65.83 107.27 63.31 105.89 60.82 104.45 C 60.50 99.16 60.16 93.87 59.70 88.59 C 72.30 87.56 84.91 86.64 97.54 86.01 C 96.98 80.26 96.74 73.55 101.02 69.04 M 73.59 92.88 C 77.64 95.04 81.54 97.50 85.73 99.39 C 108.21 98.15 130.67 96.13 153.17 95.02 C 149.18 92.57 145.07 90.29 140.88 88.21 C 118.44 89.40 96.03 91.49 73.59 92.88 M 64.32 96.56 C 64.42 98.04 64.53 99.52 64.64 101.01 C 69.57 103.66 74.47 106.37 79.38 109.07 C 79.32 107.98 79.22 105.82 79.17 104.74 C 74.23 101.99 69.27 99.28 64.32 96.56 M 90.03 101.90 C 95.40 104.80 100.67 107.90 106.11 110.65 C 128.71 109.47 151.29 107.59 173.88 106.16 C 168.50 103.33 163.26 100.24 157.85 97.48 C 135.23 98.60 112.65 100.60 90.03 101.90 M 83.34 106.96 C 83.40 108.40 83.47 109.85 83.52 111.30 C 88.45 114.12 93.49 116.74 98.43 119.55 C 98.32 118.06 98.22 116.57 98.12 115.09 C 93.17 112.42 88.24 109.71 83.34 106.96 M 110.80 113.39 C 115.98 116.00 120.93 119.04 126.12 121.62 C 148.72 120.45 171.30 118.55 193.89 117.15 C 189.08 114.56 184.31 111.89 179.51 109.28 C 178.17 108.34 176.50 108.77 174.99 108.82 C 153.60 110.47 132.17 111.59 110.80 113.39 M 72.51 110.88 C 73.11 119.36 73.64 127.84 74.28 136.31 C 93.30 146.79 112.38 157.16 131.39 167.66 C 130.73 159.17 130.29 150.68 129.57 142.20 C 110.54 131.78 91.49 121.38 72.51 110.88 M 102.62 121.84 C 107.53 124.47 112.39 127.21 117.30 129.84 C 117.13 128.32 116.95 126.79 116.76 125.27 C 111.87 122.74 107.10 119.97 102.23 117.39 C 102.35 118.87 102.49 120.35 102.62 121.84 M 130.83 124.39 C 135.62 126.70 140.09 129.65 144.93 131.87 C 167.50 130.80 190.05 128.89 212.61 127.36 C 207.77 124.93 203.17 122.02 198.28 119.71 C 175.80 121.12 153.28 122.55 130.83 124.39 M 121.12 127.69 C 121.20 129.16 121.29 130.64 121.38 132.12 C 126.38 134.82 131.35 137.59 136.34 140.31 C 136.26 138.86 136.18 137.41 136.10 135.96 C 131.12 133.17 126.08 130.51 121.12 127.69 M 146.50 137.83 C 146.59 139.21 146.67 140.58 146.76 141.96 C 169.78 140.56 192.76 138.81 215.77 137.27 C 215.67 135.88 215.57 134.50 215.48 133.12 C 192.48 134.61 169.50 136.32 146.50 137.83 M 182.88 145.51 C 192.95 150.88 202.85 156.54 212.94 161.86 C 212.54 155.71 212.16 149.57 211.67 143.44 C 202.07 144.11 192.46 144.64 182.88 145.51 Z" />
</g>
</svg>
