<?xml version="1.0" encoding="UTF-8" ?>
<!DOCTYPE svg PUBLIC "-//W3C//DTD SVG 1.1//EN" "http://www.w3.org/Graphics/SVG/1.1/DTD/svg11.dtd">
<svg width="240pt" height="240pt" viewBox="0 0 240 240" version="1.1" xmlns="http://www.w3.org/2000/svg">
<g id="#a7a7a7ff">
<path fill="#a7a7a7" opacity="1.00" d=" M 86.58 90.00 C 131.72 90.00 176.86 90.00 222.00 90.00 C 222.00 96.50 222.00 103.00 222.00 109.51 C 217.86 109.51 213.73 109.50 209.59 109.52 C 209.61 119.55 209.61 129.59 209.60 139.63 C 213.72 139.60 217.85 139.59 221.98 139.62 C 221.96 142.00 221.97 144.39 222.00 146.77 C 161.31 147.06 100.62 147.00 39.93 146.82 C 32.25 146.76 24.13 145.02 18.26 139.76 C 12.55 134.86 9.60 127.41 9.02 120.03 C 9.60 113.82 11.69 107.62 15.74 102.79 C 20.91 96.34 28.96 92.45 37.19 92.08 C 37.28 94.39 37.39 96.70 37.47 99.01 C 29.51 99.37 21.90 104.17 18.47 111.41 C 15.00 118.03 16.02 126.53 20.74 132.27 C 24.76 137.44 31.53 139.66 37.90 139.59 C 58.34 139.64 78.78 139.69 99.22 139.66 C 99.22 129.61 99.22 119.56 99.22 109.51 C 95.00 109.50 90.79 109.52 86.57 109.50 C 86.59 103.00 86.58 96.50 86.58 90.00 M 93.61 97.33 C 93.61 99.06 93.61 100.80 93.61 102.54 C 101.94 102.55 110.27 102.56 118.61 102.54 C 118.60 100.80 118.59 99.06 118.59 97.33 C 110.27 97.31 101.94 97.31 93.61 97.33 M 125.62 97.33 C 125.62 99.07 125.62 100.80 125.62 102.54 C 133.95 102.55 142.28 102.56 150.61 102.54 C 150.60 100.80 150.60 99.06 150.60 97.33 C 142.27 97.31 133.95 97.31 125.62 97.33 M 157.63 97.33 C 157.62 99.06 157.62 100.80 157.62 102.54 C 165.85 102.55 174.09 102.55 182.32 102.54 C 182.31 100.80 182.31 99.06 182.31 97.32 C 174.08 97.32 165.86 97.31 157.63 97.33 M 189.33 97.33 C 189.33 99.06 189.33 100.80 189.33 102.53 C 197.76 102.56 206.19 102.55 214.62 102.54 C 214.61 100.80 214.61 99.06 214.62 97.33 C 206.19 97.31 197.76 97.31 189.33 97.33 M 106.23 109.53 C 106.28 119.57 106.26 129.62 106.23 139.66 C 138.35 139.70 170.46 139.68 202.57 139.62 C 202.57 129.59 202.56 119.55 202.58 109.52 C 170.46 109.51 138.35 109.49 106.23 109.53 Z" />
</g>
</svg>
