<?xml version="1.0" encoding="UTF-8" ?>
<!DOCTYPE svg PUBLIC "-//W3C//DTD SVG 1.1//EN" "http://www.w3.org/Graphics/SVG/1.1/DTD/svg11.dtd">
<svg width="240pt" height="240pt" viewBox="0 0 240 240" version="1.1" xmlns="http://www.w3.org/2000/svg">
<g id="#a7a7a7ff">
<path fill="#a7a7a7" opacity="1.00" d=" M 99.45 50.09 C 99.94 45.73 103.94 42.77 108.02 42.02 C 112.71 42.31 117.32 46.05 117.41 50.99 C 117.68 54.29 115.64 57.18 113.16 59.12 C 119.72 67.32 125.82 75.91 132.69 83.84 C 136.46 80.23 143.08 80.49 146.54 84.39 C 150.65 89.05 153.19 95.02 153.39 101.26 C 152.89 97.11 155.04 93.34 156.75 89.72 C 158.82 85.79 161.98 81.45 166.88 81.33 C 172.78 80.61 178.31 86.19 177.62 92.07 C 177.51 95.68 174.91 98.49 172.12 100.47 C 177.40 100.62 182.70 100.32 187.99 100.60 C 190.59 100.78 192.41 103.43 192.23 105.93 C 192.21 109.95 192.37 113.99 192.13 118.01 C 191.52 120.18 189.06 119.58 187.38 119.83 C 187.35 129.05 187.40 138.28 187.35 147.51 C 193.90 147.53 200.45 147.51 207.00 147.52 C 207.00 152.86 207.01 158.20 206.99 163.54 C 203.53 163.53 200.07 163.53 196.62 163.54 C 196.63 171.94 196.62 180.34 196.63 188.74 C 200.07 188.72 203.52 188.72 206.97 188.72 C 206.97 190.74 206.98 192.76 207.00 194.79 C 156.66 195.05 106.32 195.01 55.99 194.83 C 48.23 194.84 39.85 192.42 35.04 185.94 C 31.17 180.63 28.78 173.44 31.08 167.01 C 33.53 156.94 43.10 149.31 53.43 148.97 C 53.61 151.05 53.80 153.13 53.83 155.22 C 62.61 146.26 71.39 137.29 80.24 128.40 C 75.14 128.23 70.05 128.43 64.95 128.31 C 62.51 128.66 60.62 125.25 62.59 123.54 C 71.24 113.42 80.08 103.45 88.80 93.38 C 85.88 93.33 82.94 93.53 80.02 93.21 C 77.97 92.44 77.57 89.62 79.16 88.20 C 87.15 78.43 95.16 68.66 103.17 58.91 C 100.70 56.69 98.81 53.52 99.45 50.09 M 106.70 48.64 C 103.22 50.56 106.47 56.28 109.89 54.15 C 113.75 52.26 110.22 46.36 106.70 48.64 M 99.49 72.68 C 102.98 81.44 110.15 88.66 119.24 91.45 C 119.83 86.89 124.95 88.22 128.16 88.08 C 121.62 79.29 114.73 70.77 108.06 62.07 C 105.26 65.65 102.27 69.08 99.49 72.68 M 87.20 87.50 C 90.21 87.62 93.24 87.35 96.24 87.70 C 98.90 88.69 98.43 92.00 96.48 93.48 C 87.99 103.11 79.66 112.87 71.12 122.46 C 78.10 122.50 85.12 122.83 92.06 121.84 C 98.72 120.91 104.97 117.54 109.50 112.58 C 113.76 108.28 115.93 102.53 118.46 97.16 C 108.35 94.53 99.92 87.11 95.43 77.76 C 92.50 80.85 90.01 84.31 87.20 87.50 M 134.70 93.59 C 137.97 97.78 143.36 100.00 148.54 100.62 C 148.33 95.48 145.82 90.37 142.05 86.89 C 137.89 83.96 132.22 89.15 134.70 93.59 M 164.90 86.91 C 161.12 90.37 158.65 95.49 158.41 100.62 C 163.61 100.00 169.10 97.77 172.31 93.50 C 174.67 89.04 169.02 84.07 164.90 86.91 M 119.57 105.34 C 119.58 108.52 119.59 111.70 119.58 114.88 C 130.11 114.81 140.63 114.93 151.16 114.82 C 151.13 111.69 151.12 108.57 151.20 105.45 C 140.66 105.19 130.12 105.39 119.57 105.34 M 155.83 105.36 C 155.83 108.52 155.83 111.67 155.82 114.83 C 166.34 114.90 176.86 114.82 187.38 114.88 C 187.37 111.70 187.38 108.52 187.40 105.35 C 176.87 105.33 166.35 105.31 155.83 105.36 M 89.01 128.01 C 92.78 136.05 99.32 142.62 106.84 147.22 C 111.00 147.97 115.37 147.30 119.61 147.51 C 119.60 143.94 119.56 140.36 119.63 136.79 C 118.04 137.87 116.00 139.01 114.12 137.84 C 111.13 136.60 110.63 132.10 113.31 130.26 C 115.20 128.60 117.84 129.41 119.66 130.73 C 119.56 127.10 119.60 123.46 119.59 119.83 C 116.69 120.38 114.08 118.82 114.56 115.58 C 108.32 123.13 98.76 127.61 89.01 128.01 M 124.42 147.51 C 133.33 147.51 142.24 147.56 151.15 147.48 C 151.13 138.24 151.15 128.99 151.14 119.75 C 142.24 119.71 133.35 119.76 124.45 119.73 C 124.41 128.99 124.46 138.25 124.42 147.51 M 155.83 119.75 C 155.83 128.99 155.84 138.24 155.82 147.49 C 164.73 147.55 173.64 147.51 182.54 147.51 C 182.51 138.25 182.55 128.99 182.52 119.73 C 173.62 119.75 164.73 119.72 155.83 119.75 M 59.49 157.67 C 71.16 157.76 82.83 157.71 94.50 157.70 C 94.50 154.33 94.50 150.96 94.46 147.60 C 95.14 147.56 96.52 147.47 97.20 147.43 C 91.98 143.32 87.77 138.06 84.50 132.30 C 76.19 140.79 67.85 149.24 59.49 157.67 M 100.32 153.35 C 100.32 154.80 100.33 156.25 100.33 157.70 C 107.22 157.75 114.12 157.67 121.01 157.75 C 121.07 156.31 121.15 154.88 121.23 153.45 C 114.27 153.20 107.29 153.39 100.32 153.35 M 179.77 153.59 C 179.78 154.97 179.80 156.36 179.83 157.74 C 186.81 157.68 193.79 157.74 200.78 157.70 C 200.78 156.25 200.78 154.80 200.78 153.35 C 193.78 153.35 186.77 153.23 179.77 153.59 M 126.86 153.56 C 126.86 154.94 126.86 156.31 126.87 157.69 C 133.79 157.73 140.72 157.71 147.64 157.70 C 147.64 156.32 147.64 154.93 147.65 153.55 C 140.72 153.55 133.79 153.53 126.86 153.56 M 153.46 153.55 C 153.46 154.59 153.46 156.66 153.46 157.70 C 160.27 157.73 167.09 157.71 173.90 157.71 C 173.91 156.32 173.93 154.94 173.94 153.56 C 167.11 153.53 160.29 153.55 153.46 153.55 M 37.62 165.82 C 34.54 172.45 36.76 181.01 42.65 185.34 C 45.89 187.73 49.97 188.71 53.96 188.71 C 70.94 188.76 87.93 188.79 104.92 188.75 C 104.92 186.42 104.91 184.09 104.92 181.76 C 102.96 181.74 100.99 181.84 99.05 181.58 C 96.44 181.13 94.44 178.60 94.52 175.97 C 94.41 171.83 94.53 167.68 94.50 163.54 C 80.63 163.51 66.76 163.57 52.89 163.52 C 51.63 163.69 50.60 162.91 49.85 161.98 C 48.73 159.14 51.79 157.22 53.71 155.81 C 53.01 155.43 52.32 155.07 51.62 154.71 C 45.65 156.22 40.04 159.98 37.62 165.82 M 100.31 163.56 C 100.34 167.66 100.33 171.77 100.33 175.88 C 101.86 175.87 103.39 175.87 104.92 175.87 C 104.86 171.75 104.99 167.63 104.91 163.51 C 103.38 163.52 101.85 163.54 100.31 163.56 M 110.80 163.54 C 110.79 167.65 110.79 171.76 110.79 175.88 C 112.35 175.88 113.90 175.87 115.46 175.88 C 115.45 171.76 115.45 167.65 115.47 163.54 C 113.91 163.54 112.35 163.54 110.80 163.54 M 120.94 177.99 C 119.46 182.24 114.43 181.91 110.80 181.75 C 110.79 184.09 110.79 186.43 110.79 188.78 C 137.46 188.77 164.12 188.81 190.79 188.72 C 190.76 180.33 190.74 171.94 190.80 163.56 C 167.63 163.51 144.46 163.54 121.29 163.54 C 121.10 168.35 121.76 173.25 120.94 177.99 Z" />
<path fill="#a7a7a7" opacity="1.00" d=" M 97.48 104.68 C 100.64 102.92 104.73 106.84 102.87 110.01 C 101.85 112.38 98.45 113.13 96.57 111.30 C 94.40 109.58 94.98 105.80 97.48 104.68 Z" />
</g>
</svg>
