<?xml version="1.0" encoding="UTF-8" ?>
<!DOCTYPE svg PUBLIC "-//W3C//DTD SVG 1.1//EN" "http://www.w3.org/Graphics/SVG/1.1/DTD/svg11.dtd">
<svg width="240pt" height="240pt" viewBox="0 0 240 240" version="1.1" xmlns="http://www.w3.org/2000/svg">
<g id="#a7a7a7ff">
<path fill="#a7a7a7" opacity="1.00" d=" M 118.34 64.33 C 120.96 61.78 124.57 60.80 128.03 60.01 C 128.09 62.00 128.15 64.00 128.20 65.99 C 123.93 66.53 119.85 69.64 119.30 74.10 C 118.51 78.86 122.59 83.50 127.38 83.52 C 136.43 83.67 145.49 83.56 154.55 83.59 C 154.53 80.21 154.52 76.83 154.55 73.45 C 152.75 73.44 150.96 73.43 149.17 73.41 C 149.21 69.72 149.21 66.02 149.18 62.33 C 168.45 62.31 187.72 62.33 206.99 62.32 C 207.00 66.02 207.00 69.72 207.00 73.42 C 206.35 73.43 205.06 73.45 204.41 73.46 C 204.44 76.83 204.44 80.19 204.41 83.56 C 205.05 83.57 206.34 83.60 206.99 83.62 C 206.98 85.53 206.98 87.45 206.99 89.37 C 180.67 89.40 154.35 89.44 128.03 89.35 C 122.33 89.43 116.62 86.05 114.50 80.67 C 112.02 75.12 113.83 68.28 118.34 64.33 M 160.35 73.45 C 160.37 76.83 160.37 80.22 160.35 83.60 C 173.10 83.63 185.85 83.61 198.60 83.58 C 198.59 80.20 198.59 76.82 198.61 73.44 C 185.85 73.43 173.10 73.43 160.35 73.45 Z" />
<path fill="#a7a7a7" opacity="1.00" d=" M 70.25 104.27 C 73.03 97.06 80.22 92.44 87.74 91.61 C 88.05 93.55 88.16 95.50 88.32 97.45 C 81.29 97.95 74.81 103.75 74.66 110.99 C 74.36 117.75 80.24 123.83 86.99 123.81 C 100.58 123.97 114.18 123.91 127.78 123.88 C 127.71 117.86 127.76 111.84 127.74 105.82 C 125.06 105.82 122.39 105.82 119.71 105.82 C 119.71 101.25 119.72 96.69 119.71 92.12 C 148.81 92.12 177.90 92.12 207.00 92.12 C 207.00 96.69 207.00 101.26 206.99 105.83 C 204.78 105.82 202.57 105.80 200.36 105.78 C 200.21 111.81 200.33 117.85 200.29 123.88 C 202.50 123.88 204.71 123.88 206.93 123.88 C 206.95 125.82 206.99 127.77 207.02 129.73 C 169.01 129.78 131.00 129.79 93.00 129.73 C 88.08 129.82 82.88 129.84 78.45 127.37 C 70.33 123.28 66.55 112.57 70.25 104.27 M 124.94 99.46 C 130.05 100.65 135.42 100.13 140.61 99.80 C 140.53 99.31 140.38 98.32 140.31 97.83 C 135.54 97.95 130.75 97.61 125.99 97.97 C 125.73 98.34 125.20 99.09 124.94 99.46 M 146.27 100.12 C 151.10 100.10 155.94 100.11 160.78 100.11 C 160.79 99.54 160.83 98.40 160.84 97.84 C 156.00 97.82 151.15 97.86 146.31 97.80 C 146.30 98.38 146.28 99.54 146.27 100.12 M 166.69 97.83 C 166.69 98.40 166.71 99.54 166.71 100.11 C 171.57 100.11 176.43 100.11 181.29 100.11 C 181.30 99.54 181.31 98.40 181.32 97.83 C 176.44 97.83 171.56 97.83 166.69 97.83 M 187.16 97.83 C 187.18 98.40 187.22 99.54 187.23 100.11 C 191.73 100.10 196.22 100.11 200.71 100.11 C 200.73 99.54 200.77 98.41 200.79 97.84 C 196.25 97.82 191.70 97.83 187.16 97.83 M 133.59 105.82 C 133.58 111.85 133.58 117.88 133.59 123.91 C 153.88 123.94 174.17 123.92 194.45 123.90 C 194.45 117.87 194.46 111.85 194.45 105.82 C 174.16 105.82 153.88 105.81 133.59 105.82 Z" />
<path fill="#a7a7a7" opacity="1.00" d=" M 94.38 148.65 C 94.41 143.33 94.40 138.01 94.39 132.70 C 131.73 132.69 169.06 132.69 206.39 132.70 C 206.37 138.01 206.37 143.33 206.39 148.65 C 203.05 148.66 199.72 148.66 196.38 148.66 C 196.41 157.02 196.40 165.39 196.39 173.75 C 199.71 173.74 203.04 173.74 206.36 173.74 C 206.36 175.76 206.37 177.78 206.38 179.80 C 156.25 180.02 106.11 180.02 55.98 179.82 C 48.25 179.83 39.88 177.46 35.07 171.01 C 31.15 165.68 28.71 158.40 31.13 151.94 C 33.64 141.94 43.20 134.53 53.44 134.09 C 53.52 136.01 53.60 137.93 53.68 139.86 C 46.67 140.28 40.05 144.75 37.45 151.33 C 34.51 158.08 37.04 166.68 43.17 170.75 C 46.60 173.10 50.86 173.81 54.95 173.75 C 71.58 173.75 88.22 173.81 104.85 173.77 C 104.83 165.40 104.82 157.04 104.86 148.67 C 101.37 148.66 97.87 148.65 94.38 148.65 M 100.21 138.52 C 100.23 139.95 100.24 141.39 100.25 142.83 C 107.13 142.84 114.01 142.84 120.88 142.83 C 120.89 141.39 120.91 139.95 120.92 138.52 C 114.02 138.49 107.12 138.49 100.21 138.52 M 126.75 138.50 C 126.75 139.95 126.76 141.39 126.77 142.83 C 133.67 142.83 140.56 142.83 147.46 142.83 C 147.47 141.39 147.48 139.95 147.49 138.51 C 140.58 138.49 133.66 138.50 126.75 138.50 M 153.28 138.52 C 153.29 139.95 153.30 141.39 153.31 142.83 C 160.12 142.84 166.93 142.83 173.75 142.83 C 173.76 141.39 173.77 139.95 173.79 138.52 C 166.95 138.49 160.11 138.49 153.28 138.52 M 179.58 138.51 C 179.58 139.95 179.59 141.39 179.60 142.83 C 186.58 142.83 193.56 142.83 200.54 142.83 C 200.54 141.39 200.55 139.95 200.56 138.51 C 193.57 138.50 186.57 138.50 179.58 138.51 M 110.69 148.66 C 110.71 157.04 110.70 165.42 110.70 173.80 C 137.32 173.79 163.95 173.81 190.57 173.75 C 190.55 165.38 190.55 157.02 190.57 148.66 C 163.95 148.66 137.32 148.66 110.69 148.66 Z" />
</g>
</svg>
