<?xml version="1.0" encoding="UTF-8" ?>
<!DOCTYPE svg PUBLIC "-//W3C//DTD SVG 1.1//EN" "http://www.w3.org/Graphics/SVG/1.1/DTD/svg11.dtd">
<svg width="240pt" height="240pt" viewBox="0 0 240 240" version="1.1" xmlns="http://www.w3.org/2000/svg">
<g id="#a7a7a7ff">
<path fill="#a7a7a7" opacity="1.00" d=" M 99.37 51.05 C 99.37 46.30 103.62 42.73 108.06 42.03 C 112.74 42.31 117.33 46.08 117.41 51.00 C 117.75 54.37 115.46 57.05 113.23 59.24 C 119.63 67.39 125.92 75.62 132.35 83.74 C 136.32 80.76 142.38 80.23 146.08 83.93 C 150.35 88.60 153.55 94.80 152.98 101.28 C 153.69 94.88 156.56 88.64 160.92 83.91 C 165.77 79.03 175.04 81.35 177.09 87.91 C 179.03 92.79 176.18 97.84 172.12 100.56 C 177.74 100.62 183.41 100.15 189.00 100.78 C 193.19 102.36 192.13 107.48 192.26 110.99 C 191.93 113.76 193.10 117.08 191.16 119.38 C 189.90 119.65 188.64 119.84 187.37 119.96 C 187.37 129.14 187.39 138.33 187.35 147.51 C 193.90 147.52 200.45 147.52 207.00 147.52 C 207.00 152.86 207.00 158.20 207.00 163.54 C 203.54 163.53 200.08 163.54 196.62 163.54 C 196.63 171.94 196.63 180.34 196.62 188.74 C 200.07 188.72 203.52 188.72 206.97 188.72 C 206.97 190.74 206.98 192.77 207.00 194.79 C 156.64 195.03 106.29 195.02 55.93 194.82 C 48.20 194.82 39.86 192.41 35.05 185.96 C 31.16 180.62 28.77 173.39 31.09 166.92 C 33.59 156.90 43.03 149.49 53.27 148.91 C 53.50 150.88 53.75 152.88 54.61 154.70 C 62.86 145.65 71.71 137.15 80.25 128.37 C 75.13 128.25 70.00 128.45 64.88 128.28 C 63.05 128.46 61.55 126.69 61.75 124.92 C 62.43 123.62 63.40 122.51 64.35 121.40 C 72.54 112.08 80.65 102.70 88.82 93.37 C 85.89 93.33 82.93 93.56 80.01 93.18 C 77.93 92.43 77.61 89.66 79.17 88.23 C 87.09 78.44 95.13 68.75 103.09 58.99 C 101.16 56.76 99.03 54.22 99.37 51.05 M 106.67 48.65 C 104.18 50.06 105.11 54.40 108.02 54.48 C 109.87 54.95 111.99 52.81 111.52 50.95 C 111.41 48.68 108.51 47.50 106.67 48.65 M 99.47 72.68 C 102.98 81.36 110.02 88.53 119.03 91.40 C 119.79 90.42 120.11 88.97 121.25 88.34 C 123.54 87.91 125.90 88.14 128.22 88.07 C 121.58 79.34 114.76 70.76 108.06 62.07 C 105.23 65.63 102.29 69.11 99.47 72.68 M 87.19 87.54 C 89.99 87.57 92.80 87.40 95.59 87.64 C 97.84 87.69 99.12 90.81 97.35 92.34 C 88.71 102.48 79.89 112.47 71.11 122.49 C 82.67 122.38 95.71 123.93 105.43 116.27 C 112.00 111.71 115.18 104.23 118.56 97.30 C 108.37 94.48 99.91 87.08 95.28 77.64 C 92.66 81.00 89.92 84.26 87.19 87.54 M 134.67 93.50 C 137.91 97.90 143.52 99.95 148.76 100.69 C 148.00 95.44 145.90 89.85 141.54 86.58 C 137.33 84.38 132.46 89.32 134.67 93.50 M 165.46 86.58 C 161.06 89.81 158.93 95.44 158.22 100.70 C 163.45 99.92 169.07 97.91 172.30 93.51 C 174.50 89.33 169.66 84.47 165.46 86.58 M 119.58 105.33 C 119.58 108.51 119.59 111.69 119.58 114.87 C 130.10 114.83 140.63 114.90 151.15 114.83 C 151.14 111.68 151.14 108.52 151.15 105.36 C 140.62 105.30 130.10 105.35 119.58 105.33 M 155.83 105.35 C 155.83 108.52 155.83 111.68 155.83 114.85 C 166.34 114.89 176.86 114.84 187.38 114.87 C 187.37 111.69 187.38 108.51 187.39 105.33 C 176.87 105.35 166.35 105.31 155.83 105.35 M 88.95 128.12 C 92.96 135.99 99.25 142.72 106.86 147.19 C 111.02 147.97 115.38 147.33 119.61 147.51 C 119.59 144.02 119.56 140.52 119.65 137.03 C 116.73 139.22 111.72 138.24 111.55 134.05 C 111.24 129.72 116.63 128.06 119.69 130.52 C 119.56 127.00 119.58 123.47 119.60 119.95 C 118.33 119.83 117.06 119.65 115.81 119.40 C 115.16 118.27 114.67 117.06 114.36 115.78 C 108.14 123.32 98.60 127.50 88.95 128.12 M 124.42 147.52 C 133.33 147.51 142.24 147.54 151.15 147.50 C 151.13 138.25 151.15 128.99 151.14 119.74 C 142.24 119.73 133.34 119.75 124.44 119.73 C 124.42 128.99 124.45 138.25 124.42 147.52 M 155.83 119.74 C 155.83 128.99 155.83 138.25 155.83 147.50 C 164.73 147.54 173.64 147.51 182.54 147.52 C 182.51 138.25 182.53 128.99 182.53 119.73 C 173.63 119.74 164.73 119.73 155.83 119.74 M 59.48 157.69 C 71.15 157.75 82.82 157.70 94.50 157.71 C 94.50 154.33 94.50 150.96 94.46 147.58 C 95.14 147.55 96.48 147.49 97.16 147.47 C 92.02 143.26 87.77 138.06 84.47 132.32 C 76.18 140.81 67.83 149.25 59.48 157.69 M 100.32 153.34 C 100.32 154.80 100.33 156.25 100.33 157.71 C 107.26 157.71 114.19 157.74 121.12 157.69 C 121.12 156.61 121.12 154.44 121.12 153.36 C 114.19 153.32 107.25 153.34 100.32 153.34 M 179.78 153.60 C 179.78 154.97 179.78 156.34 179.79 157.72 C 186.78 157.71 193.78 157.72 200.78 157.71 C 200.78 156.25 200.78 154.80 200.79 153.35 C 193.78 153.35 186.77 153.23 179.78 153.60 M 126.86 153.56 C 126.86 154.94 126.86 156.32 126.86 157.70 C 133.79 157.73 140.71 157.71 147.64 157.71 C 147.64 156.32 147.65 154.94 147.65 153.55 C 140.72 153.55 133.79 153.54 126.86 153.56 M 153.46 153.55 C 153.46 154.59 153.47 156.67 153.47 157.71 C 160.26 157.72 167.05 157.71 173.85 157.72 C 173.92 156.34 174.01 154.95 174.09 153.57 C 167.21 153.52 160.34 153.56 153.46 153.55 M 37.62 165.81 C 34.43 172.67 36.92 181.62 43.27 185.77 C 46.70 188.08 50.93 188.78 55.00 188.73 C 71.71 188.71 88.42 188.84 105.13 188.72 C 105.03 186.41 104.95 184.11 104.92 181.80 C 102.98 181.75 101.03 181.82 99.10 181.57 C 96.49 181.18 94.46 178.64 94.54 176.02 C 94.38 171.86 94.53 167.70 94.51 163.54 C 80.67 163.51 66.83 163.58 52.99 163.51 C 51.71 163.65 50.61 162.95 49.84 161.99 C 48.68 159.09 51.86 157.40 53.59 155.74 C 52.95 155.39 52.30 155.04 51.65 154.70 C 45.69 156.24 40.04 159.95 37.62 165.81 M 100.32 163.54 C 100.34 167.65 100.33 171.77 100.33 175.88 C 101.86 175.88 103.39 175.87 104.91 175.88 C 104.91 171.76 104.90 167.65 104.93 163.54 C 103.39 163.54 101.85 163.54 100.32 163.54 M 110.79 163.53 C 110.79 167.65 110.79 171.77 110.79 175.88 C 112.35 175.88 113.90 175.88 115.46 175.88 C 115.45 171.76 115.45 167.65 115.47 163.54 C 113.91 163.54 112.35 163.53 110.79 163.53 M 121.28 163.54 C 121.11 168.35 121.78 173.25 120.92 177.99 C 119.48 182.26 114.40 181.85 110.79 181.79 C 110.79 184.12 110.79 186.45 110.79 188.78 C 137.46 188.77 164.12 188.80 190.78 188.73 C 190.76 180.33 190.75 171.94 190.79 163.54 C 167.62 163.53 144.45 163.53 121.28 163.54 Z" />
<path fill="#a7a7a7" opacity="1.00" d=" M 97.50 104.67 C 100.63 102.96 104.64 106.75 102.92 109.93 C 101.81 112.63 97.84 113.17 96.09 110.81 C 94.45 108.91 95.24 105.69 97.50 104.67 Z" />
</g>
</svg>
