<?xml version="1.0" encoding="UTF-8" ?>
<!DOCTYPE svg PUBLIC "-//W3C//DTD SVG 1.1//EN" "http://www.w3.org/Graphics/SVG/1.1/DTD/svg11.dtd">
<svg width="240pt" height="240pt" viewBox="0 0 240 240" version="1.1" xmlns="http://www.w3.org/2000/svg">
<g id="#a7a7a7ff">
<path fill="#a7a7a7" opacity="1.00" d=" M 48.34 70.67 C 64.35 65.34 83.21 75.30 88.63 91.14 C 93.72 104.51 88.64 120.72 76.96 128.92 C 67.96 135.64 55.68 136.88 45.22 133.08 C 47.73 139.29 53.92 143.50 60.61 143.62 C 78.20 143.81 95.79 143.70 113.39 143.75 C 113.39 135.30 113.37 126.86 113.39 118.41 C 109.87 118.40 106.34 118.40 102.81 118.40 C 102.81 113.04 102.81 107.68 102.82 102.32 C 140.54 102.30 178.27 102.32 216.00 102.31 C 216.00 107.67 216.00 113.04 216.00 118.40 C 212.51 118.40 209.03 118.40 205.55 118.41 C 205.58 126.85 205.55 135.28 205.56 143.72 C 209.03 143.69 212.50 143.69 215.97 143.70 C 215.97 145.73 215.98 147.76 216.00 149.79 C 168.99 150.02 121.99 150.01 74.98 149.86 C 66.71 149.66 57.91 150.76 50.28 146.83 C 43.60 143.56 39.33 136.61 38.45 129.34 C 30.38 123.61 25.27 114.37 24.22 104.57 C 23.25 89.54 33.66 74.53 48.34 70.67 M 30.18 101.22 C 38.58 94.85 48.86 91.48 59.22 90.11 C 60.11 95.81 61.27 101.46 62.19 107.16 C 52.77 108.95 43.00 112.09 36.29 119.31 C 41.51 125.70 49.65 129.60 57.93 129.39 C 68.01 129.33 77.72 123.11 82.02 114.00 C 86.47 105.07 85.27 93.71 79.09 85.88 C 73.13 77.98 62.69 73.86 52.94 75.60 C 40.57 77.47 30.67 88.73 30.18 101.22 M 51.58 97.52 C 50.91 99.83 50.24 102.14 49.54 104.44 C 50.91 104.01 52.29 103.59 53.67 103.17 C 54.48 101.15 54.87 99.00 54.58 96.83 C 53.58 97.06 52.58 97.29 51.58 97.52 M 45.76 99.40 C 45.10 101.89 44.38 104.37 43.65 106.84 C 45.02 106.25 46.40 105.66 47.78 105.08 C 48.50 102.71 49.20 100.34 49.86 97.95 C 48.49 98.44 47.13 98.92 45.76 99.40 M 40.25 101.73 C 39.42 104.56 38.58 107.38 37.78 110.21 C 42.51 108.92 42.92 104.00 44.04 100.04 C 43.09 100.46 41.20 101.31 40.25 101.73 M 34.35 108.81 C 33.47 108.29 32.59 107.78 31.69 107.29 C 31.21 108.44 31.05 109.64 31.21 110.88 L 32.11 108.10 C 32.53 108.83 32.94 109.56 33.34 110.30 C 33.17 111.35 32.81 113.45 32.64 114.50 C 36.89 112.09 36.92 106.85 38.35 102.74 C 36.09 104.02 33.43 105.73 34.35 108.81 M 108.71 108.18 C 108.71 109.64 108.70 111.09 108.70 112.55 C 115.66 112.56 122.62 112.56 129.58 112.55 C 129.58 111.46 129.58 109.28 129.58 108.19 C 122.62 108.17 115.66 108.19 108.71 108.18 M 135.44 108.19 C 135.43 109.64 135.43 111.09 135.42 112.55 C 142.39 112.56 149.35 112.56 156.31 112.55 C 156.30 111.09 156.30 109.64 156.30 108.18 C 149.34 108.18 142.39 108.17 135.44 108.19 M 162.18 108.19 C 162.18 109.64 162.17 111.09 162.17 112.55 C 169.04 112.56 175.91 112.56 182.79 112.54 C 182.78 111.09 182.77 109.64 182.76 108.19 C 175.90 108.18 169.04 108.18 162.18 108.19 M 188.65 108.18 C 188.64 109.64 188.64 111.09 188.64 112.55 C 195.68 112.55 202.72 112.56 209.76 112.54 C 209.75 111.09 209.74 109.64 209.73 108.19 C 202.70 108.18 195.68 108.18 188.65 108.18 M 119.24 118.41 C 119.29 126.86 119.26 135.30 119.26 143.74 C 146.07 143.77 172.89 143.75 199.70 143.71 C 199.68 135.28 199.66 126.84 199.71 118.41 C 172.89 118.40 146.06 118.39 119.24 118.41 Z" />
</g>
</svg>
