<?xml version="1.0" encoding="UTF-8" ?>
<!DOCTYPE svg PUBLIC "-//W3C//DTD SVG 1.1//EN" "http://www.w3.org/Graphics/SVG/1.1/DTD/svg11.dtd">
<svg width="240pt" height="240pt" viewBox="0 0 240 240" version="1.1" xmlns="http://www.w3.org/2000/svg">
<g id="#a7a7a7ff">
<path fill="#a7a7a7" opacity="1.00" d=" M 156.63 54.00 C 174.42 54.00 192.21 54.00 210.00 54.00 C 210.00 59.53 210.00 65.05 209.99 70.58 C 206.61 70.58 203.23 70.58 199.85 70.59 C 199.85 88.26 199.87 105.92 199.84 123.59 C 202.95 123.62 206.06 123.61 209.17 123.60 C 209.16 125.56 209.16 127.52 209.17 129.48 C 186.45 129.51 163.73 129.55 141.01 129.48 C 134.62 129.45 128.08 127.03 123.79 122.17 C 117.50 115.42 116.25 104.67 120.58 96.56 C 124.41 88.90 132.50 83.65 141.07 83.33 C 141.14 85.26 141.21 87.20 141.28 89.14 C 130.95 89.53 121.91 99.82 124.12 110.18 C 125.35 117.51 132.02 123.21 139.42 123.49 C 149.04 123.75 158.68 123.57 168.32 123.62 C 168.30 105.94 168.31 88.26 168.31 70.58 C 164.41 70.58 160.51 70.59 156.61 70.57 C 156.64 65.05 156.62 59.52 156.63 54.00 M 162.44 60.29 C 162.44 61.39 162.44 63.58 162.44 64.67 C 168.59 64.70 174.75 64.69 180.91 64.68 C 180.90 63.21 180.90 61.75 180.90 60.28 C 174.75 60.27 168.59 60.26 162.44 60.29 M 186.77 60.28 C 186.75 61.36 186.70 63.52 186.68 64.60 C 192.38 64.78 198.09 64.66 203.79 64.68 C 203.79 63.21 203.78 61.75 203.78 60.28 C 198.11 60.27 192.44 60.27 186.77 60.28 M 174.13 70.60 C 174.19 88.27 174.18 105.95 174.13 123.62 C 180.80 123.60 187.46 123.64 194.12 123.59 C 194.12 105.93 194.11 88.26 194.12 70.60 C 187.46 70.56 180.79 70.57 174.13 70.60 Z" />
<path fill="#a7a7a7" opacity="1.00" d=" M 64.11 81.85 C 81.69 81.83 99.27 81.90 116.86 81.82 C 117.21 87.25 117.23 92.73 116.84 98.16 C 113.65 98.12 110.46 98.12 107.27 98.14 C 107.28 106.63 107.29 115.12 107.27 123.61 C 110.35 123.62 113.44 123.61 116.52 123.60 C 116.52 125.56 116.52 127.52 116.53 129.49 C 96.99 129.52 77.46 129.53 57.93 129.49 C 51.50 129.58 44.81 127.42 40.36 122.62 C 34.07 116.24 32.36 105.93 36.11 97.81 C 39.68 89.51 48.13 83.71 57.16 83.29 C 57.24 85.24 57.33 87.19 57.42 89.14 C 48.87 89.59 41.09 96.42 40.08 105.00 C 38.78 113.54 45.28 122.32 53.93 123.29 C 61.16 123.97 68.45 123.45 75.70 123.62 C 75.66 115.13 75.67 106.64 75.69 98.14 C 71.83 98.13 67.97 98.13 64.11 98.14 C 64.02 92.71 64.10 87.28 64.11 81.85 M 69.81 87.76 C 69.81 89.25 69.82 90.73 69.82 92.22 C 75.99 92.22 82.16 92.22 88.33 92.22 C 88.32 90.73 88.32 89.25 88.33 87.76 C 82.15 87.76 75.98 87.76 69.81 87.76 M 94.17 87.77 C 94.17 89.25 94.17 90.73 94.18 92.22 C 99.85 92.22 105.52 92.22 111.20 92.22 C 111.19 90.73 111.19 89.25 111.19 87.76 C 105.52 87.76 99.84 87.75 94.17 87.77 M 81.51 98.13 C 81.50 106.63 81.52 115.12 81.49 123.62 C 88.15 123.65 94.80 123.60 101.46 123.61 C 101.44 115.12 101.46 106.63 101.45 98.13 C 94.80 98.13 88.15 98.13 81.51 98.13 Z" />
<path fill="#a7a7a7" opacity="1.00" d=" M 97.36 131.91 C 134.62 131.92 171.89 131.90 209.16 131.92 C 209.17 137.35 209.16 142.77 209.16 148.20 C 205.83 148.20 202.50 148.20 199.17 148.22 C 199.21 156.70 199.20 165.19 199.17 173.67 C 202.50 173.67 205.83 173.66 209.15 173.67 C 209.15 175.70 209.16 177.74 209.17 179.78 C 159.12 180.06 109.06 180.00 59.01 179.83 C 51.25 179.86 42.86 177.41 38.07 170.91 C 34.09 165.38 31.69 157.90 34.20 151.26 C 36.75 141.30 46.16 133.89 56.39 133.36 C 56.49 135.31 56.59 137.26 56.69 139.22 C 50.28 139.72 44.10 143.40 41.21 149.24 C 37.06 156.54 39.64 166.86 46.94 171.11 C 50.23 173.11 54.15 173.72 57.95 173.67 C 74.55 173.68 91.16 173.72 107.77 173.71 C 107.75 165.21 107.74 156.71 107.77 148.22 C 104.29 148.20 100.82 148.20 97.35 148.22 C 97.31 142.78 97.30 137.35 97.36 131.91 M 103.20 137.84 C 103.18 139.32 103.16 140.81 103.14 142.29 C 110.03 142.30 116.93 142.30 123.82 142.29 C 123.80 140.81 123.78 139.32 123.77 137.84 C 116.91 137.83 110.06 137.84 103.20 137.84 M 129.65 137.84 C 129.64 139.32 129.63 140.81 129.63 142.29 C 136.52 142.30 143.42 142.30 150.32 142.30 C 150.31 140.81 150.31 139.32 150.30 137.84 C 143.42 137.84 136.54 137.84 129.65 137.84 M 156.19 137.84 C 156.17 139.32 156.15 140.81 156.14 142.29 C 162.95 142.30 169.77 142.30 176.58 142.30 C 176.57 140.81 176.56 139.32 176.54 137.83 C 169.76 137.84 162.98 137.84 156.19 137.84 M 182.38 142.30 C 189.36 142.30 196.34 142.30 203.32 142.30 C 203.31 140.81 203.30 139.32 203.30 137.84 C 196.34 137.83 189.38 137.85 182.42 137.83 C 182.40 139.32 182.39 140.81 182.38 142.30 M 113.60 148.21 C 113.60 156.71 113.60 165.22 113.60 173.73 C 140.18 173.72 166.76 173.74 193.35 173.66 C 193.33 165.18 193.34 156.69 193.34 148.21 C 166.76 148.20 140.18 148.20 113.60 148.21 Z" />
</g>
</svg>
