<svg xmlns="http://www.w3.org/2000/svg" viewBox="0 0 992.86 560.68">
    <defs>
        <style>
            .cls-1{opacity:.092}.cls-2{fill:#eb1136}.cls-3{fill:#00e9dd}.cls-4{fill:#e88207}.cls-5{fill:#00cd62}.cls-6{fill:#f2f2f2}.cls-7{fill:#ffd370}.cls-8{fill:#ff277d}.cls-9{fill:#00dfd5}.cls-10{fill:#009d43}.cls-11{fill:#122faa}.cls-12{fill:#e952ea}.cls-13{fill:#ff6555}
        </style>
    </defs>
    <g id="Group_1298" class="cls-1" data-name="Group 1298" transform="translate(.077 -.059)">
        <path id="Path_778" d="M434.11 9.587c-15.738 1.418-27.506 3.19-34.736 10.35s-11.2 17.581 8.649 28.427 21.622 31.972 25.237 47.78 18.006 41.046 31.121 18.928 4.962-22.118 30.625-28.427 32.468-22.969 39.2-44.59 16.659-25.237-4.962-32.893-30.552-12.122-58.129-6.735c-13.965 2.623-27.08 6.239-37.005 7.16z" class="cls-2" data-name="Path 778" transform="translate(-114.558)"/>
        <path id="Path_779" d="M213.642 54.995c-9.287-8.436-16.234-20.7-14.391-31.972s4.962-13.54 21.2-13.044 30.625-1.772 46.008-4.962c15.312-3.19 15.809 4.962 2.694 18.928s-26.159 18.006-27.931 23.89-7.3 10.775 14.816 19.353 40.124 18.006 36.934 30.625-10.846 22.543-22.543 19.353-12.193-13.54-11.272-20.275-4.54-15.808-17.157-15.312c-12.619.425-6.735 11.272-6.309 18.006s.922 17.156-10.846 16.234c-11.7-.922-13.54-.425-18.928 6.735s-1.347 12.193 7.656 18.928 12.193 16.234 19.849 20.7 18.006 1.347 16.234-16.234-1.347-32.468 13.54-21.2 15.809 6.735 23.89 11.7 13.54 14.887 18.006 21.622c4.537 6.735 5.388 14.887 5.388 24.812s-6.309 6.735-14.391-.922-13.965-9-17.581 4.537-16.234 23.89-25.237 38.281-13.54 21.2-14.887 32.468-3.19 12.619-12.619 3.19c-9.5-9.5-24.812-5.884-31.121 4.537-6.309 10.35-4.041 22.118 1.347 26.159s9 1.772 15.809-3.19 11.7-2.269 9.925 4.041-1.772 12.619 4.962 16.234 18.006 14.887 14.887 21.2c-3.19 6.309-17.581 13.044-26.584-5.388s-18.006-14.391-33.815-21.622-11.272-31.972-27.506-45.086c-16.234-13.044-26.584-13.044-32.893-29.774-6.309-16.659.922-34.736-6.309-47.355S94.191 142.757 76.61 135.1s-28.852-4.537-42.818-.425-23.465-2.694-28.427-13.044-10.35-26.158 2.694-36.082S41.378 74.7 58.533 79.24s24.315 10.35 36.934 5.884c12.619-4.537 20.275-2.268 32.468 0s23.89-8.578 4.537-12.619-16.163-15.241-14.816-22.047c1.347-6.735 17.156-14.887 30.2-14.391 13.044.425 20.275 11.7 10.35 15.809-9.925 4.041-12.619 10.35-5.388 10.846 7.231.425 20.7-2.268 22.969 8.578s-9 18.5 1.347 22.118 23.465.425 24.315-7.231c.922-7.656-1.347-9.5-11.272-17.156s-2.269-13.044-5.884-18.928-14.887-10.846-7.656-17.581 12.193 2.694 15.809 9.925 12.193 23.89 18.928 22.543c6.805-1.417 7.226-5.529 2.268-9.995z" class="cls-3" data-name="Path 779" transform="translate(0 -1.243)"/>
        <path id="Path_780" d="M386.893 459.092c-8.932-10.775-29.278-15.312-42.818 2.269s-22.118 40.975-8.578 60.824 25.662 27.505 25.662 43.74-15.241 43.527-15.241 66.566c0 22.969 3.4 48.773 15.525 56.713 8.294 5.458 16.021 4.4 17.368-34.382s32.751-44.094 43.1-54.444 6.876-16.376 18.148-28.994 9-18.006 11.7-29.774c2.694-11.7 31.546-26.159.922-38.281-30.626-12.265-53.169-28.929-65.788-44.237z" class="cls-4" data-name="Path 780" transform="translate(-95.697 -130.852)"/>
        <path id="Path_781" d="M729.445 353.649c-19.779-19.07-31.688-12.76-47.993-16.3s-4.112-14.816-20.417-17.864-45.937 2.552-56.642 21.976-23.961 25.024-18.857 55.153 14.816 38.777 37.289 36.792c22.472-2.056 27.576-3.048 37.785 6.664s14.32 34.24 10.208 62.809-7.16 40.833 9.712 59.194 40.833 13.753 52.1-25.024c11.2-38.777 3.048-63.8 16.3-79.114s35.233-24.528 16.872-42.393c-18.493-18.012-22.037-48.142-36.357-61.893z" class="cls-5" data-name="Path 781" transform="translate(-170.14 -92.755)"/>
        <path id="Path_782" d="M836.439 567.145c-19.495 15.241-22.472 26.017-16.872 43.385s29.065 9.216 27.576-13.257 1.064-39.343-10.704-30.128z" class="cls-6" data-name="Path 782" transform="translate(-237.861 -164.328)"/>
        <path id="Path_783" d="M735.314 244.344c5.033 12.619.993 19.92 4.608 38.777s23.465 33.673 37.288 42.393 25.521-4.608 27.577-13.753c2.056-9.216-5.1-21.976-14.816-33.673-9.712-11.768 10.7-18.361 15.809-1.56 5.1 16.872 9.216 13.257 27.08 23.961s15.809 27.576 25.024 36.792 16.3 3.048 22.969-21.976 33.177-7.656 36.792 8.152c3.544 15.809.992 29.632 18.857 22.969s16.3-19.92 12.264-27.576c-4.112-7.656-4.112-15.312 17.864-25.521s3.048-36.225 19.424-50.545c16.3-14.32 45.441-15.809 51.537-43.385s-4.608-37.288 16.872-46.433c21.409-9.216 31.688-16.872 52.6-9.712s28.073-1.56 43.881-11.2c15.809-9.712 38.281-10.7 11.768-27.576s-52.6-2.552-96.482-18.857-61.746 8.649-84.714-3.545-12.264-35.729-61.746-26.017-58.7 20.417-82.729 33.673-48.489 16.3-57.7 19.424c-9.216 3.048-48.985 27.08-66.354 47s-31.688 15.312-51.537 22.969c-19.92 7.656-31.688 18.857-34.24 36.792-2.552 17.864-4.608 30.129 20.417 22.472s22.969-18.361 35.729-9.216c12.685 9.004 43.309-6.805 51.958 15.171z" class="cls-7" data-name="Path 783" transform="translate(-182.177 -15.634)"/>
        <path id="Path_784" d="M766.373 146.508c4.4-12.051 6.664-18.361-2.552-26.017s-21.409-15.809-39.841-12.76c-18.361 3.048-15.312 20.417-29.065 29.065s-21.409 16.3-14.32 28.569 23.465 22.472 28.569 8.152 3.545-27.08 14.32-25.521c10.7 1.56 10.7 9.216 24.528 10.7 13.753 1.636 16.305-6.588 18.361-12.188z" class="cls-8" data-name="Path 784" transform="translate(-197.356 -31.152)"/>
        <path id="Path_785" d="M885.974 60.051c-17.652 4.4-20.913 12.76-24.528 21.409s9.216 22.472 22.969 25.521 21.409.992 11.768-5.1c-9.712-6.1-19.92-17.368-5.6-21.976s19.424-8.152 19.424-14.32-15.88-7.519-24.033-5.534z" class="cls-9" data-name="Path 785" transform="translate(-250.604 -17.216)"/>
        <path id="Path_786" d="M1291.854 168.56c-15.738 12.548-28.569 22.969-27.576 36.792.992 13.753 16.3 32.681 22.472 9.216 6.1-23.465 13.753-38.777 16.872-45.937 3.049-7.231-4.112-6.168-11.768-.071z" class="cls-6" data-name="Path 786" transform="translate(-368.03 -47.603)"/>
        <path id="Path_787" d="M1215.419 238.953c2.694 21.763-3.048 51.537-15.312 64.865-12.264 13.257-37.288 4.112-21.409-11.768 15.809-15.809 25.521-35.233 26.513-47.993 1.064-12.757 8.72-17.368 10.208-5.104z" class="cls-10" data-name="Path 787" transform="translate(-341.644 -67.451)"/>
        <path id="Path_788" d="M638.718 195.141c-8.649-3.686-12.76-9.712-18.857 0s.992 12.264-2.056 19.92-.5 10.7 9.712 8.649 17.368 1.56 19.424-5.1c1.985-6.668-1.064-20.42-8.223-23.469z" class="cls-11" data-name="Path 788" transform="translate(-179.51 -55.257)"/>
        <path id="Path_789" d="M1160.544 572.495c-15.1 1.134-24.528 3.048-36.792 14.816s-26.513 14.816-24.528 29.065c2.056 14.32-5.6 28.569 14.816 29.632 20.417.993 27.08-16.3 42.889-2.552s38.777 31.688 50.545 6.664 5.6-36.792-6.1-53.1c-11.768-16.3-16.3-22.472-25.024-16.3-8.65 6.095-9.142-8.72-15.806-8.225z" class="cls-12" data-name="Path 789" transform="translate(-319.945 -166.629)"/>
        <path id="Path_790" d="M1104.723 480.256c-17.51-1.56-20.417 14.32-12.76 22.472s23.961 14.32 31.121 13.753 7.16-8.152-3.048-14.816c-10.209-6.593-4.041-20.416-15.313-21.409z" class="cls-13" data-name="Path 790" transform="translate(-316.725 -139.751)"/>
        <path id="Path_791" d="M1131.995 424.2c-9 6.026-4.112 20.913 3.048 28.569s18.361 12.264 15.809-5.6-9.712-29.135-18.857-22.969z" class="cls-6" data-name="Path 791" transform="translate(-328.117 -122.97)"/>
        <path id="Path_792" d="M1188.205 513.744c-11.626-1.63-25.024-.5-13.753 8.649s13.256 15.809 28.073 19.92 28.073-1.56 19.92-14.816-23.464-12.264-34.24-13.753z" class="cls-3" data-name="Path 792" transform="translate(-340.659 -149.349)"/>
        <path id="Path_793" d="M1057.493 507.336c-10.35-7.3-10.208-17.368-22.472-18.361s-2.552 10.7 6.1 25.024 15.312 16.872 29.065 19.424 25.024 6.1 33.177 5.1 14.32-10.7-10.7-15.312c-24.963-4.674-26.45-9.778-35.17-15.875z" class="cls-6" data-name="Path 793" transform="translate(-299.624 -142.304)"/>
    </g>
</svg>
