<?xml version="1.0" encoding="utf-8"?>
<!-- Generator: Adobe Illustrator 22.1.0, SVG Export Plug-In . SVG Version: 6.00 Build 0)  -->
<svg version="1.1" id="Layer_1" xmlns="http://www.w3.org/2000/svg" xmlns:xlink="http://www.w3.org/1999/xlink" x="0px" y="0px"
	 viewBox="0 0 462.3 441" style="enable-background:new 0 0 462.3 441;" xml:space="preserve">
<path d="M198.8,436.9c33.2-8.2,83.7-8.2,112.4-7.3c38.3,1.1,96.3,5.7,112,1.9c15.7-3.8,38.6-9.8,20.8-15.7s-26.9-4.7-64.5-4.3
	s-44.4-2.8-82.5-1.9c-28.1,0.6-79-6.4-114.9-1.5S159.3,446.7,198.8,436.9L198.8,436.9z"/>
<linearGradient id="Path_1091_1_" gradientUnits="userSpaceOnUse" x1="-444.711" y1="603.0245" x2="-443.93" y2="603.2915" gradientTransform="matrix(72.3409 0 0 -69.3622 32399.5918 42234.5469)">
	<stop  offset="0" style="stop-color:#DEDEDE"/>
	<stop  offset="0.507" style="stop-color:#D9D9D9"/>
	<stop  offset="0.928" style="stop-color:#DBDBDB"/>
	<stop  offset="1" style="stop-color:#D6D6D6"/>
</linearGradient>
<path id="Path_1091" style="opacity:0.72;fill:url(#Path_1091_1_);enable-background:new    ;" d="M224.9,365.6c0,0,6.8,59.9,7.6,62
	c0.5,1.3,1.6,2.2,2.9,2.5c8.2,1.2,16.4,2,24.7,2.2c11.7,0.2,26.9,0.8,36.2-4.2c1.4-0.8,0.9-2.4,0.7-3.5
	c-3.4-15.5-19.8-61.5-19.8-61.5L224.9,365.6z"/>
<path id="Path_1092" style="fill:#FFFFFF;" d="M52.2,342.7l0.2-284L448,1l-0.6,351.7C447.5,352.8,232.3,344.6,52.2,342.7z"/>
<radialGradient id="SVGID_1_" cx="145.4089" cy="412.669" r="985.2503" gradientUnits="userSpaceOnUse">
	<stop  offset="0" style="stop-color:#FFFFFF"/>
	<stop  offset="0.115" style="stop-color:#FAFDFF"/>
	<stop  offset="0.254" style="stop-color:#EBF8FF"/>
	<stop  offset="0.406" style="stop-color:#D2F0FF"/>
	<stop  offset="0.567" style="stop-color:#B0E5FE"/>
	<stop  offset="0.736" style="stop-color:#84D6FE"/>
	<stop  offset="0.907" style="stop-color:#4FC5FD"/>
	<stop  offset="1" style="stop-color:#2FBAFD"/>
</radialGradient>
<path style="fill:url(#SVGID_1_);" d="M52.3,39l-0.1,303.7c0,0,324.2,7.2,395.2,10.1V6.8c0,0-78,9.8-204.5,19.8
	C136.4,34.9,52.3,39,52.3,39z"/>
<linearGradient id="SVGID_2_" gradientUnits="userSpaceOnUse" x1="73.2529" y1="389.037" x2="429.619" y2="342.5544">
	<stop  offset="0" style="stop-color:#EAEDEF"/>
	<stop  offset="0.178" style="stop-color:#DBDBDB"/>
	<stop  offset="0.381" style="stop-color:#DBDBDB"/>
	<stop  offset="0.597" style="stop-color:#DBDBDB"/>
	<stop  offset="0.823" style="stop-color:#DBDBDB"/>
	<stop  offset="0.997" style="stop-color:#EAEAEA"/>
</linearGradient>
<path style="fill:url(#SVGID_2_);" d="M52.5,342.7l-0.1,27.7c0,0-0.5,6.6,5.9,6.8s108.7,2,191.1,4.9s187.6,6.4,197.8,7.2
	c0-6.9,0.4-36.5,0.4-36.5S238.7,343.1,52.5,342.7z"/>
<radialGradient id="Path_1095_1_" cx="286.6219" cy="439.0793" r="14.211" gradientTransform="matrix(23.469 0 0 -23.469 7028.3169 10469.1523)" gradientUnits="userSpaceOnUse">
	<stop  offset="0" style="stop-color:#FFFFFF"/>
	<stop  offset="1" style="stop-color:#DBDBDB"/>
</radialGradient>
<path id="Path_1095" style="fill:url(#Path_1095_1_);" d="M455,351.9c0,0,7.2-318.3,7.2-326s0.2-14.9-2.4-20
	c-1.5-3.3-4.6-5.5-8.2-5.8L447.3,1l0.2,351.9L455,351.9z"/>
<path d="M55.1,65.8c-0.8,0.3-1.8,18.3-1.8,35.9c4.5,1.6,9.2,2.4,13.9,2.6c29.7,1.9,34.1-19.5,34.1-19.5s4.3,24.3,37.9,21.4
	s35.2-17.7,38.4-24.3c11.8,15.3,17.2,24.9,44.2,24.3c27-0.8,34.1-17,37.4-25.7c10.5,15.3,28.3,24.6,45.5,22.5
	c17.1-2.2,28.4-15,33-24.6c9.3,17.6,28.1,25.3,45.4,23.1c17.5-2.3,33.2-12.5,37.8-26.3C437.8,60,451,50,451,50V15.9L111.9,54.5
	L55.1,65.8z"/>
<path style="fill:#2FBAFD;" d="M390.9,240.7c0,4.2-3.4,7.6-7.6,7.6l-272-0.5c-4.2,0-7.6-3.4-7.6-7.6v-52.1c0-4.2,3.4-7.7,7.6-7.9
	l272.1-10.8c4-0.2,7.4,2.9,7.6,7c0,0.1,0,0.2,0,0.4L390.9,240.7z"/>
<path style="fill:#FFFFFF;" d="M134.3,215.6l4.4-0.4c0.3,1.5,0.8,2.5,1.6,3.2c0.8,0.7,1.9,1,3.2,1c1.4,0,2.5-0.3,3.3-0.9
	c0.7-0.6,1.1-1.3,1.1-2.1c0-0.5-0.2-1-0.5-1.3c-0.3-0.4-0.8-0.7-1.6-1c-0.5-0.2-1.7-0.5-3.6-1c-2.4-0.6-4.1-1.3-5.1-2.2
	c-1.4-1.2-2-2.7-2-4.5c0-1.1,0.3-2.2,1-3.2c0.6-1,1.6-1.7,2.8-2.2c1.2-0.5,2.7-0.8,4.4-0.8c2.8,0,4.9,0.6,6.3,1.8
	c1.4,1.2,2.1,2.9,2.2,4.9l-4.5,0.2c-0.2-1.1-0.6-2-1.2-2.5c-0.6-0.5-1.6-0.7-2.8-0.7c-1.3,0-2.3,0.3-3.1,0.8
	c-0.5,0.3-0.7,0.8-0.7,1.4c0,0.5,0.2,1,0.7,1.3c0.6,0.5,1.9,1,4.1,1.5c2.2,0.5,3.8,1,4.8,1.6c1,0.5,1.9,1.3,2.5,2.3
	c0.6,1,0.9,2.1,0.9,3.5c0,1.3-0.4,2.5-1.1,3.6c-0.7,1.1-1.7,1.9-3,2.5c-1.3,0.5-2.9,0.8-4.8,0.8c-2.8,0-5-0.6-6.5-1.9
	C135.5,220,134.6,218.1,134.3,215.6z"/>
<path style="fill:#FFFFFF;" d="M161.2,222.8v-18.4h-6.6v-3.8h17.6v3.8h-6.6v18.4H161.2z"/>
<path style="fill:#FFFFFF;" d="M192.8,222.8h-4.9l-1.9-5h-8.9l-1.8,5h-4.8l8.6-22.2h4.7L192.8,222.8z M184.6,214l-3.1-8.2l-3,8.2
	H184.6z"/>
<path style="fill:#FFFFFF;" d="M195.2,222.8v-22.2h9.4c2.4,0,4.1,0.2,5.2,0.6c1.1,0.4,1.9,1.1,2.6,2.1c0.6,1,1,2.2,1,3.5
	c0,1.7-0.5,3-1.5,4.1c-1,1.1-2.4,1.8-4.4,2.1c1,0.6,1.8,1.2,2.4,1.9c0.6,0.7,1.5,1.9,2.6,3.6l2.7,4.3h-5.4l-3.2-4.8
	c-1.2-1.7-1.9-2.8-2.4-3.3c-0.4-0.4-0.9-0.8-1.3-0.9c-0.5-0.2-1.2-0.2-2.3-0.2h-0.9v9.3H195.2z M199.7,210h3.3c2.1,0,3.5-0.1,4-0.3
	c0.5-0.2,1-0.5,1.3-0.9s0.5-1,0.5-1.7c0-0.7-0.2-1.3-0.6-1.8c-0.4-0.5-1-0.8-1.7-0.9c-0.4,0-1.5-0.1-3.3-0.1h-3.5V210z"/>
<path style="fill:#FFFFFF;" d="M222.6,222.8v-18.4H216v-3.8h17.6v3.8H227v18.4H222.6z"/>
<path style="fill:#FFFFFF;" d="M244,215.6l4.4-0.4c0.3,1.5,0.8,2.5,1.6,3.2c0.8,0.7,1.9,1,3.2,1c1.4,0,2.5-0.3,3.3-0.9
	c0.7-0.6,1.1-1.3,1.1-2.1c0-0.5-0.2-1-0.5-1.3c-0.3-0.4-0.8-0.7-1.6-1c-0.5-0.2-1.7-0.5-3.6-1c-2.4-0.6-4.1-1.3-5.1-2.2
	c-1.4-1.2-2-2.7-2-4.5c0-1.1,0.3-2.2,1-3.2c0.6-1,1.6-1.7,2.8-2.2s2.7-0.8,4.4-0.8c2.8,0,4.9,0.6,6.3,1.8c1.4,1.2,2.1,2.9,2.2,4.9
	l-4.5,0.2c-0.2-1.1-0.6-2-1.2-2.5c-0.6-0.5-1.6-0.7-2.8-0.7c-1.3,0-2.3,0.3-3.1,0.8c-0.5,0.3-0.7,0.8-0.7,1.4c0,0.5,0.2,1,0.7,1.3
	c0.6,0.5,1.9,1,4.1,1.5c2.2,0.5,3.8,1,4.8,1.6c1,0.5,1.9,1.3,2.5,2.3c0.6,1,0.9,2.1,0.9,3.5c0,1.3-0.4,2.5-1.1,3.6
	c-0.7,1.1-1.7,1.9-3,2.5c-1.3,0.5-2.9,0.8-4.8,0.8c-2.8,0-5-0.6-6.5-1.9C245.2,220,244.3,218.1,244,215.6z"/>
<path style="fill:#FFFFFF;" d="M265.8,222.8v-22.2h16.5v3.8h-12v4.9h11.1v3.7h-11.1v6h12.4v3.7H265.8z"/>
<path style="fill:#FFFFFF;" d="M286.6,222.8v-22h4.5v18.3h11.1v3.7H286.6z"/>
<path style="fill:#FFFFFF;" d="M305.5,222.8v-22h4.5v18.3h11.1v3.7H305.5z"/>
<path style="fill:#FFFFFF;" d="M324.2,222.8v-22.2h4.5v22.2H324.2z"/>
<path style="fill:#FFFFFF;" d="M333,222.8v-22.2h4.4l9.1,14.8v-14.8h4.2v22.2h-4.5l-8.9-14.5v14.5H333z"/>
<path style="fill:#FFFFFF;" d="M365.7,214.6v-3.7h9.7v8.8c-0.9,0.9-2.3,1.7-4.1,2.4c-1.8,0.7-3.6,1-5.4,1c-2.3,0-4.3-0.5-6.1-1.5
	c-1.7-1-3-2.4-3.9-4.2c-0.9-1.8-1.3-3.8-1.3-5.9c0-2.3,0.5-4.4,1.5-6.2c1-1.8,2.4-3.2,4.3-4.1c1.4-0.7,3.2-1.1,5.3-1.1
	c2.8,0,4.9,0.6,6.5,1.7c1.5,1.2,2.5,2.8,3,4.8l-4.5,0.8c-0.3-1.1-0.9-1.9-1.8-2.6c-0.9-0.6-1.9-0.9-3.2-0.9c-2,0-3.5,0.6-4.7,1.9
	c-1.2,1.2-1.7,3.1-1.7,5.5c0,2.6,0.6,4.6,1.8,5.9c1.2,1.3,2.7,2,4.6,2c0.9,0,1.9-0.2,2.8-0.6c0.9-0.4,1.8-0.8,2.4-1.3v-2.8H365.7z"
	/>
<path id="Path_1098" style="fill:#E6E6E6;" d="M52.2,34L0,65.2c0,0,81.7,1.3,189-3.7c109.1-5.2,192.1-14.4,212.2-16.9
	C421.3,26.1,448.1,1,448.1,1S313.2,16.4,221.7,23.1C142.7,28.9,52.2,34,52.2,34z"/>
<path style="fill:#FFFFFF;" d="M79,63.6c2.2,16.1,22,30.5,40.4,30.1c26.5-0.5,38.9-22.9,39.8-30.9C135.5,64.4,79,63.6,79,63.6z"/>
<path style="fill:#FFFFFF;" d="M241,58.6c3.1,15.9,23.7,29.1,42,27.5c26.5-2.2,37.5-25.2,38-33.3C297.5,55.9,241,58.6,241,58.6z"/>
<path style="fill:#2FBAFD;" d="M0.5,65.1c2.2,16.1,20.1,29.7,38.4,30.1c22.3,0.4,39.1-23.6,40-31.6C61.9,63.1,0.5,65.1,0.5,65.1z
	 M79,63.6l45.2-33.9l-72,4.3L0.5,65.1L79,63.6z"/>
<radialGradient id="SVGID_3_" cx="132.3274" cy="50.7933" r="460.3511" gradientUnits="userSpaceOnUse">
	<stop  offset="0" style="stop-color:#FFFFFF"/>
	<stop  offset="0.999" style="stop-color:#BABABA"/>
</radialGradient>
<path style="fill:url(#SVGID_3_);" d="M79,63.6c0,0,59.8,0.2,79.6-0.6c19.1-13.6,50.7-39,50.7-39L124,30L79,63.6z"/>
<path style="fill:#2FBAFD;" d="M158.6,63c2.9,16.4,23.9,30.4,42.7,29.3c27.3-1.6,39-25.6,39.6-33.8C210.7,61,158.6,63,158.6,63
	L158.6,63z M158.6,63c0,0,47.1-1.2,82.5-4.4c22.5-19.8,46.5-41.4,46.5-41.4l-79.3,7.2L158.6,63z"/>
<radialGradient id="SVGID_4_" cx="8.8232" cy="17.2076" r="460.2793" gradientUnits="userSpaceOnUse">
	<stop  offset="0" style="stop-color:#FFFFFF"/>
	<stop  offset="0.999" style="stop-color:#BABABA"/>
</radialGradient>
<path style="fill:url(#SVGID_4_);" d="M241,58.6l47.2-41.7l81.3-7.2L320.4,53L241,58.6z"/>
<path style="fill:#2FBAFD;" d="M320.4,53c3.8,16.2,25.6,28.9,44.3,26.6c27.2-3.4,37.5-27.9,37.6-36.2C372.4,47.7,320.4,53,320.4,53z
	 M320.4,53l49-43.3l82.4-9.6l-49.6,43.2C402.3,43.3,338,52.2,320.4,53z"/>
<path style="fill:#FFFFFF;" d="M402.3,43.3c0,0,13.8,23.8,28.7,13C456.6,37.6,450.2,8.8,451.8,0C442.2,8,402.3,43.3,402.3,43.3z"/>
<path id="Path_1110" style="fill:#A7E5F9;" d="M311.6,347.7l-50,9.8l-127.6-3.6l57.1-9.3L311.6,347.7z"/>
<path id="Path_1111" style="fill:#E6E6E6;" d="M311.6,347.7c0,0-0.2,30-0.2,36.2c-24.6-24.9-49.6-11.5-49.6-11.5l-0.4-14.9
	L311.6,347.7z"/>
<path id="Path_1112" style="fill:#F2F2F2;" d="M261.8,372.3l-128.5-4.8l0.4-13.7l127.8,3.7L261.8,372.3z"/>
<linearGradient id="Rectangle_2367_1_" gradientUnits="userSpaceOnUse" x1="-239.8457" y1="601.4697" x2="-238.8627" y2="601.4697" gradientTransform="matrix(2.136 0 0 -40.196 814.9899 24505.3789)">
	<stop  offset="0" style="stop-color:#FFFFFF"/>
	<stop  offset="0.395" style="stop-color:#CFCFCF"/>
	<stop  offset="0.68" style="stop-color:#FFFFFF"/>
	<stop  offset="0.999" style="stop-color:#BABABA"/>
</linearGradient>
<path id="Rectangle_2367" style="fill:url(#Rectangle_2367_1_);" d="M302.7,308.6h2.1v40.2h-2.1V308.6z"/>
<linearGradient id="Rectangle_2368_1_" gradientUnits="userSpaceOnUse" x1="-239.8537" y1="601.5957" x2="-238.8707" y2="601.5957" gradientTransform="matrix(2.136 0 0 -41.493 776.1669 25297.3105)">
	<stop  offset="0" style="stop-color:#FFFFFF"/>
	<stop  offset="0.395" style="stop-color:#CFCFCF"/>
	<stop  offset="0.68" style="stop-color:#FFFFFF"/>
	<stop  offset="0.999" style="stop-color:#BABABA"/>
</linearGradient>
<path id="Rectangle_2368" style="fill:url(#Rectangle_2368_1_);" d="M263.8,314.6h2.1V356h-2.1V314.6z"/>
<linearGradient id="Rectangle_2369_1_" gradientUnits="userSpaceOnUse" x1="-239.8547" y1="601.1655" x2="-238.8717" y2="601.1655" gradientTransform="matrix(2.136 0 0 -37.374 699.8929 22796.6211)">
	<stop  offset="0" style="stop-color:#FFFFFF"/>
	<stop  offset="0.395" style="stop-color:#CFCFCF"/>
	<stop  offset="0.68" style="stop-color:#FFFFFF"/>
	<stop  offset="0.999" style="stop-color:#BABABA"/>
</linearGradient>
<path id="Rectangle_2369" style="fill:url(#Rectangle_2369_1_);" d="M187.6,310h2.1v37.4h-2.1V310z"/>
<linearGradient id="Rectangle_2370_1_" gradientUnits="userSpaceOnUse" x1="-239.8567" y1="601.3024" x2="-238.8737" y2="601.3024" gradientTransform="matrix(2.136 0 0 -38.594 657.103 23540.7461)">
	<stop  offset="0" style="stop-color:#FFFFFF"/>
	<stop  offset="0.395" style="stop-color:#CFCFCF"/>
	<stop  offset="0.68" style="stop-color:#FFFFFF"/>
	<stop  offset="0.999" style="stop-color:#BABABA"/>
</linearGradient>
<path id="Rectangle_2370" style="fill:url(#Rectangle_2370_1_);" d="M144.8,314.8h2.1v38.6h-2.1V314.8z"/>
<radialGradient id="Path_1113_1_" cx="2486.863" cy="-840.4009" r="1085.869" gradientTransform="matrix(0.179 0 0 -0.179 -388.021 -34.9)" gradientUnits="userSpaceOnUse">
	<stop  offset="0" style="stop-color:#FFFFFF"/>
	<stop  offset="1" style="stop-color:#DFDFDF"/>
</radialGradient>
<path id="Path_1113" style="fill:url(#Path_1113_1_);" d="M308.8,306.9l-48.4,4l0.1,4.7l48.5-4.7L308.8,306.9z"/>
<path id="Path_1114" style="fill:#B3B3B3;" d="M256.4,310.8v4.5l4,0.3l-0.1-4.7L256.4,310.8z"/>
<radialGradient id="Path_1115_1_" cx="3065.2239" cy="-1037.3287" r="922.196" gradientTransform="matrix(0.137 0 0 -0.137 -405.948 -127.653)" gradientUnits="userSpaceOnUse">
	<stop  offset="0" style="stop-color:#FFFFFF"/>
	<stop  offset="1" style="stop-color:#DFDFDF"/>
</radialGradient>
<path id="Path_1115" style="fill:url(#Path_1115_1_);" d="M193.4,309.4l-47.6,2.2l0.1,4.3l47.7-3L193.4,309.4z"/>
<path id="Path_1116" style="fill:#FFFFFF;" d="M193.3,309.4l-2.9-0.2l-48.6,2.4l3.9,0.1L193.3,309.4z"/>
<path style="fill:#B3B3B3;" d="M447.1,389.3c2.5-0.9,4.4-3.1,5-5.7c2.7-11.2,3.2-34.8,3.2-34.8l-7.9,4L447.1,389.3z"/>
<path id="Path_1118" style="fill:#F2F2F2;" d="M248,367.9l-126.5-4.4v8.8l126.9,3.8L248,367.9z"/>
<path id="Path_1119" style="fill:#F2F2F2;" d="M234.7,378.1l-126.5-4.5l-0.2,10.9l126.8,3.8L234.7,378.1z"/>
<path id="Path_1120" style="fill:#A7E5F9;" d="M261.9,366.1l-14,1.8l-126.5-4.4l12-1.8L261.9,366.1z"/>
<path id="Path_1121" style="fill:#A7E5F9;" d="M248.4,376.2l-13.7,1.8l-125-4.5l11.8-1.8L248.4,376.2z"/>
<path id="Path_1122" style="fill:#E6E6E6;" d="M261.9,366.1l-14,1.8l-0.4,8.2l-12.9,1.9l0.1,10.1l-12.5,2.1l0.4,10.4l-13,2.7
	l0.5,11.7l-12.2,1.7l0.2,10.1l-12.8,2.8l0.3,11.3c0,0,10.1-1.7,16.8-4.6c12.2-5.3,8.2-13,21.9-32.1c12.2-16.9,37.9-32.6,37.9-32.6
	L261.9,366.1z"/>
<path id="Path_1123" style="fill:#F2F2F2;" d="M222.4,390.4l-127.9-4.8v11.1l128.2,4L222.4,390.4z"/>
<path id="Path_1124" style="fill:#A7E5F9;" d="M234.9,388.2l-12.5,2.1l-127.9-4.7l11.9-1.8L234.9,388.2z"/>
<path id="Path_1125" style="fill:#F2F2F2;" d="M209.8,403.2L82,399.1v11.1l128.1,4.5L209.8,403.2z"/>
<path id="Path_1126" style="fill:#A7E5F9;" d="M222.7,400.7l-13,2.6l-128-4.3l12.7-2.2L222.7,400.7z"/>
<path id="Path_1127" style="fill:#F2F2F2;" d="M198,416.8L70.1,412v11.1l128.3,4L198,416.8z"/>
<path id="Path_1128" style="fill:#A7E5F9;" d="M210.6,414.6l-12.5,2.1l-128-4.8l12-1.8L210.6,414.6z"/>
<path id="Path_1129" style="fill:#F2F2F2;" d="M185.4,429.5l-127.8-4v11.1l128.1,4.5L185.4,429.5z"/>
<path id="Path_1130" style="fill:#A7E5F9;" d="M198.3,427.1l-13,2.6l-128-4.3l12.7-2.2L198.3,427.1z"/>
<path id="Path_1131" style="fill:#FFFFFF;" d="M308.8,306.9l-2.9-0.2l-49.5,4.1l-3.5,0.9l7.5-0.8L308.8,306.9z"/>
<linearGradient id="Rectangle_2371_1_" gradientUnits="userSpaceOnUse" x1="-266.2426" y1="602.1605" x2="-265.2847" y2="602.1605" gradientTransform="matrix(2.441 0 0 -48.51 838.287 29614.748)">
	<stop  offset="0" style="stop-color:#FFFFFF"/>
	<stop  offset="0.395" style="stop-color:#CFCFCF"/>
	<stop  offset="0.68" style="stop-color:#FFFFFF"/>
	<stop  offset="0.999" style="stop-color:#BABABA"/>
</linearGradient>
<path id="Rectangle_2371" style="fill:url(#Rectangle_2371_1_);" d="M188.4,379.7h2.4v48.5h-2.4V379.7z"/>
<linearGradient id="Rectangle_2372_1_" gradientUnits="userSpaceOnUse" x1="-266.2447" y1="601.7673" x2="-265.2867" y2="601.7673" gradientTransform="matrix(2.441 0 0 -43.4 715.334 26519.3125)">
	<stop  offset="0" style="stop-color:#FFFFFF"/>
	<stop  offset="0.395" style="stop-color:#CFCFCF"/>
	<stop  offset="0.68" style="stop-color:#FFFFFF"/>
	<stop  offset="0.999" style="stop-color:#BABABA"/>
</linearGradient>
<path id="Rectangle_2372" style="fill:url(#Rectangle_2372_1_);" d="M65.4,380.9h2.4v43.4h-2.4V380.9z"/>
<radialGradient id="Path_1132_1_" cx="476.8405" cy="-129.022" r="230.859" gradientTransform="matrix(0.842 0 0 -0.842 -100.677 272.879)" gradientUnits="userSpaceOnUse">
	<stop  offset="0" style="stop-color:#FFFFFF"/>
	<stop  offset="1" style="stop-color:#DFDFDF"/>
</radialGradient>
<path id="Path_1132" style="fill:url(#Path_1132_1_);" d="M256.4,311.3c-15.1,1.8-24.6,13.8-28.7,28.8c-2.2,8.4-9.3,20.7-20.4,28.3
	c-8.6,5.9-18.2,8.8-31,8.7v5.3c0,0,17.8-0.2,30.5-8c13.6-8.4,21.4-18.8,24.6-30.7s8.5-19.5,15.6-24.3c3.9-2.7,8.7-3.4,13.2-3.7
	c-0.2-1.2,1.7-3.4,0.6-4.4C260.4,310.7,258.6,311.1,256.4,311.3z"/>
<ellipse id="Ellipse_133" style="fill:#B3B3B3;" cx="176.6" cy="379.7" rx="2.5" ry="2.7"/>
<path id="Path_1133" style="opacity:0.88;fill:#FFFFFF;enable-background:new    ;" d="M257.7,311c-7.4,1.3-12.4,2.2-18.8,9.1
	s-9.5,15.8-11.4,22c-1.8,6.2-8.4,19.8-22.8,28.8c-10,6.3-19.1,5.9-24.2,6.3s4.4,0.9,11.4-0.4c7-1.4,18.2-6.5,27.2-17.7
	c11.9-14.8,10.2-24.8,18.4-34.9c6.4-7.9,11.9-10.4,15.6-11.4C258.3,311.4,263.4,310,257.7,311L257.7,311z"/>
<radialGradient id="Path_1134_1_" cx="304.6902" cy="-39.6676" r="180.189" gradientTransform="matrix(0.802 0 0 -0.772 -84.631 215.17)" gradientUnits="userSpaceOnUse">
	<stop  offset="0" style="stop-color:#FFFFFF"/>
	<stop  offset="1" style="stop-color:#DFDFDF"/>
</radialGradient>
<path id="Path_1134" style="fill:url(#Path_1134_1_);" d="M141.3,311.6c-15.6,1.8-25.4,14.3-29.4,29.1c-2.3,8.3-9.6,20.5-21.1,28.1
	c-8.9,5.9-18.8,8.7-32,8.6l0.1,5c0,0,18.3,0.1,31.4-7.7c14-8.3,22-18.7,25.3-30.4s8.8-19.3,16.2-24.2c4-2.7,9-3.4,13.6-3.8
	c1.6-0.1,3-4.7,0.2-4.7C144.4,311.7,143.5,311.4,141.3,311.6L141.3,311.6z"/>
<ellipse id="Ellipse_134" style="fill:#B3B3B3;" cx="59" cy="379.9" rx="2.6" ry="2.5"/>
<path id="Path_1135" style="opacity:0.66;fill:#FFFFFF;enable-background:new    ;" d="M142.7,311.7c-7.6,0.4-14.7,3.7-19.8,9.2
	c-6.6,6.9-9.9,15.9-11.8,22.2s-7.2,18.5-22.1,27.5c-10.4,6.3-21.1,6.8-26.3,7.1s4.3,0.9,11.5-0.5c11.1-2.2,21.1-8.2,28.2-17
	c12.3-15,10.6-25.6,19-35.8c6.6-8.1,13.6-10.8,17.4-11.6C144.8,311.6,149.2,311.2,142.7,311.7z"/>
<path style="fill:none;stroke:#CCCCCC;stroke-width:2;stroke-linecap:round;stroke-linejoin:round;stroke-miterlimit:10;" d="
	M414.9,363c-2.1,1.2-3.4,3.4-3.4,5.8c-0.2,3.4,2.5,6.3,5.9,6.5c3.4,0.2,6.3-2.5,6.5-5.9c0-0.2,0-0.4,0-0.6c0-2.5-1.3-4.7-3.5-5.9
	 M417.7,360.6v9.8"/>
</svg>
