<svg xmlns="http://www.w3.org/2000/svg" viewBox="0 0 1728.525 820.092">
    <defs>
        <style>
            .cls-1{fill:#00e9dd;opacity:.168}
        </style>
    </defs>
    <g id="Symbol_1_1" data-name="Symbol 1 – 1" transform="translate(6042.93 7158.114)">
        <path id="Path_1190" d="M1411.775 65.18c-94.244-49.435-244.715-112.312-433.2-11.275-154.88 83.041-226.719 181.838-305.28 237.922S487.046 413.029 305.28 395.105c-136.306-13.442-236.692 3.838-315.252 35.276-74.094 33.689-150.735 109.908-150.735 155.677 0 114.05 8.127 287.921 104.979 217.86s208.367-202.33 450.77-242.731 305.5 41.918 498.248-11.2c219.926-60.637 410.917 23.384 527.637 106.425 125.744 74.014 173.789-217.859 132.345-405.98-23.76-94.366-141.497-185.252-141.497-185.252z" class="cls-1" data-name="Path 1190" transform="translate(-5882.223 -7158.08)"/>
    </g>
</svg>
