<?xml version="1.0" encoding="utf-8"?>
<!-- Generator: Adobe Illustrator 22.1.0, SVG Export Plug-In . SVG Version: 6.00 Build 0)  -->
<svg version="1.1" id="Layer_1" xmlns="http://www.w3.org/2000/svg" xmlns:xlink="http://www.w3.org/1999/xlink" x="0px" y="0px"
	 viewBox="0 0 74.2 71" style="enable-background:new 0 0 74.2 71;" xml:space="preserve">
<style type="text/css">
	.st0{fill:#2FBAFD;}
	.st1{fill:none;stroke:#2FBAFD;stroke-width:4;stroke-linecap:round;stroke-linejoin:round;stroke-miterlimit:10;}
	.st2{fill:none;stroke:#2FBAFD;stroke-width:4;stroke-linecap:round;stroke-linejoin:round;}
	.st3{fill:none;stroke:#2FBAFD;stroke-width:4;stroke-linecap:round;stroke-linejoin:round;stroke-dasharray:8.1365,8.1365;}
</style>
<g>
	<path class="st0" d="M32.2,45h-15v-2.6l7.4-8.1c1.1-1.2,1.8-2.2,2.3-3c0.5-0.8,0.7-1.6,0.7-2.4c0-1.1-0.3-1.9-0.9-2.6
		c-0.6-0.7-1.4-1-2.4-1c-1.2,0-2.1,0.4-2.8,1.1c-0.7,0.7-1,1.7-1,3h-3.7c0-1.4,0.3-2.6,0.9-3.7c0.6-1.1,1.5-1.9,2.6-2.5
		c1.1-0.6,2.5-0.9,4-0.9c2.2,0,3.9,0.5,5.1,1.6c1.2,1.1,1.9,2.6,1.9,4.5c0,1.1-0.3,2.3-0.9,3.5c-0.6,1.2-1.7,2.6-3.1,4.2L21.8,42
		h10.3V45z"/>
	<path class="st0" d="M47.6,37h2.8v3h-2.8v5h-3.7v-5h-9.6l-0.1-2.3l9.6-15.1h3.8V37z M38,37h5.8v-9.3l-0.3,0.5L38,37z"/>
</g>
<path class="st1" d="M5.2,47.4C3.8,44,3,40.3,2.9,36.4C2.2,18.7,16.1,3.9,33.8,3.2c10.5-0.4,20,4.3,26.1,11.9"/>
<g>
	<g>
		<path class="st2" d="M36.1,67.4c-1.2,0-2.3,0-3.5-0.1"/>
		<path class="st3" d="M24.6,65.6c-3.9-1.4-7.4-3.5-10.4-6.2"/>
		<path class="st2" d="M11.3,56.6c-0.8-0.9-1.5-1.8-2.1-2.8"/>
	</g>
</g>
<path class="st0" d="M71.1,29.8c-1.5-2.3-4-3.9-5.9-3.9c-1.9,0-3.3,1.3-4.2,2.4c-0.9,1.1-3.4,4.9-3.4,6.9c0,1.9,0.9,4.1,3.2,5
	s3.4,1,4.1,1c0.2,2.4,0.1,6.2-1.9,9.7c-2,3.5-3.8,6.5-8.7,9.2c-0.6-2.2-2.7-4-3.8-4.5c-1.1-0.6-2.9-1-4.8,0.8
	c-1.8,1.8-4.5,6-4.8,8.3c-0.3,2.3,1.5,3.9,3,4.4c1.5,0.6,5.6,1.9,13.4-2.2S68,56,69.9,51.7C71.8,47.5,76.1,37.6,71.1,29.8z"/>
</svg>
