<?xml version="1.0" encoding="utf-8"?>
<!-- Generator: Adobe Illustrator 22.1.0, SVG Export Plug-In . SVG Version: 6.00 Build 0)  -->
<svg version="1.1" id="Layer_1" xmlns="http://www.w3.org/2000/svg" xmlns:xlink="http://www.w3.org/1999/xlink" x="0px" y="0px"
	 viewBox="0 0 83.8 83.3" style="enable-background:new 0 0 83.8 83.3;" xml:space="preserve">
<style type="text/css">
	.st0{fill:#2FBAFD;}
	.st1{fill:none;stroke:#2FBAFD;stroke-width:4;stroke-linecap:round;stroke-linejoin:round;stroke-miterlimit:10;}
</style>
<g>
	<path class="st0" d="M39.3,40.5c0-1.1-0.4-2.1-1.1-2.8c-0.7-0.7-1.9-1.4-3.6-2c-1.7-0.6-3-1.1-3.9-1.6c-3.1-1.7-4.6-4.1-4.6-7.4
		c0-2.2,0.7-4,2-5.4s3.2-2.3,5.4-2.5v-4.3h3.2v4.4c2.3,0.3,4.1,1.3,5.3,2.9c1.3,1.6,1.9,3.7,1.9,6.3h-4.8c0-1.7-0.4-3-1.1-3.9
		c-0.7-1-1.8-1.4-3.1-1.4c-1.3,0-2.3,0.3-3,1c-0.7,0.7-1.1,1.7-1.1,3c0,1.2,0.4,2.1,1.1,2.8c0.7,0.7,1.9,1.4,3.6,2
		c1.7,0.6,3,1.2,4,1.7c1,0.5,1.8,1.1,2.4,1.8c0.7,0.7,1.2,1.5,1.5,2.4c0.4,0.9,0.5,1.9,0.5,3.1c0,2.2-0.7,4.1-2.1,5.4
		s-3.3,2.2-5.7,2.5v3.9h-3.2v-3.9c-2.6-0.3-4.6-1.2-6.1-2.8C25.7,44,25,41.9,25,39.3h4.8c0,1.7,0.4,3,1.3,3.9s2,1.4,3.6,1.4
		c1.5,0,2.7-0.4,3.4-1.1S39.3,41.7,39.3,40.5z"/>
</g>
<polygon class="st1" points="72,40.9 72,58.5 79.5,58.5 64.8,78.1 50,58.5 57.6,58.5 57.6,40.9 "/>
<path class="st1" d="M43.3,65.5c-2.3,0.7-4.8,1-7.3,1.1C18.7,67.3,4.3,53.8,3.7,36.6S16.5,4.9,33.8,4.3s31.7,12.9,32.3,30.1"/>
</svg>
