<svg xmlns="http://www.w3.org/2000/svg" viewBox="0 0 68.272 100">
    <defs>
        <style>
            .cls-1,.cls-2{fill:none;stroke-width:4px}.cls-1,.cls-2,.cls-3{stroke:#2fbafd;stroke-miterlimit:10}.cls-1{stroke-linecap:round}.cls-3,.cls-5{fill:#2fbafd}.cls-3{stroke-width:8px}.cls-4{fill:#fff;font-size:21px;font-family:Roboto-Medium,Roboto;font-weight:500}
        </style>
    </defs>
    <g id="Group_1317" data-name="Group 1317" transform="translate(-.461)">
        <path id="Path_1144" d="M56.579 42.188c7.137 1.2 11.694 2.966 11.694 4.987 0 3.568-14.4 6.449-32.158 6.449S4 50.743 4 47.175c0-2.451 6.836-4.6 16.853-5.675" class="cls-1" data-name="Path 1144" transform="translate(-1.539 -23.659)"/>
        <g id="Group_1316" data-name="Group 1316" transform="translate(2.461 23.516)">
            <path id="Path_1145" d="M4 54.7l23.473 25.924L30.1 101.69" class="cls-2" data-name="Path 1145" transform="translate(-4 -54.7)"/>
            <path id="Path_1146" d="M118.9 54.7L95.465 80.624 92.8 101.69" class="cls-2" data-name="Path 1146" transform="translate(-54.624 -54.7)"/>
        </g>
        <circle id="Ellipse_135" cx="14.488" cy="14.488" r="14.488" class="cls-3" data-name="Ellipse 135" transform="translate(19.485 67.024)"/>
        <text id="_" class="cls-4" data-name="$" transform="translate(27.603 87.869)">
            <tspan x="0" y="0">$</tspan>
        </text>
        <path id="Path_1147" d="M72.81 91.6a171.7 171.7 0 0 1-17.5.9 174.741 174.741 0 0 1-17.71-.9" class="cls-2" data-name="Path 1147" transform="translate(-20.694 -52.22)"/>
        <path id="Path_1148" d="M75.319 113.5a55.12 55.12 0 0 1-9.845.9 56.221 56.221 0 0 1-9.974-.9" class="cls-2" data-name="Path 1148" transform="translate(-30.899 -64.705)"/>
        <path id="Path_1149" d="M75.907 134.4a35.643 35.643 0 0 1-7.91.9 36.131 36.131 0 0 1-8-.9" class="cls-2" data-name="Path 1149" transform="translate(-33.464 -76.619)"/>
        <circle id="Ellipse_136" cx="4.428" cy="4.428" r="4.428" class="cls-5" data-name="Ellipse 136" transform="translate(36.51)"/>
        <circle id="Ellipse_137" cx="4.428" cy="4.428" r="4.428" class="cls-5" data-name="Ellipse 137" transform="translate(44.334 10.447)"/>
        <circle id="Ellipse_138" cx="4.428" cy="4.428" r="4.428" class="cls-5" data-name="Ellipse 138" transform="translate(56.372 4.643)"/>
        <circle id="Ellipse_139" cx="4.428" cy="4.428" r="4.428" class="cls-5" data-name="Ellipse 139" transform="translate(23.828 15.004)"/>
        <circle id="Ellipse_140" cx="4.428" cy="4.428" r="4.428" class="cls-5" data-name="Ellipse 140" transform="translate(1.3 4.428)"/>
        <circle id="Ellipse_141" cx="3.052" cy="3.052" r="3.052" class="cls-5" data-name="Ellipse 141" transform="translate(16.992 1.161)"/>
    </g>
</svg>
