<svg xmlns="http://www.w3.org/2000/svg" viewBox="0 0 1619.928 881.602">
    <defs>
        <style>
            .cls-1{opacity:.095;fill:url(#radial-gradient)}
        </style>
        <radialGradient id="radial-gradient" cx="1385.618" cy="49.581" r="4156.499" gradientTransform="matrix(.544 0 0 .53 631.534 23.305)" gradientUnits="userSpaceOnUse">
            <stop offset="0" stop-color="#02adff"/>
            <stop offset="1" stop-color="#009cfd"/>
        </radialGradient>
    </defs>
    <path id="Path_1143" d="M295.379 199.729C432.546 89.212 542.8 48.052 620.277 30.463S782.959-2.175 870.679.273s140.706 41.432 87.813 106.8-29.612 106.889 26.074 107.977c91.258 1.813 128.786-11.514 285.508-82.955 107.089-48.776 162.123-61.65 230.288-38.35 57.921 19.764 106.623 95.285-4.749 203.082-74.124 71.713-125.806 139.528-109.7 169.719 19.835 37.171 95.542 30.19 149.738 27.652s92.935 38.984 82.6 90.48-125.246 306.708-839.11 296.645C65.184 871.259-74.962 550.317 31.94 436.174 129.717 331.823 189.035 285.4 295.379 199.729z" class="cls-1" data-name="Path 1143" transform="translate(.001 -.011)"/>
</svg>
